%FSTAX23Y23*%
%MOIN*%
%SFA1B1*%

%IPPOS*%
%AMD16*
4,1,4,0.032600,0.006800,-0.018300,0.027800,-0.032600,-0.006800,0.018300,-0.027800,0.032600,0.006800,0.0*
%
%AMD17*
4,1,4,-0.018300,-0.027800,0.032600,-0.006800,0.018300,0.027800,-0.032600,0.006800,-0.018300,-0.027800,0.0*
%
%AMD19*
4,1,4,-0.027800,0.018300,-0.006800,-0.032600,0.027800,-0.018300,0.006800,0.032600,-0.027800,0.018300,0.0*
%
%AMD20*
4,1,4,-0.018800,-0.014500,0.003000,-0.023500,0.018800,0.014500,-0.003000,0.023500,-0.018800,-0.014500,0.0*
1,1,0.023620,-0.007900,-0.019000*
1,1,0.023620,0.007900,0.019000*
%
%ADD15R,0.055120X0.037400*%
G04~CAMADD=16~9~0.0~0.0~551.2~374.0~0.0~0.0~0~0.0~0.0~0.0~0.0~0~0.0~0.0~0.0~0.0~0~0.0~0.0~0.0~337.5~652.0~555.0*
%ADD16D16*%
G04~CAMADD=17~9~0.0~0.0~551.2~374.0~0.0~0.0~0~0.0~0.0~0.0~0.0~0~0.0~0.0~0.0~0.0~0~0.0~0.0~0.0~202.5~652.0~555.0*
%ADD17D17*%
%ADD18R,0.057090X0.043310*%
G04~CAMADD=19~9~0.0~0.0~551.2~374.0~0.0~0.0~0~0.0~0.0~0.0~0.0~0~0.0~0.0~0.0~0.0~0~0.0~0.0~0.0~112.5~556.0~651.0*
%ADD19D19*%
G04~CAMADD=20~3~0.0~0.0~236.2~649.6~0.0~0.0~0~0.0~0.0~0.0~0.0~0~0.0~0.0~0.0~0.0~0~0.0~0.0~0.0~157.5~392.0~614.0*
%ADD20D20*%
%LNfront_end-1*%
%LPD*%
G54D15*
X04541Y02983D03*
Y03056D03*
X04677Y03054D03*
Y02981D03*
X0508Y0335D03*
Y03277D03*
X0499Y0335D03*
Y03277D03*
G54D16*
X04291Y04186D03*
X04318Y04253D03*
X04572Y04069D03*
X04599Y04136D03*
X04527Y04166D03*
X045Y04099D03*
X04428Y04129D03*
X04455Y04196D03*
X04153Y04143D03*
X04126Y04076D03*
X04056Y03901D03*
X04083Y03968D03*
G54D17*
X04624Y03507D03*
X04652Y0344D03*
X04537Y0347D03*
X04564Y03403D03*
X04513Y03776D03*
X04541Y03709D03*
X04389Y03723D03*
X04417Y03656D03*
G54D18*
X04541Y03222D03*
Y03127D03*
X04677Y03222D03*
Y03127D03*
G54D19*
X04968Y03683D03*
X04901Y03656D03*
G54D20*
X04397Y04057D03*
X04351Y04076D03*
X04305Y04095D03*
X04259Y04115D03*
X04288Y03794D03*
X04242Y03813D03*
X04196Y03832D03*
X04149Y03851D03*
M02*