%FSTAX23Y23*%
%MOIN*%
%SFA1B1*%

%IPPOS*%
%AMD22*
4,1,4,0.037800,0.008900,-0.020400,0.033000,-0.037800,-0.008900,0.020400,-0.033000,0.037800,0.008900,0.0*
%
%AMD23*
4,1,4,-0.020400,-0.033000,0.037800,-0.008900,0.020400,0.033000,-0.037800,0.008900,-0.020400,-0.033000,0.0*
%
%AMD25*
4,1,4,-0.033000,0.020400,-0.008900,-0.037800,0.033000,-0.020400,0.008900,0.037800,-0.033000,0.020400,0.0*
%
%AMD26*
4,1,4,-0.022500,-0.013000,0.006700,-0.025100,0.022500,0.013000,-0.006700,0.025100,-0.022500,-0.013000,0.0*
1,1,0.031620,-0.007900,-0.019000*
1,1,0.031620,0.007900,0.019000*
%
%AMD28*
4,1,4,-0.018100,-0.043800,0.043800,-0.018100,0.018100,0.043800,-0.043800,0.018100,-0.018100,-0.043800,0.0*
%
%ADD21R,0.063120X0.045400*%
G04~CAMADD=22~9~0.0~0.0~631.2~454.0~0.0~0.0~0~0.0~0.0~0.0~0.0~0~0.0~0.0~0.0~0.0~0~0.0~0.0~0.0~337.5~756.0~659.0*
%ADD22D22*%
G04~CAMADD=23~9~0.0~0.0~631.2~454.0~0.0~0.0~0~0.0~0.0~0.0~0.0~0~0.0~0.0~0.0~0.0~0~0.0~0.0~0.0~202.5~756.0~659.0*
%ADD23D23*%
%ADD24R,0.065090X0.051310*%
G04~CAMADD=25~9~0.0~0.0~631.2~454.0~0.0~0.0~0~0.0~0.0~0.0~0.0~0~0.0~0.0~0.0~0.0~0~0.0~0.0~0.0~112.5~660.0~755.0*
%ADD25D25*%
G04~CAMADD=26~3~0.0~0.0~316.2~729.6~0.0~0.0~0~0.0~0.0~0.0~0.0~0~0.0~0.0~0.0~0.0~0~0.0~0.0~0.0~157.5~470.0~694.0*
%ADD26D26*%
%ADD27C,0.074930*%
G04~CAMADD=28~10~0.0~670.5~0.0~0.0~0.0~0.0~0~0.0~0.0~0.0~0.0~0~0.0~0.0~0.0~0.0~0~0.0~0.0~0.0~202.5~670.5~0.0*
%ADD28D28*%
%ADD29C,0.067060*%
%ADD30C,0.165480*%
%ADD31C,0.204850*%
%LNfront_end-1*%
%LPD*%
G54D21*
X04541Y02983D03*
Y03056D03*
X04677Y03054D03*
Y02981D03*
X0508Y0335D03*
Y03277D03*
X0499Y0335D03*
Y03277D03*
G54D22*
X04291Y04186D03*
X04318Y04253D03*
X04572Y04069D03*
X04599Y04136D03*
X04527Y04166D03*
X045Y04099D03*
X04428Y04129D03*
X04455Y04196D03*
X04153Y04143D03*
X04126Y04076D03*
X04056Y03901D03*
X04083Y03968D03*
G54D23*
X04624Y03507D03*
X04652Y0344D03*
X04537Y0347D03*
X04564Y03403D03*
X04513Y03776D03*
X04541Y03709D03*
X04389Y03723D03*
X04417Y03656D03*
G54D24*
X04541Y03222D03*
Y03127D03*
X04677Y03222D03*
Y03127D03*
G54D25*
X04968Y03683D03*
X04901Y03656D03*
G54D26*
X04397Y04057D03*
X04351Y04076D03*
X04305Y04095D03*
X04259Y04115D03*
X04288Y03794D03*
X04242Y03813D03*
X04196Y03832D03*
X04149Y03851D03*
G54D27*
X03185Y0387D03*
X04576Y02479D03*
X03185D03*
X04576Y0387D03*
G54D28*
X04896Y03437D03*
G54D29*
X04803Y03398D03*
X04857Y03529D03*
X04765Y03491D03*
X04819Y03621D03*
X04727Y03583D03*
X04781Y03714D03*
X04689Y03676D03*
G54D30*
X02896Y03175D03*
X0388Y04159D03*
X04865Y03175D03*
X0388Y0219D03*
G54D31*
X0388Y03175D03*
M02*