%FSTAX23Y23*%
%MOIN*%
%SFA1B1*%

%IPPOS*%
%ADD10C,0.003940*%
%ADD11C,0.023620*%
%ADD12C,0.009840*%
%ADD13C,0.007870*%
%ADD14C,0.010000*%
%LNfront_end-1*%
%LPD*%
G54D10*
X04716Y03097D02*
D01*
D01*
G75*
G03X04712I-00001J0D01*
G74*G01*
D01*
G75*
G03X04716I00001J0D01*
G74*G01*
G54D11*
X04182Y03937D02*
D01*
D01*
G75*
G03X04159I-00011J0D01*
G74*G01*
D01*
G75*
G03X04182I00011J0D01*
G74*G01*
G54D12*
X04123Y03864D02*
D01*
D01*
G75*
G03X04114I-00004J0D01*
G74*G01*
D01*
G75*
G03X04123I00004J0D01*
G74*G01*
G54D13*
X04517Y03018D02*
Y03021D01*
X04564Y03018D02*
Y03021D01*
X04701Y03016D02*
Y0302D01*
X04654Y03016D02*
Y0302D01*
X04282Y04227D02*
X04283Y0423D01*
X04326Y04209D02*
X04327Y04212D01*
X04563Y0411D02*
X04564Y04113D01*
X04607Y04092D02*
X04608Y04095D01*
X04535Y04122D02*
X04536Y04125D01*
X04491Y0414D02*
X04492Y04143D01*
X04419Y0417D02*
X0442Y04173D01*
X04463Y04152D02*
X04464Y04155D01*
X04659Y03484D02*
X04661Y0348D01*
X04616Y03466D02*
X04617Y03462D01*
X04572Y03447D02*
X04573Y03444D01*
X04528Y03429D02*
X04529Y03426D01*
X04623Y03703D02*
X04808Y03779D01*
X04776Y03333D02*
X04961Y0341D01*
X04623Y03703D02*
X04776Y03333D01*
X04808Y03779D02*
X04961Y0341D01*
X05103Y03312D02*
Y03316D01*
X05056Y03312D02*
Y03316D01*
X05013Y03312D02*
Y03316D01*
X04966Y03312D02*
Y03316D01*
X04942Y03647D02*
X04945Y03648D01*
X04924Y03691D02*
X04927Y03692D01*
X04548Y03754D02*
X0455Y0375D01*
X04504Y03735D02*
X04506Y03732D01*
X04424Y037D02*
X04425Y03697D01*
X0438Y03682D02*
X04382Y03679D01*
X04355Y03818D02*
X04428Y03992D01*
X04119Y03916D02*
X04191Y0409D01*
X04428Y03992*
X04119Y03916D02*
X04355Y03818D01*
X04161Y04099D02*
X04162Y04102D01*
X04117Y04117D02*
X04118Y0412D01*
X04047Y03942D02*
X04048Y03945D01*
X04091Y03924D02*
X04092Y03927D01*
G54D14*
X04005Y04092D02*
Y04131D01*
X04024*
X04031Y04125*
Y04112*
X04024Y04105*
X04005*
X04018D02*
X04031Y04092D01*
X04044Y04131D02*
X0407D01*
Y04125*
X04044Y04099*
Y04092*
X04005Y04156D02*
X04018D01*
X04011*
Y04196*
X04005Y04189*
X04037D02*
X04044Y04196D01*
X04057*
X04064Y04189*
Y04163*
X04057Y04156*
X04044*
X04037Y04163*
Y04189*
X04077Y04156D02*
Y04196D01*
X0409Y04183*
X04103Y04196*
Y04156*
X03924Y03868D02*
Y03907D01*
X03943*
X0395Y039*
Y03887*
X03943Y03881*
X03924*
X03937D02*
X0395Y03868D01*
X03983D02*
Y03907D01*
X03963Y03887*
X03989*
X03923Y03807D02*
X03936D01*
X03929*
Y03846*
X03923Y03839*
X03955D02*
X03962Y03846D01*
X03975*
X03982Y03839*
Y03813*
X03975Y03807*
X03962*
X03955Y03813*
Y03839*
X03995Y03807D02*
Y03846D01*
X04008Y03833*
X04021Y03846*
Y03807*
X04507Y03988D02*
X04471Y04003D01*
X04478Y04021*
X04487Y04025*
X04499Y0402*
X04502Y04011*
X04495Y03993*
X045Y04005D02*
X04517Y04012D01*
X04492Y04037D02*
X04488Y04046D01*
X04493Y04058*
X04502Y04061*
X04508Y04059*
X04511Y0405*
X04509Y04044*
X04511Y0405*
X0452Y04054*
X04526Y04051*
X0453Y04043*
X04525Y04031*
X04516Y04027*
X04451Y04011D02*
X04415Y04026D01*
X04423Y04044*
X04431Y04048*
X04443Y04043*
X04447Y04034*
X04439Y04016*
X04444Y04028D02*
X04461Y04035D01*
X04466Y04047D02*
X04471Y04059D01*
X04469Y04053*
X04433Y04068*
X04436Y0406*
X04456Y04234D02*
X04471Y0427D01*
X04445Y0426*
X04469Y0425*
X04474Y04226D02*
X04476Y04233D01*
X04482Y0423*
X0448Y04224*
X04474Y04226*
X04519Y0425D02*
X04543Y0424D01*
X04541Y04234*
X04507Y0422*
X04504Y04214*
X04541Y04199D02*
X04556Y04235D01*
X04546Y04211D02*
X04569Y04216D01*
X04546Y04211D02*
X04559Y04191D01*
X04459Y0385D02*
X04464Y03862D01*
X04462Y03856*
X04498Y03841*
X04496Y03835*
X04501Y03847*
X04488Y03902D02*
X04479Y03898D01*
X04474Y03886*
X04478Y03877*
X04502Y03867*
X04511Y03871*
X04516Y03883*
X04512Y03892*
X04523Y03901D02*
X04528Y03913D01*
X04526Y03907*
X04489Y03922*
X04493Y03914*
X04358Y03775D02*
X04368Y03799D01*
X04363Y03787*
X044Y03772*
X04373Y03811D02*
X0441Y03796D01*
X0442Y0382*
X04388Y03847D02*
X04413Y03837D01*
X0443Y03844*
X04423Y03861*
X04398Y03872*
X0445Y03893D02*
X0444Y03869D01*
X04425Y03903*
X04419Y03905*
X04411Y03902*
X04406Y0389*
X04409Y03881*
X04418Y0392D02*
X04428Y03944D01*
X04434Y03942*
X04449Y03907*
X04455Y03905*
X0448Y03966D02*
X0447Y03941D01*
X04456Y03976*
X0445Y03978*
X04441Y03975*
X04436Y03962*
X0444Y03954*
X04543Y04001D02*
X04535Y03998D01*
X0453Y03986*
X04533Y03977*
X04557Y03967*
X04566Y03971*
X04571Y03983*
X04568Y03991*
X04552Y0404D02*
X04553Y04026D01*
X0456Y04008*
X04573Y04003*
X04581Y04007*
X04586Y04019*
X04583Y04028*
X04577Y0403*
X04568Y04027*
X0456Y04008*
X04614Y04018D02*
X04627D01*
X0462*
Y04057*
X04614Y0405*
X04646D02*
X04653Y04057D01*
X04666*
X04673Y0405*
Y04024*
X04666Y04018*
X04653*
X04646Y04024*
Y0405*
X04686D02*
X04692Y04057D01*
X04705*
X04712Y0405*
Y04024*
X04705Y04018*
X04692*
X04686Y04024*
Y0405*
X04725Y04018D02*
Y04044D01*
X04745*
X04751Y04037*
Y04018*
X04791Y04057D02*
X04764D01*
Y04037*
X04777*
X04764*
Y04018*
X04204Y0423D02*
X04197Y04237D01*
X04184*
X04178Y0423*
Y04204*
X04184Y04198*
X04197*
X04204Y04204*
X04243Y04198D02*
X04217D01*
X04243Y04224*
Y0423*
X04237Y04237*
X04223*
X04217Y0423*
X04139Y04257D02*
X04152D01*
X04145*
Y04296*
X04139Y0429*
X04171D02*
X04178Y04296D01*
X04191*
X04198Y0429*
Y04263*
X04191Y04257*
X04178*
X04171Y04263*
Y0429*
X04211Y04257D02*
Y04283D01*
X0423*
X04237Y04277*
Y04257*
X04276Y04296D02*
X0425D01*
Y04277*
X04263*
X0425*
Y04257*
X04273Y03674D02*
Y03713D01*
X04293*
X043Y03706*
Y03693*
X04293Y03687*
X04273*
X04286D02*
X043Y03674D01*
X04313Y0368D02*
X04319Y03674D01*
X04332*
X04339Y0368*
Y03706*
X04332Y03713*
X04319*
X04313Y03706*
Y037*
X04319Y03693*
X04339*
X04274Y03609D02*
Y03648D01*
X04254Y03628*
X04281*
X04294Y03648D02*
X0432D01*
Y03641*
X04294Y03615*
Y03609*
X04333Y03641D02*
X0434Y03648D01*
X04353*
X04359Y03641*
Y03615*
X04353Y03609*
X0434*
X04333Y03615*
Y03641*
X04645Y02896D02*
Y02935D01*
X04665*
X04671Y02928*
Y02915*
X04665Y02909*
X04645*
X04658D02*
X04671Y02896D01*
X04684Y02928D02*
X04691Y02935D01*
X04704*
X04711Y02928*
Y02922*
X04704Y02915*
X04711Y02909*
Y02902*
X04704Y02896*
X04691*
X04684Y02902*
Y02909*
X04691Y02915*
X04684Y02922*
Y02928*
X04691Y02915D02*
X04704D01*
X04673Y02837D02*
X04646D01*
X04673Y02863*
Y02869*
X04666Y02876*
X04653*
X04646Y02869*
X04712Y02837D02*
X04686D01*
X04712Y02863*
Y02869*
X04705Y02876*
X04692*
X04686Y02869*
X04725Y02837D02*
Y02876D01*
Y0285D02*
X04745Y02863D01*
X04725Y0285D02*
X04745Y02837D01*
X04509Y02898D02*
Y02937D01*
X04529*
X04535Y0293*
Y02917*
X04529Y02911*
X04509*
X04522D02*
X04535Y02898D01*
X04575Y02937D02*
X04561Y0293D01*
X04548Y02917*
Y02904*
X04555Y02898*
X04568*
X04575Y02904*
Y02911*
X04568Y02917*
X04548*
X04537Y02837D02*
X0451D01*
X04537Y02863*
Y02869*
X0453Y02876*
X04517*
X0451Y02869*
X04576Y02837D02*
X0455D01*
X04576Y02863*
Y02869*
X04569Y02876*
X04556*
X0455Y02869*
X04589D02*
X04596Y02876D01*
X04609*
X04615Y02869*
Y02843*
X04609Y02837*
X04596*
X04589Y02843*
Y02869*
X04579Y03728D02*
Y03767D01*
X04598*
X04605Y0376*
Y03747*
X04598Y03741*
X04579*
X04592D02*
X04605Y03728D01*
X04644Y03767D02*
X04618D01*
Y03747*
X04631Y03754*
X04638*
X04644Y03747*
Y03734*
X04638Y03728*
X04625*
X04618Y03734*
X04563Y03782D02*
Y03821D01*
X04543Y03801*
X04569*
X04582Y03821D02*
X04609D01*
Y03814*
X04582Y03788*
Y03782*
X04622Y03814D02*
X04628Y03821D01*
X04641*
X04648Y03814*
Y03788*
X04641Y03782*
X04628*
X04622Y03788*
Y03814*
X04859Y03723D02*
Y03762D01*
X04878*
X04885Y03755*
Y03742*
X04878Y03736*
X04859*
X04872D02*
X04885Y03723D01*
X04924D02*
X04898D01*
X04924Y03749*
Y03755*
X04918Y03762*
X04904*
X04898Y03755*
X04947Y03579D02*
Y03618D01*
X04927Y03598*
X04953*
X04966Y03618D02*
X04993D01*
Y03612*
X04966Y03585*
Y03579*
X04759Y03812D02*
Y03852D01*
X04778*
X04785Y03845*
Y03832*
X04778Y03825*
X04759*
X04798Y03812D02*
X04811D01*
X04804*
Y03852*
X04798Y03845*
X0449Y03551D02*
X04483Y03558D01*
X0447*
X04464Y03551*
Y03525*
X0447Y03519*
X04483*
X0449Y03525*
X04503Y03519D02*
X04516D01*
X04509*
Y03558*
X04503Y03551*
X04536Y03519D02*
X04549D01*
X04542*
Y03558*
X04536Y03551*
X04562Y03319D02*
X04574Y03324D01*
X04568Y03321*
X04553Y03357*
X04549Y03349*
X04579Y03361D02*
X04583Y0337D01*
X04595Y03375*
X04603Y03371*
X04614Y03347*
X0461Y03339*
X04598Y03334*
X04589Y03337*
X04579Y03361*
X04616Y03376D02*
X04619Y03385D01*
X04631Y0339*
X0464Y03386*
X0465Y03362*
X04646Y03354*
X04634Y03349*
X04626Y03352*
X04616Y03376*
X04665Y03361D02*
X04654Y03385D01*
X04673Y03393*
X04681Y03389*
X04689Y03371*
X0471Y03423D02*
X04686Y03413D01*
X04693Y03394*
X04705Y03399*
X04693Y03394*
X04701Y03376*
X04595Y03589D02*
X04588Y03596D01*
X04575*
X04569Y03589*
Y03563*
X04575Y03557*
X04588*
X04595Y03563*
X04608Y03596D02*
X04634D01*
Y03589*
X04608Y03563*
Y03557*
X05005Y03418D02*
X04998Y03425D01*
X04985*
X04979Y03418*
Y03392*
X04985Y03386*
X04998*
X05005Y03392*
X05044Y03425D02*
X05018D01*
Y03405*
X05031Y03412*
X05038*
X05044Y03405*
Y03392*
X05038Y03386*
X05024*
X05018Y03392*
X0502Y03093D02*
Y03106D01*
Y03099*
X0498*
X04987Y03093*
Y03125D02*
X0498Y03132D01*
Y03145*
X04987Y03152*
X05013*
X0502Y03145*
Y03132*
X05013Y03125*
X04987*
X04993Y03165D02*
X05013D01*
X0502Y03171*
Y03191*
X04993*
X0498Y0323D02*
Y03204D01*
X05*
Y03217*
Y03204*
X0502*
X05096Y03421D02*
X05089Y03427D01*
X05076*
X0507Y03421*
Y03394*
X05076Y03388*
X05089*
X05096Y03394*
X05109Y03388D02*
X05122D01*
X05115*
Y03427*
X05109Y03421*
X0511Y03053D02*
Y03066D01*
Y0306*
X0507*
X05077Y03053*
Y03086D02*
X0507Y03093D01*
Y03106*
X05077Y03112*
X05103*
X0511Y03106*
Y03093*
X05103Y03086*
X05077*
Y03125D02*
X0507Y03132D01*
Y03145*
X05077Y03152*
X05103*
X0511Y03145*
Y03132*
X05103Y03125*
X05077*
X0511Y03165D02*
X05083D01*
Y03184*
X0509Y03191*
X0511*
X0507Y0323D02*
Y03204D01*
X0509*
Y03217*
Y03204*
X0511*
X04637Y02496D02*
Y02457D01*
X04656*
X04663Y02463*
Y0247*
X04656Y02476*
X04637*
X04656*
X04663Y02483*
Y02489*
X04656Y02496*
X04637*
X04432Y03133D02*
Y03146D01*
Y03139*
X04472*
Y03133*
Y03146*
X04439Y03192D02*
X04432Y03185D01*
Y03172*
X04439Y03165*
X04465*
X04472Y03172*
Y03185*
X04465Y03192*
X04472Y03231D02*
Y03205D01*
X04445Y03231*
X04439*
X04432Y03224*
Y03211*
X04439Y03205*
X04463Y03296D02*
X04457Y03302D01*
X04444*
X04437Y03296*
Y0327*
X04444Y03263*
X04457*
X04463Y0327*
Y03283*
X0445*
X04476Y03263D02*
Y03302D01*
X04496*
X04503Y03296*
Y03283*
X04496Y03276*
X04476*
X04542Y03263D02*
X04516D01*
X04542Y03289*
Y03296*
X04535Y03302*
X04522*
X04516Y03296*
X04581D02*
X04575Y03302D01*
X04562*
X04555Y03296*
Y03289*
X04562Y03283*
X04575*
X04581Y03276*
Y0327*
X04575Y03263*
X04562*
X04555Y0327*
X04594Y03302D02*
X04621D01*
Y03296*
X04594Y0327*
Y03263*
X04634Y03296D02*
X0464Y03302D01*
X04653*
X0466Y03296*
Y0327*
X04653Y03263*
X0464*
X04634Y0327*
Y03296*
X04673D02*
X0468Y03302D01*
X04693*
X04699Y03296*
Y0327*
X04693Y03263*
X0468*
X04673Y0327*
Y03296*
X04712Y03302D02*
Y03263D01*
Y03283*
X04739*
Y03302*
Y03263*
X04778Y03296D02*
X04772Y03302D01*
X04758*
X04752Y03296*
Y0327*
X04758Y03263*
X04772*
X04778Y0327*
X04791Y03263D02*
Y03302D01*
X04811*
X04817Y03296*
Y03283*
X04811Y03276*
X04791*
X03244Y02465D02*
Y02491D01*
X03257Y02504*
X0327Y02491*
Y02465*
Y02484*
X03244*
X04641Y03859D02*
Y03885D01*
X04654Y03898*
X04667Y03885*
Y03859*
Y03878*
X04641*
X03246Y03901D02*
Y03862D01*
X03265*
X03272Y03868*
Y03875*
X03265Y03881*
X03246*
X03265*
X03272Y03888*
Y03894*
X03265Y03901*
X03246*
M02*