%FSTAX23Y23*%
%MOIN*%
%SFA1B1*%

%IPPOS*%
%AMD16*
4,1,4,0.032600,0.006800,-0.018300,0.027800,-0.032600,-0.006800,0.018300,-0.027800,0.032600,0.006800,0.0*
%
%AMD17*
4,1,4,-0.018300,-0.027800,0.032600,-0.006800,0.018300,0.027800,-0.032600,0.006800,-0.018300,-0.027800,0.0*
%
%AMD19*
4,1,4,-0.027800,0.018300,-0.006800,-0.032600,0.027800,-0.018300,0.006800,0.032600,-0.027800,0.018300,0.0*
%
%AMD20*
4,1,4,-0.018800,-0.014500,0.003000,-0.023500,0.018800,0.014500,-0.003000,0.023500,-0.018800,-0.014500,0.0*
1,1,0.023620,-0.007900,-0.019000*
1,1,0.023620,0.007900,0.019000*
%
%AMD35*
4,1,4,-0.016000,-0.038500,0.038500,-0.016000,0.016000,0.038500,-0.038500,0.016000,-0.016000,-0.038500,0.0*
%
%ADD12C,0.009840*%
%ADD14C,0.010000*%
%ADD15R,0.055120X0.037400*%
G04~CAMADD=16~9~0.0~0.0~551.2~374.0~0.0~0.0~0~0.0~0.0~0.0~0.0~0~0.0~0.0~0.0~0.0~0~0.0~0.0~0.0~337.5~652.0~555.0*
%ADD16D16*%
G04~CAMADD=17~9~0.0~0.0~551.2~374.0~0.0~0.0~0~0.0~0.0~0.0~0.0~0~0.0~0.0~0.0~0.0~0~0.0~0.0~0.0~202.5~652.0~555.0*
%ADD17D17*%
%ADD18R,0.057090X0.043310*%
G04~CAMADD=19~9~0.0~0.0~551.2~374.0~0.0~0.0~0~0.0~0.0~0.0~0.0~0~0.0~0.0~0.0~0.0~0~0.0~0.0~0.0~112.5~556.0~651.0*
%ADD19D19*%
G04~CAMADD=20~3~0.0~0.0~236.2~649.6~0.0~0.0~0~0.0~0.0~0.0~0.0~0~0.0~0.0~0.0~0.0~0~0.0~0.0~0.0~157.5~392.0~614.0*
%ADD20D20*%
%ADD32C,0.015750*%
%ADD33C,0.011810*%
%ADD34C,0.066930*%
G04~CAMADD=35~10~0.0~590.6~0.0~0.0~0.0~0.0~0~0.0~0.0~0.0~0.0~0~0.0~0.0~0.0~0.0~0~0.0~0.0~0.0~202.5~590.6~0.0*
%ADD35D35*%
%ADD36C,0.059060*%
%ADD37C,0.157480*%
%ADD38C,0.196850*%
%LNfront_end-1*%
%LPD*%
G36*
X03975Y04451D02*
X04037Y04445D01*
X04099Y04436*
X04161Y04423*
X04222Y04408*
X04282Y0439*
X04341Y04369*
X04399Y04345*
X04456Y04318*
X04511Y04288*
X04565Y04256*
X04617Y04221*
X04668Y04184*
X04716Y04144*
X04763Y04101*
X04807Y04057*
X0485Y04011*
X0489Y03962*
X04927Y03911*
X04962Y03859*
X04994Y03805*
X05024Y0375*
X05051Y03693*
X05075Y03635*
X05096Y03576*
X05114Y03516*
X05129Y03455*
X05142Y03393*
X05151Y03331*
X05157Y03269*
X0516Y03206*
Y03175*
Y03143*
X05157Y0308*
X05151Y03018*
X05142Y02956*
X05129Y02894*
X05114Y02833*
X05096Y02773*
X05075Y02714*
X05051Y02656*
X05024Y02599*
X04994Y02544*
X04962Y0249*
X04927Y02438*
X0489Y02387*
X0485Y02338*
X04807Y02292*
X04763Y02248*
X04716Y02205*
X04668Y02165*
X04617Y02128*
X04565Y02093*
X04511Y02061*
X04456Y02031*
X04399Y02004*
X04341Y0198*
X04282Y01959*
X04222Y01941*
X04161Y01926*
X04099Y01913*
X04037Y01904*
X03975Y01898*
X03912Y01895*
X03849*
X03786Y01898*
X03724Y01904*
X03662Y01913*
X036Y01926*
X03539Y01941*
X03479Y01959*
X0342Y0198*
X03362Y02004*
X03305Y02031*
X0325Y02061*
X03196Y02093*
X03144Y02128*
X03093Y02165*
X03044Y02205*
X02998Y02248*
X02954Y02292*
X02911Y02338*
X02871Y02387*
X02834Y02438*
X02799Y0249*
X02767Y02544*
X02737Y02599*
X0271Y02656*
X02686Y02714*
X02665Y02773*
X02647Y02833*
X02632Y02894*
X02619Y02956*
X0261Y03018*
X02604Y0308*
X02601Y03143*
Y03175*
Y03206*
X02604Y03269*
X0261Y03331*
X02619Y03393*
X02632Y03455*
X02647Y03516*
X02665Y03576*
X02686Y03635*
X0271Y03693*
X02737Y0375*
X02767Y03805*
X02799Y03859*
X02834Y03911*
X02871Y03962*
X02911Y04011*
X02954Y04057*
X02998Y04101*
X03044Y04144*
X03093Y04184*
X03144Y04221*
X03196Y04256*
X0325Y04288*
X03305Y04318*
X03362Y04345*
X0342Y04369*
X03479Y0439*
X03539Y04408*
X036Y04423*
X03662Y04436*
X03724Y04445*
X03786Y04451*
X03849Y04454*
X03912*
X03975Y04451*
G37*
%LNfront_end-2*%
%LPC*%
G36*
X04295Y04294D02*
X04286Y04272D01*
X04316Y0426*
X04325Y04282*
X04295Y04294*
G37*
G36*
X04334Y04278D02*
X04325Y04256D01*
X04355Y04243*
X04364Y04265*
X04334Y04278*
G37*
G36*
X0452Y04261D02*
X04518Y0426D01*
X04515Y0426*
X04464Y04247*
X04463Y04246*
X04462Y04246*
X0446Y04245*
X04457Y04244*
X04457Y04243*
X04456Y04242*
X04454Y0424*
X04452Y04238*
X04452Y04237*
X04451Y04236*
X04449Y04232*
X04431Y04239*
X04428Y04233*
X04424Y04231*
X04415Y04235*
X04411Y04236*
X0441Y04236*
X04409Y04236*
X04407Y04236*
X04404Y04236*
X04402Y04236*
X04351Y04222*
X04348Y04226*
X04351Y04234*
X04321Y04247*
X04312Y04225*
X04323Y0422*
X04323Y04215*
X04309Y04211*
X04266Y04229*
X04243Y04173*
X04256Y04167*
X04258Y04162*
X04254Y04154*
X0425Y04151*
X04244Y04143*
X04228Y04105*
X04227Y04096*
X04227Y04095*
X04223Y04092*
X04215Y04095*
X04198Y04136*
X04197Y04139*
X04195Y04141*
X04201Y04156*
X04129Y04186*
X04105Y0413*
X04168Y04104*
X04171Y04095*
X04168Y04091*
X04101Y04119*
X04095Y04105*
X03968*
X0396Y04103*
X03956Y04101*
X03953Y04104*
X03956Y04108*
X03965Y04124*
X0397Y04141*
X03971Y04159*
X0397Y04177*
X03965Y04194*
X03956Y04209*
X03945Y04223*
X03931Y04234*
X03915Y04243*
X03898Y04248*
X0388Y0425*
X03863Y04248*
X03846Y04243*
X0383Y04234*
X03816Y04223*
X03805Y04209*
X03796Y04194*
X03791Y04177*
X0379Y04159*
X03791Y04141*
X03796Y04124*
X03805Y04108*
X03816Y04094*
X0383Y04083*
X03846Y04075*
X03863Y0407*
X0388Y04068*
X03898Y0407*
X03915Y04075*
X03931Y04083*
X03934Y04079*
X03745Y03891*
X03225*
X03224Y03893*
X03217Y03903*
X03207Y0391*
X03196Y03915*
X03185Y03916*
X03173Y03915*
X03162Y0391*
X03152Y03903*
X03145Y03893*
X03144Y03891*
X0294*
X02933Y03889*
X02926Y03885*
X02755Y03714*
X02751Y03707*
X02749Y037*
Y02627*
X02751Y02619*
X02755Y02612*
X03351Y02016*
X03358Y02012*
X03366Y0201*
X04335*
X04342Y02012*
X04349Y02016*
X04591Y02258*
X04595Y02265*
X04597Y02272*
Y02438*
X04599Y02439*
X04609Y02446*
X04616Y02456*
X04621Y02467*
X04622Y02479*
X04621Y0249*
X04616Y02501*
X04609Y02511*
X04599Y02518*
X04588Y02523*
X04576Y02524*
X04565Y02523*
X04554Y02518*
X04544Y02511*
X04537Y02501*
X04532Y0249*
X04531Y02479*
X04532Y02467*
X04537Y02456*
X04544Y02446*
X04554Y02439*
X04556Y02438*
Y02281*
X04326Y02051*
X03374*
X0279Y02635*
Y03691*
X02949Y0385*
X03144*
X03145Y03848*
X03152Y03838*
X03162Y03831*
X03173Y03826*
X03185Y03825*
X03196Y03826*
X03207Y03831*
X03217Y03838*
X03224Y03848*
X03225Y0385*
X03754*
X03761Y03852*
X03768Y03856*
X03976Y04064*
X04076*
X04078Y04063*
X04085Y04059*
X04085Y04055*
X04*
X03992Y04053*
X03985Y04049*
X03744Y03808*
X03044*
X03036Y03806*
X03029Y03802*
X02882Y03654*
X02878Y03648*
X02876Y0364*
Y03263*
X02861Y03259*
X02846Y0325*
X02832Y03239*
X02821Y03225*
X02812Y03209*
X02807Y03192*
X02805Y03175*
X02807Y03157*
X02812Y0314*
X02821Y03124*
X02832Y0311*
X02846Y03099*
X02861Y0309*
X02876Y03086*
Y02649*
X02878Y02641*
X02882Y02635*
X03341Y02176*
X03347Y02172*
X03355Y0217*
X03792*
X03796Y02155*
X03805Y0214*
X03816Y02126*
X0383Y02115*
X03846Y02106*
X03863Y02101*
X0388Y02099*
X03898Y02101*
X03915Y02106*
X03931Y02115*
X03945Y02126*
X03956Y0214*
X03965Y02155*
X03969Y0217*
X04326*
X04334Y02172*
X0434Y02176*
X04498Y02333*
X04502Y0234*
X04504Y02348*
Y02589*
X04879Y02964*
X04883Y0297*
X04885Y02978*
Y03086*
X049Y0309*
X04915Y03099*
X04929Y0311*
X0494Y03124*
X04949Y0314*
X04954Y03157*
X04956Y03175*
X04954Y03192*
X04949Y03209*
X0494Y03225*
X04929Y03239*
X04915Y0325*
X049Y03259*
X04882Y03264*
X04865Y03265*
X04847Y03264*
X0483Y03259*
X04814Y0325*
X048Y03239*
X0479Y03226*
X04785Y03226*
X04785Y03226*
Y03255*
X04804Y03274*
X0485*
X04857Y03276*
X04864Y0328*
X04884Y033*
X04888Y03307*
X0489Y03315*
Y0337*
X0489Y0337*
X0489Y0337*
X04889Y03373*
X04888Y03377*
X04888Y03377*
X04888Y03377*
X04885Y03385*
X04886Y0339*
X04906Y03398*
X04891Y03435*
X04876Y03471*
X04853Y03462*
X0485Y03469*
Y03486*
X04852Y03488*
X04863*
X04873Y03491*
X04883Y03496*
X04891Y03504*
X04896Y03513*
X04899Y03524*
Y03535*
X04896Y03545*
X04891Y03554*
X04883Y03562*
X04873Y03568*
X04863Y0357*
X04852*
X04841Y03568*
X04832Y03562*
X04824Y03554*
X04819Y03545*
X04816Y03535*
Y03524*
X04818Y03518*
X04815Y03515*
X04811Y03509*
X04809Y03501*
Y03496*
X04805Y03496*
X04803Y03501*
X04772Y03488*
X04785Y03457*
X04789Y03459*
X04797Y03467*
X04802Y03476*
X04805Y03486*
X04809Y03485*
Y03465*
X04809Y03464*
X04809Y03464*
X0481Y03461*
X04811Y03457*
X04811Y03457*
X04811Y03457*
X04817Y03443*
X04813Y03439*
X04809Y0344*
X04798*
X04787Y03437*
X04778Y03432*
X0477Y03424*
X04765Y03414*
X04762Y03404*
Y03393*
X04764Y03387*
X04725Y03349*
X04721Y03342*
X04719Y03335*
Y03259*
X04717Y03255*
X04637*
Y03188*
X04717*
X04719Y03184*
Y03162*
X04716Y03159*
X04714*
X04682*
Y03127*
Y03096*
X04715*
X04718Y03092*
X04711Y03084*
X04638*
Y03023*
X04717*
Y03035*
X04717Y03035*
X04723Y0304*
X0474Y03056*
X04744Y03055*
Y03018*
X0473Y03003*
X04717*
Y03012*
X04638*
Y03003*
X0458*
Y03014*
X04501*
Y02953*
X0458*
Y02963*
X04638*
Y02951*
X04717*
Y02963*
X04738*
X04746Y02965*
X04752Y02969*
X04779Y02995*
X04783Y03002*
X04785Y0301*
Y03123*
X04785Y03123*
X0479Y03123*
X048Y0311*
X04814Y03099*
X0483Y0309*
X04845Y03086*
Y02986*
X04469Y02611*
X04465Y02605*
X04463Y02597*
Y02356*
X04318Y0221*
X03969*
X03965Y02225*
X03956Y02241*
X03945Y02255*
X03931Y02266*
X03915Y02274*
X03898Y02279*
X0388Y02281*
X03863Y02279*
X03846Y02274*
X0383Y02266*
X03816Y02255*
X03805Y02241*
X03796Y02225*
X03792Y0221*
X03363*
X02916Y02657*
Y03086*
X02931Y0309*
X02947Y03099*
X02961Y0311*
X02972Y03124*
X0298Y0314*
X02985Y03157*
X02987Y03175*
X02985Y03192*
X0298Y03209*
X02972Y03225*
X02961Y03239*
X02947Y0325*
X02931Y03259*
X02916Y03263*
Y03632*
X03052Y03767*
X03753*
X0376Y03769*
X03767Y03773*
X04008Y04014*
X04055*
X04058Y04009*
X04051Y03994*
X04023*
X04015Y03992*
X04009Y03988*
X03761Y03741*
X03189*
X03181Y03739*
X03174Y03735*
X03075Y03636*
X03071Y03629*
X03069Y03622*
Y02574*
X03071Y02566*
X03075Y02559*
X03142Y02493*
X0314Y0249*
X03139Y02479*
X0314Y02467*
X03145Y02456*
X03152Y02446*
X03162Y02439*
X03173Y02434*
X03185Y02433*
X03196Y02434*
X03207Y02439*
X03217Y02446*
X03224Y02456*
X03229Y02467*
X0323Y02479*
X03229Y0249*
X03224Y02501*
X03217Y02511*
X03207Y02518*
X03196Y02523*
X03185Y02524*
X03173Y02523*
X0317Y02522*
X0311Y02582*
Y03613*
X03197Y037*
X03725*
X03726Y03695*
X03712Y03692*
X03672Y03677*
X03634Y03659*
X03596Y03638*
X03561Y03614*
X03527Y03588*
X03496Y03559*
X03467Y03528*
X03441Y03494*
X03417Y03459*
X03396Y03421*
X03378Y03383*
X03363Y03343*
X03352Y03301*
X03343Y0326*
X03338Y03217*
X03337Y03175*
X03338Y03132*
X03343Y03089*
X03352Y03048*
X03363Y03006*
X03378Y02966*
X03396Y02928*
X03417Y0289*
X03441Y02855*
X03467Y02821*
X03496Y0279*
X03527Y02761*
X03561Y02735*
X03596Y02711*
X03634Y0269*
X03672Y02672*
X03712Y02657*
X03754Y02646*
X03795Y02637*
X03838Y02632*
X0388Y02631*
X03923Y02632*
X03966Y02637*
X04007Y02646*
X04049Y02657*
X04089Y02672*
X04127Y0269*
X04165Y02711*
X042Y02735*
X04234Y02761*
X04265Y0279*
X04294Y02821*
X0432Y02855*
X04344Y0289*
X04365Y02928*
X04383Y02966*
X04398Y03006*
X04409Y03048*
X04418Y03089*
X04423Y03132*
X04424Y03175*
X04423Y03217*
X04418Y0326*
X04409Y03301*
X04398Y03343*
X04383Y03383*
X04365Y03421*
X04344Y03459*
X0432Y03494*
X04294Y03528*
X04265Y03559*
X04234Y03588*
X042Y03614*
X04165Y03638*
X04127Y03659*
X04089Y03677*
X04049Y03692*
X04007Y03703*
X03966Y03712*
X03923Y03717*
X0388Y03718*
X03838Y03717*
X03796Y03712*
X03794Y03713*
X03793Y03716*
X04031Y03954*
X04039*
X04108Y03925*
X04112Y03935*
X04197Y039*
X042Y03894*
X0419Y0387*
X04186Y03868*
X04186Y03867*
X04181Y03869*
X04181Y0387*
X0418Y03879*
X04174Y03887*
X04167Y03892*
X04157Y03894*
X04148Y03892*
X0414Y03887*
X04135Y03879*
X04135Y03879*
X04096Y03896*
X04104Y03914*
X04031Y03944*
X04008Y03888*
X0408Y03858*
X04082Y03858*
X0412Y03842*
X04119Y03841*
X04117Y03832*
X04118Y0383*
X04107Y03808*
X04107Y03808*
X04107Y03807*
X04106Y03804*
X04106Y038*
X04106Y038*
X04105Y038*
Y03777*
X04107Y03769*
X04111Y03763*
X04172Y03702*
X04178Y03698*
X04186Y03696*
X04357*
X04364Y0368*
X04437Y0371*
X04414Y03766*
X04342Y03737*
X0425*
X04249Y03741*
X04255Y03744*
X04262Y03748*
X04265Y03753*
X04266Y03753*
X04283Y03795*
X04288Y03794*
X0429Y03798*
X0431Y0379*
X04316Y03804*
X04318Y03813*
X04316Y03821*
X04312Y03828*
X04306Y03832*
X04305Y03838*
X04315Y03842*
X04424Y0379*
X04435Y03785*
X04461Y03726*
X04461Y03726*
X04461Y03726*
X04464Y03723*
X04466Y0372*
X04466Y0372*
X04466Y03719*
X04469Y03718*
X04472Y03716*
X04473Y03716*
X04473Y03716*
X04487Y03711*
X04491Y0371*
X04494Y03709*
X04495Y0371*
X04495Y03709*
X04498Y0371*
X04516Y03666*
X04531Y03672*
X04535Y0367*
X04555Y03622*
X04594Y03527*
X04576Y0352*
X04592Y03482*
X04589Y03478*
X04576*
X04561Y03513*
X04543Y03506*
X04481Y03652*
X0448Y03653*
X0448Y03654*
X04478Y03656*
X04476Y03658*
X04475Y03659*
X04474Y0366*
X04472Y03661*
X0447Y03662*
X04469Y03663*
X04467Y03663*
X04455Y03666*
X04441Y03699*
X04369Y03669*
X04392Y03613*
X04435Y0363*
X04448Y03627*
X04505Y03494*
X04503Y03489*
X04489Y03483*
X04512Y03427*
X04544Y0344*
X04547Y03439*
X04555Y03441*
X04556Y03441*
X0457*
X04571Y03437*
X04558Y03431*
X04567Y03409*
X04597Y03422*
X04591Y03437*
X04594Y03441*
X04605*
X04608Y03442*
X0461Y03443*
X04616Y0343*
X0465Y03444*
X04685Y03458*
X04681Y03468*
X04683Y03472*
X04684Y03473*
X04687Y03475*
X0469Y03477*
Y03477*
X0469Y03477*
X04727Y03514*
X04731Y03511*
X04728Y03506*
X04726Y03496*
Y03486*
X04727Y0348*
X04763Y03495*
X04799Y0351*
X04797Y03515*
X04789Y03522*
X0478Y03528*
X0477Y0353*
X0476*
X0475Y03528*
X04748Y03527*
X04745Y0353*
X04745Y03531*
X04747Y03539*
Y03547*
X04752Y0355*
X0476Y03558*
X04765Y03567*
X04768Y03578*
Y03589*
X04765Y03599*
X0476Y03609*
X04752Y03616*
X04743Y03622*
X04732Y03625*
X04721*
X04711Y03622*
X04701Y03616*
X04694Y03609*
X04688Y03599*
X04685Y03589*
Y03578*
X04688Y03567*
X04694Y03558*
X04701Y0355*
X04704Y03549*
X04705Y03543*
X04671Y03509*
X04666Y0351*
X04649Y0355*
X04634Y03544*
X0463Y03546*
X04601Y03615*
X04603Y0362*
X04662Y03643*
X04663Y03643*
X04673Y03637*
X04683Y03634*
X04694*
X04704Y03637*
X04714Y03643*
X04722Y0365*
X04727Y0366*
X0473Y0367*
Y03681*
X04727Y03692*
X04722Y03701*
X04714Y03709*
X04704Y03714*
X04694Y03717*
X04683*
X04673Y03714*
X04663Y03709*
X04655Y03701*
X0465Y03692*
X04647Y03681*
Y03681*
X04585Y03656*
X04571Y03689*
X04589Y03696*
X04571Y0374*
X04573Y03742*
X04576Y03744*
X04579Y03745*
X04591Y03757*
X04595Y03764*
X04597Y03772*
Y0383*
X04599Y03831*
X04609Y03838*
X04616Y03848*
X04621Y03859*
X04622Y0387*
X04621Y03882*
X04616Y03893*
X04609Y03903*
X04599Y0391*
X04588Y03915*
X04576Y03916*
X04565Y03915*
X04554Y0391*
X04544Y03903*
X04538Y03895*
X04533Y03897*
Y03917*
X04556Y0394*
X0462*
X04628Y03941*
X04634Y03946*
X04679Y0399*
X04683Y03997*
X04685Y04004*
Y0406*
X04683Y04067*
X04679Y04074*
X04659Y04094*
X04652Y04098*
X04645Y041*
X04642Y04099*
X04631Y04104*
X04629Y04108*
X04632Y04117*
X04598Y04132*
X04601Y04141*
X04636Y04126*
X04638Y04131*
X04643Y04132*
X04644Y04131*
X04696Y04087*
X04746Y0404*
X04793Y0399*
X04837Y03938*
X04879Y03883*
X04917Y03826*
X04952Y03767*
X0497Y03731*
X04968Y03726*
X04925Y03708*
X04955Y03635*
X05005Y03656*
X05011Y03643*
X05036Y03579*
X05057Y03513*
X05074Y03447*
X05086Y03385*
X05082Y03381*
X0504*
Y0337*
X05029*
Y03381*
X0495*
Y0332*
X05029*
Y0333*
X0504*
Y0332*
X05119*
Y03361*
X05121Y03363*
X05126Y0337*
X05127Y03378*
Y03378*
X05127Y03382*
X05126Y03386*
X05126Y03386*
X05113Y03456*
X05095Y03524*
X05073Y03592*
X05048Y03658*
X05026Y03707*
X05026Y03708*
X05026Y03708*
X05026Y03708*
X05025Y03709*
X05019Y03723*
X04987Y03786*
X04951Y03847*
X04911Y03906*
X04869Y03962*
X04823Y04017*
X04774Y04068*
X04723Y04117*
X04668Y04163*
X04612Y04205*
X04553Y04245*
X04532Y04257*
X04531Y04258*
X0453Y04258*
X04529Y04259*
X04529Y04259*
X04528Y04259*
X04526Y0426*
X04523Y04261*
X04523Y04261*
X04522Y04261*
X04521Y04261*
X0452Y04261*
G37*
G36*
X04282Y04263D02*
X04273Y04241D01*
X04303Y04229*
X04312Y0425*
X04282Y04263*
G37*
G36*
X04291Y03787D02*
X04277Y03753D01*
X0428Y03752*
X04289Y03754*
X04296Y03759*
X04301Y03766*
X04307Y0378*
X04291Y03787*
G37*
G36*
X04786Y03755D02*
X04775D01*
X04765Y03752*
X04756Y03747*
X04748Y03739*
X04742Y0373*
X0474Y03719*
Y03708*
X04742Y03698*
X04748Y03688*
X04756Y03681*
X04765Y03675*
X04775Y03673*
X04786*
X04797Y03675*
X04806Y03681*
X04814Y03688*
X04819Y03698*
X04822Y03708*
Y03719*
X04819Y0373*
X04814Y03739*
X04806Y03747*
X04797Y03752*
X04786Y03755*
G37*
G36*
X04914Y03704D02*
X04858Y0368D01*
X04865Y03662*
X04845Y03654*
X04845Y03655*
X04835Y0366*
X04825Y03663*
X04814*
X04803Y0366*
X04794Y03655*
X04786Y03647*
X04781Y03637*
X04778Y03627*
Y03616*
X04781Y03606*
X04786Y03596*
X04794Y03588*
X04803Y03583*
X04814Y0358*
X04825*
X04835Y03583*
X04845Y03588*
X04852Y03596*
X04858Y03606*
X04861Y03616*
Y03617*
X04877Y03624*
X04882Y03622*
X04888Y03608*
X04944Y03631*
X04914Y03704*
G37*
G36*
X04762Y03484D02*
X04731Y03471D01*
X04733Y03467*
X04741Y03459*
X0475Y03454*
X0476Y03451*
X0477*
X04775Y03453*
X04762Y03484*
G37*
G36*
X04917Y03488D02*
X04885Y03475D01*
X04898Y03443*
X0493Y03456*
X04917Y03488*
G37*
G36*
X04689Y03449D02*
X04659Y03437D01*
X04668Y03415*
X04698Y03427*
X04689Y03449*
G37*
G36*
X04934Y03447D02*
X04902Y03434D01*
X04915Y03402*
X04947Y03415*
X04934Y03447*
G37*
G36*
X04649Y03433D02*
X04619Y03421D01*
X04628Y03399*
X04659Y03411*
X04649Y03433*
G37*
G36*
X04549Y03427D02*
X04519Y03415D01*
X04528Y03393*
X04558Y03406*
X04549Y03427*
G37*
G36*
X04601Y03413D02*
X04571Y034D01*
X0458Y03378*
X0461Y03391*
X04601Y03413*
G37*
G36*
X04562Y03396D02*
X04532Y03384D01*
X04541Y03362*
X04571Y03374*
X04562Y03396*
G37*
G36*
X05027Y03306D02*
X04995D01*
Y03282*
X05027*
Y03306*
G37*
G36*
X05117D02*
X05085D01*
Y03282*
X05117*
Y03306*
G37*
G36*
X05075D02*
X05042D01*
Y03282*
X05075*
Y03306*
G37*
G36*
X04985D02*
X04952D01*
Y03282*
X04985*
Y03306*
G37*
G36*
X05117Y03272D02*
X05085D01*
Y03249*
X05117*
Y03272*
G37*
G36*
X05075D02*
X05042D01*
Y03249*
X05075*
Y03272*
G37*
G36*
X05027D02*
X04995D01*
Y03249*
X05027*
Y03272*
G37*
G36*
X04985D02*
X04952D01*
Y03249*
X04985*
Y03272*
G37*
G36*
X04579Y03253D02*
X04546D01*
Y03227*
X04579*
Y03253*
G37*
G36*
X04536D02*
X04502D01*
Y03227*
X04536*
Y03253*
G37*
G36*
X04579Y03217D02*
X04546D01*
Y0319*
X04579*
Y03217*
G37*
G36*
X04536D02*
X04502D01*
Y0319*
X04536*
Y03217*
G37*
G36*
X04672Y03159D02*
X04639D01*
Y03132*
X04672*
Y03159*
G37*
G36*
Y03122D02*
X04639D01*
Y03096*
X04672*
Y03122*
G37*
G36*
X04581Y03161D02*
X045D01*
Y03094*
X0452*
Y03086*
X04501*
Y03025*
X0458*
Y03086*
X04561*
Y03094*
X04581*
Y03161*
G37*
G36*
X03426Y02686D02*
X03424Y02686D01*
X03423Y02686*
X03423Y02686*
X03423Y02686*
X03422Y02686*
X03422Y02686*
X03421Y02685*
X03421Y02685*
X0342Y02685*
X03419Y02684*
X03417Y02683*
X03415Y02682*
X03413Y0268*
X03412Y02679*
X03412Y02678*
X03412Y02678*
X03412Y02678*
X03411Y02678*
X03411Y02678*
X03411Y02677*
X0341Y02676*
X0341Y02674*
X03409Y02673*
X03409Y02671*
X03408Y0267*
X03408Y02669*
X03408Y02669*
X03408Y02668*
X03408Y02667*
X03408Y02666*
X03409Y02664*
X03409Y02662*
X0341Y02661*
X0341Y02661*
X0341Y02661*
X0341Y0266*
X03411Y02659*
X03411Y02658*
X03412Y02657*
X03413Y02656*
X03414Y02655*
X03416Y02654*
X03416Y02653*
X03417Y02653*
X03418Y02653*
X03419Y02652*
X03421Y02652*
X03422Y02651*
X03424Y02651*
X03424Y02651*
X03424Y02651*
X03425Y02651*
X03426Y02651*
X03427Y02651*
X03428Y02651*
X0343Y02651*
X03431Y02652*
X03433Y02653*
X03433Y02653*
X03433Y02653*
X03434Y02653*
X03435Y02654*
X03436Y02654*
X03437Y02655*
X03438Y02656*
X03439Y02657*
X0344Y02658*
X0344Y02659*
X0344Y02659*
X0344Y02659*
X03441Y02659*
X03441Y0266*
X03442Y02661*
X03442Y02662*
X03443Y02664*
X03443Y02665*
X03443Y02667*
X03443Y02667*
X03443Y02667*
X03443Y02668*
X03443Y02669*
Y0267*
X03443Y02671*
X03443Y02673*
X03442Y02674*
X03442Y02676*
X03442Y02676*
X03441Y02677*
X03441Y02678*
X0344Y02678*
X0344Y0268*
X03439Y02681*
X03437Y02682*
X03436Y02683*
X03435Y02683*
X03435Y02684*
X03434Y02684*
X03434Y02684*
X03432Y02685*
X0343Y02685*
X03428Y02686*
X03427Y02686*
X03426Y02686*
G37*
G36*
X03356Y02858D02*
X03269Y02733D01*
X03386Y0265*
X0342Y02699*
X03425Y02696*
X0342Y0269*
X0342Y0269*
X03421Y0269*
X03422Y0269*
X03423Y0269*
X03425Y02691*
X03427Y02691*
X03428Y02691*
X0343Y02691*
X0343Y02691*
X0343Y02691*
X03431Y02691*
X03431*
X03432Y0269*
X03433Y0269*
X03435Y0269*
X03436Y02689*
X03438Y02688*
X0344Y02687*
X0344Y02687*
X03441Y02686*
X03441Y02686*
X03442Y02685*
X03443Y02684*
X03444Y02683*
X03444Y02682*
X03445Y02681*
X03446Y0268*
X03447Y02679*
X03447Y02677*
X03448Y02676*
X03448Y02674*
X03449Y02672*
X03449Y02672*
X03449Y02672*
X03449Y02672*
X03449Y02671*
X03449Y0267*
X03449Y02669*
Y02668*
X03449Y02667*
X03449Y02666*
X03449Y02664*
X03448Y02663*
X03448Y02661*
X03447Y0266*
X03447Y02658*
X03446Y02657*
X03445Y02655*
X03445Y02655*
X03445Y02655*
X03444Y02655*
X03444Y02654*
X03443Y02653*
X03443Y02653*
X03442Y02652*
X03441Y02651*
X0344Y0265*
X03439Y0265*
X03438Y02649*
X03436Y02648*
X03435Y02647*
X03433Y02647*
X03432Y02646*
X0343Y02646*
X0343Y02646*
X0343Y02646*
X03429Y02646*
X03429Y02646*
X03428Y02645*
X03427Y02645*
X03426*
X03425Y02646*
X03423Y02646*
X03422Y02646*
X03421Y02646*
X03419Y02647*
X03418Y02647*
X03416Y02648*
X03415Y02648*
X03413Y02649*
X03413Y0265*
X03412Y02651*
X03411Y02651*
X0341Y02653*
X03409Y02654*
X03408Y02655*
X03407Y02657*
X03406Y02657*
X03406Y02657*
X03406Y02657*
X03406Y02658*
X03405Y0266*
X03405Y02661*
X03404Y02663*
X03404Y02664*
X03404Y02667*
X0339Y02647*
X0371Y02423*
X03798Y02548*
X03356Y02858*
G37*
%LNfront_end-3*%
%LPD*%
G36*
X04283Y03991D02*
X04286Y0399D01*
X04288Y0399*
X04289Y0399*
X04291Y03989*
X04293Y0399*
X04296Y0399*
X04333Y04*
X04334Y04001*
X04335Y04001*
X04337Y04002*
X0434Y04004*
X04341Y04005*
X04342Y04005*
X04343Y04008*
X04345Y0401*
X04345Y04011*
X04346Y04012*
X04357Y04038*
X0436Y0404*
X04361Y04041*
X04365Y04039*
X04365Y04038*
X04366Y04034*
X04334Y03957*
X04325Y03953*
X04151Y04028*
X0415Y04033*
X04154Y04043*
X04283Y03991*
G37*
G36*
X04268Y03934D02*
X04269Y03931D01*
X04269Y03928*
X04268Y03925*
X04265Y03922*
X04236Y03851*
X04233Y03849*
X04232Y03848*
X04227Y0385*
X04228Y03851*
X04227Y03855*
X04242Y03892*
X04243Y03893*
X04243Y03895*
X04243Y03897*
X04244Y039*
X04243Y03901*
X04243Y03903*
X04243Y03905*
X04242Y03907*
X04241Y03908*
X04241Y0391*
X04232Y03925*
X0423Y03927*
X04229Y03929*
X04227Y0393*
X04226Y03931*
X04224Y03932*
X04222Y03933*
X04131Y0397*
X04129Y03975*
X04131Y03981*
X04064Y04009*
X04064Y04014*
X0408*
X04268Y03934*
G37*
G36*
X04452Y04086D02*
X04452Y04086D01*
X04524Y04056*
X04524Y04056*
X04596Y04026*
X04616Y04073*
X04629Y04067*
X0463Y04065*
X04644Y04051*
Y04013*
X04612Y0398*
X04548*
X0454Y03979*
X04533Y03974*
X04499Y0394*
X04494Y03933*
X04493Y03925*
Y03801*
X04475Y03794*
X04469Y03808*
X04467Y0381*
X04466Y03813*
X04465Y03813*
X04464Y03814*
X04462Y03816*
X0446Y03818*
X04442Y03826*
X04441Y03827*
X04441Y03827*
X04323Y03882*
X04322Y03883*
X04321Y03883*
X04318Y03884*
X04316Y03884*
X04315Y03884*
X04314Y03884*
X04311Y03884*
X04308Y03883*
X04307Y03883*
X04306Y03882*
X04295Y03877*
X04292Y03881*
X04299Y03899*
X04332Y03913*
X04357Y03923*
X0436Y03926*
X04364Y03928*
X04364Y03928*
X04364Y03928*
X04366Y03931*
X04368Y03934*
X04403Y04019*
X04406Y04021*
X04412Y04029*
X04427Y04067*
X04429Y04076*
X04429Y0408*
X04434Y04093*
X04452Y04086*
G37*
G36*
X04845Y03377D02*
X04849Y03365D01*
Y03323*
X04841Y03315*
X04796*
X04788Y03313*
X04782Y03309*
X04764Y03291*
X0476Y03293*
Y03326*
X04792Y03359*
X04798Y03357*
X04809*
X04819Y0336*
X04829Y03365*
X04836Y03373*
X04839Y03377*
X04845Y03377*
G37*
G36*
X03479Y02771D02*
X03479Y02771D01*
X0348Y02771*
X0348Y02771*
X03481Y0277*
X03481Y0277*
X03481Y0277*
X03481Y02769*
X03482Y02768*
X03482Y02768*
X03482Y02768*
X03482Y02767*
X03482Y02767*
X03482Y02767*
X03482Y02765*
X03482Y02765*
X03481Y02764*
X03481Y02764*
X03481Y02764*
X03481Y02764*
X0348Y02763*
X0348Y02763*
X0348Y02763*
X03479Y02763*
X03478Y02762*
X03478Y02762*
X03478Y02762*
X03478Y02762*
X03477Y02762*
X03476Y02763*
X03475Y02763*
X03475Y02763*
X03475Y02763*
X03474Y02764*
X03474Y02764*
X03474Y02764*
X03473Y02765*
X03473Y02765*
X03473Y02766*
X03473Y02766*
X03473Y02766*
X03473Y02767*
X03473Y02767*
X03473Y02768*
X03473Y02769*
X03474Y0277*
X03474Y0277*
X03474Y0277*
X03474Y0277*
X03474Y0277*
X03475Y02771*
X03475Y02771*
X03476Y02771*
X03477Y02771*
X03477Y02771*
X03477Y02771*
X03477*
X03478Y02771*
X03479Y02771*
G37*
G36*
X03469Y02775D02*
X03466Y0277D01*
X03447Y02784*
X03436Y02769*
X03455Y02755*
X03452Y0275*
X03433Y02764*
X03416Y0274*
X03411Y02744*
X03445Y02792*
X03469Y02775*
G37*
G36*
X03472Y02754D02*
X03447Y02718D01*
X03442Y02722*
X03467Y02758*
X03472Y02754*
G37*
G36*
X03336Y02777D02*
X03325Y02713D01*
X03319Y02717*
X03323Y02738*
X03302Y02752*
X03283Y02742*
X03278Y02746*
X03335Y02778*
X03336Y02777*
G37*
G36*
X03488Y02741D02*
X03489Y02741D01*
X03491Y0274*
X03492Y0274*
X03494Y02739*
X03496Y02739*
X03497Y02738*
X03499Y02737*
X03499Y02737*
X035Y02736*
X035Y02736*
X03501Y02735*
X03502Y02734*
X03503Y02733*
X03504Y02732*
X03505Y02731*
X03505Y0273*
X03506Y02728*
X03507Y02727*
X03508Y02725*
X03508Y02723*
X03509Y02722*
X03509Y0272*
X03509Y02719*
X03509Y02719*
X03509Y02719*
X03509Y02718*
X03509Y02718*
X03509Y02717*
X03509Y02716*
X03508Y02715*
X03508Y02714*
X03508Y02712*
X03507Y02711*
X03507Y0271*
X03506Y02707*
X03505Y02706*
X03504Y02705*
X03472Y02727*
X03472Y02727*
X03472Y02727*
X03471Y02727*
X03471Y02726*
X03471Y02726*
X03471Y02725*
X0347Y02723*
X03469Y02721*
X03469Y02719*
X03468Y02718*
X03468Y02717*
X03468Y02715*
X03469Y02714*
X03469Y02714*
X03469Y02714*
X03469Y02714*
X03469Y02713*
X03469Y02713*
X03469Y02712*
X0347Y0271*
X03471Y02709*
X03472Y02707*
X03473Y02705*
X03474Y02704*
X03475Y02704*
X03476Y02703*
X03476Y02703*
X03477Y02703*
X03478Y02702*
X03479Y02702*
X0348Y02701*
X03481Y02701*
X03482Y02701*
X03482Y02701*
X03483Y027*
X03483Y027*
X03484Y027*
X03485Y027*
X03487*
X03488Y027*
X03488Y027*
X03488Y027*
X03489Y027*
X0349Y02701*
X03491Y02701*
X03492Y02701*
X03493Y02702*
X03495Y02702*
X03498Y02698*
X03498Y02698*
X03497Y02697*
X03497Y02697*
X03496Y02697*
X03495Y02696*
X03493Y02696*
X03492Y02695*
X0349Y02695*
X03489Y02695*
X03489Y02695*
X03488Y02695*
X03487Y02695*
X03486Y02695*
X03485Y02695*
X03484Y02695*
X03482Y02695*
X03481Y02695*
X03481Y02695*
X0348Y02695*
X03479Y02696*
X03478Y02696*
X03477Y02697*
X03476Y02697*
X03474Y02698*
X03473Y02699*
X03472Y02699*
X03472Y027*
X03471Y027*
X03471Y02701*
X0347Y02701*
X03469Y02702*
X03468Y02703*
X03467Y02704*
X03467Y02705*
X03466Y02707*
X03465Y02708*
X03464Y02709*
X03464Y02711*
X03463Y02713*
X03463Y02714*
X03463Y02714*
X03463Y02715*
X03463Y02715*
X03463Y02716*
X03463Y02717*
X03463Y02718*
X03463Y02719*
X03463Y0272*
X03464Y02721*
X03464Y02722*
X03464Y02725*
X03465Y02727*
X03466Y02728*
X03466Y02729*
X03467Y02731*
X03467Y02731*
X03468Y02731*
X03468Y02731*
X03468Y02732*
X03469Y02732*
X03469Y02733*
X0347Y02734*
X03471Y02735*
X03473Y02736*
X03475Y02738*
X03476Y02738*
X03477Y02739*
X03479Y02739*
X0348Y0274*
X0348Y0274*
X0348Y0274*
X03481Y0274*
X03482Y0274*
X03483Y02741*
X03484Y02741*
X03485Y02741*
X03486Y02741*
X03488Y02741*
G37*
G36*
X03545Y027D02*
X03547Y027D01*
X03548Y027*
X03549Y027*
X03551Y02699*
X03552Y02699*
X03554Y02698*
X03555Y02697*
X03557Y02696*
X03557Y02696*
X03558Y02695*
X03559Y02694*
X0356Y02693*
X03561Y02692*
X03562Y02691*
X03563Y02689*
X03563Y02689*
X03563Y02689*
X03564Y02688*
X03564Y02687*
X03564Y02686*
X03565Y02685*
X03565Y02683*
X03566Y02681*
X03566Y02679*
X0358Y02699*
X03585Y02696*
X0355Y02646*
X03545Y0265*
X03549Y02656*
X03549Y02656*
X03549Y02656*
X03548Y02655*
X03546Y02655*
X03545Y02655*
X03543Y02655*
X03541Y02655*
X03539Y02655*
X03539Y02655*
X03539Y02655*
X03539Y02655*
X03538Y02655*
X03538Y02655*
X03536Y02656*
X03535Y02656*
X03533Y02657*
X03532Y02658*
X0353Y02659*
X0353Y02659*
X03529Y02659*
X03529Y0266*
X03528Y0266*
X03528Y02661*
X03527Y02662*
X03526Y02663*
X03525Y02664*
X03525Y02665*
X03524Y02666*
X03523Y02667*
X03522Y02669*
X03522Y0267*
X03521Y02672*
X03521Y02673*
X03521Y02674*
X03521Y02674*
X03521Y02674*
X03521Y02675*
X03521Y02676*
X03521Y02677*
X03521Y02678*
X03521Y02679*
X03521Y0268*
X03521Y02682*
X03522Y02683*
X03522Y02685*
X03523Y02686*
X03523Y02688*
X03524Y02689*
X03525Y02691*
X03525Y02691*
X03525Y02691*
X03526Y02691*
X03526Y02692*
X03527Y02692*
X03527Y02693*
X03528Y02694*
X03529Y02695*
X0353Y02696*
X03531Y02696*
X03532Y02697*
X03533Y02698*
X03535Y02699*
X03536Y02699*
X03538Y027*
X0354Y027*
X0354Y027*
X0354Y027*
X03541Y027*
X03541Y027*
X03542*
X03543Y027*
X03544Y027*
X03545Y027*
G37*
G36*
X03539Y02728D02*
X03504Y02678D01*
X035Y02681*
X03535Y02731*
X03539Y02728*
G37*
G36*
X0349Y02672D02*
X03491Y02672D01*
X03491Y02671*
X03492Y02671*
X03492Y02671*
X03492Y02671*
X03493Y0267*
X03493Y0267*
X03493Y02669*
X03493Y02668*
X03493Y02668*
X03493Y02668*
Y02668*
X03493Y02667*
X03493Y02666*
X03493Y02666*
X03493Y02665*
X03493Y02665*
X03492Y02665*
X03492Y02664*
X03492Y02664*
X03491Y02664*
X03491Y02664*
X0349Y02663*
X0349Y02663*
X0349Y02663*
X03489Y02663*
X03489Y02663*
X03489Y02663*
X03487Y02663*
X03487Y02664*
X03486Y02664*
X03486Y02664*
X03486Y02664*
X03485Y02665*
X03485Y02665*
X03485Y02665*
X03485Y02666*
X03484Y02667*
X03484Y02667*
X03484Y02667*
X03484Y02668*
X03484Y02668*
X03484Y02669*
X03485Y0267*
X03485Y0267*
X03485Y0267*
X03485Y0267*
X03485Y02671*
X03486Y02671*
X03486Y02671*
X03487Y02672*
X03487Y02672*
X03488Y02672*
X03488Y02672*
X03488Y02672*
X03489*
X03489Y02672*
X0349Y02672*
G37*
G36*
X03361Y02741D02*
X03357Y02735D01*
X03357Y02735*
X03358Y02735*
X03358Y02735*
X0336Y02735*
X03361Y02736*
X03362Y02736*
X03364Y02736*
X03365*
X03365Y02736*
X03365Y02736*
X03366Y02736*
X03367Y02736*
X03368Y02736*
X0337Y02735*
X03371Y02735*
X03373Y02734*
X03374Y02733*
X03375Y02733*
X03375Y02732*
X03376Y02732*
X03376Y02731*
X03377Y0273*
X03378Y02729*
X03378Y02728*
X03378Y02728*
X03378Y02728*
X03379Y02727*
X03379Y02727*
X03379Y02726*
X0338Y02725*
X0338Y02724*
X0338Y02723*
X0338Y02723*
X0338Y02723*
X0338Y02722*
X0338Y02721*
X0338Y0272*
X0338Y02719*
X0338Y02718*
X03379Y02716*
X03379Y02716*
X0338Y02717*
X0338Y02717*
X0338Y02717*
X03381Y02717*
X03383Y02718*
X03384Y02718*
X03386Y02718*
X03388Y02719*
X0339Y02719*
X0339Y02719*
X0339Y02719*
X0339Y02719*
X03391Y02719*
X03393Y02718*
X03394Y02718*
X03395Y02717*
X03397Y02717*
X03399Y02716*
X03399Y02715*
X034Y02715*
X03401Y02714*
X03401Y02713*
X03402Y02712*
X03403Y02711*
X03404Y02709*
X03404Y02709*
X03404Y02709*
X03404Y02708*
X03404Y02707*
X03405Y02706*
X03405Y02704*
X03405Y02703*
X03404Y02701*
X03404Y02701*
X03404Y02701*
X03404Y027*
X03404Y027*
X03404Y02699*
X03404Y02699*
X03403Y02698*
X03403Y02697*
X03402Y02697*
X03402Y02696*
X03402Y02695*
X03401Y02694*
X034Y02693*
X03399Y02691*
X03399Y0269*
X03385Y02671*
X0338Y02674*
X03394Y02693*
X03394Y02693*
X03394Y02694*
X03394Y02694*
X03395Y02694*
X03395Y02695*
X03395Y02695*
X03396Y02697*
X03397Y02698*
X03398Y02699*
X03398Y02701*
X03399Y02701*
X03399Y02702*
X03399Y02702*
X03399Y02702*
X03399Y02703*
X03399Y02704*
X03399Y02704*
X03399Y02705*
X03399Y02706*
X03398Y02707*
X03398Y02707*
X03398Y02708*
X03398Y02708*
X03397Y02709*
X03397Y0271*
X03396Y0271*
X03395Y02711*
X03395Y02712*
X03394Y02712*
X03393Y02713*
X03392Y02713*
X03391Y02714*
X0339Y02714*
X03389Y02714*
X03387Y02714*
X03387Y02714*
X03386Y02714*
X03385Y02714*
X03384Y02714*
X03383Y02714*
X03382Y02713*
X03381Y02713*
X03379Y02712*
X03379Y02712*
X03379Y02712*
X03379Y02711*
X03378Y02711*
X03378Y02711*
X03377Y0271*
X03377Y0271*
X03376Y02709*
X03375Y02708*
X03375Y02707*
X03374Y02706*
X03373Y02705*
X03372Y02704*
X03371Y02703*
X0337Y02702*
X0336Y02688*
X03356Y02691*
X03369Y02709*
X03369Y02709*
X03369Y0271*
X03369Y0271*
X03369Y0271*
X0337Y02711*
X0337Y02711*
X03371Y02713*
X03372Y02714*
X03373Y02716*
X03374Y02717*
X03374Y02718*
X03374Y02719*
X03374Y02719*
X03374Y02719*
X03374Y0272*
X03374Y0272*
X03374Y02721*
X03374Y02722*
X03374Y02723*
X03374Y02724*
X03374Y02724*
X03374Y02725*
X03373Y02725*
X03373Y02726*
X03373Y02727*
X03372Y02728*
X03371Y02728*
X0337Y02729*
X0337Y02729*
X03369Y0273*
X03368Y0273*
X03367Y02731*
X03366Y02731*
X03364Y02731*
X03363Y02731*
X03362Y02731*
X03362Y02731*
X03361Y02731*
X0336Y02731*
X03359Y02731*
X03358Y0273*
X03356Y0273*
X03355Y02729*
X03355Y02729*
X03354Y02729*
X03354Y02729*
X03354Y02728*
X03354Y02728*
X03353Y02728*
X03353Y02727*
X03352Y02726*
X03351Y02726*
X03351Y02725*
X0335Y02724*
X03349Y02723*
X03348Y02722*
X03347Y02721*
X03347Y0272*
X03336Y02705*
X03331Y02708*
X03357Y02744*
X03361Y02741*
G37*
G36*
X03525Y02648D02*
X03526Y02647D01*
X03526Y02647*
X03526Y02647*
X03527Y02647*
X03527Y02646*
X03527Y02646*
X03528Y02645*
X03528Y02645*
X03528Y02644*
X03528Y02644*
X03528Y02644*
Y02643*
X03528Y02643*
X03528Y02642*
X03528Y02641*
X03527Y02641*
X03527Y0264*
X03527Y0264*
X03527Y0264*
X03527Y0264*
X03526Y0264*
X03526Y02639*
X03525Y02639*
X03524Y02639*
X03524Y02639*
X03524Y02639*
X03524Y02639*
X03523Y02639*
X03522Y02639*
X03522Y02639*
X03521Y0264*
X03521Y0264*
X0352Y0264*
X0352Y0264*
X0352Y02641*
X03519Y02641*
X03519Y02642*
X03519Y02642*
X03519Y02643*
X03519Y02643*
X03519Y02643*
X03519Y02644*
X03519Y02645*
X03519Y02645*
X0352Y02646*
X0352Y02646*
X0352Y02646*
X0352Y02646*
X03521Y02647*
X03521Y02647*
X03521Y02647*
X03522Y02648*
X03523Y02648*
X03523Y02648*
X03523Y02648*
X03523Y02648*
X03524Y02648*
X03525Y02648*
G37*
G36*
X03508Y02658D02*
X03508Y02658D01*
X03508Y02658*
X03509Y02658*
X03509Y02658*
X0351Y02658*
X03511Y02658*
X03512Y02657*
X03513Y02657*
X03513Y02656*
X03514Y02656*
X03514Y02655*
X03515Y02655*
X03516Y02654*
X03517Y02653*
X03518Y02652*
X03514Y02647*
X03514Y02648*
X03514Y02648*
X03514Y02648*
X03513Y02649*
X03513Y0265*
X03512Y0265*
X03511Y02651*
X03511Y02652*
X0351Y02652*
X0351Y02652*
X03509Y02652*
X03508Y02653*
X03508Y02653*
X03507Y02652*
X03507Y02652*
X03506Y02652*
X03506Y02652*
X03506Y02652*
X03506Y02651*
X03505Y02651*
X03505Y0265*
X03504Y02649*
X03503Y02648*
X035Y02644*
X03507Y02638*
X03505Y02634*
X03497Y0264*
X03475Y02608*
X0347Y02611*
X03492Y02643*
X03488Y02646*
X03491Y0265*
X03495Y02647*
X03499Y02652*
X03499Y02652*
X03499Y02653*
X035Y02653*
X035Y02654*
X03501Y02654*
X03501Y02655*
X03502Y02656*
X03503Y02657*
X03504Y02657*
X03504Y02657*
X03504Y02658*
X03504Y02658*
X03505Y02658*
X03506Y02658*
X03506Y02658*
X03507Y02658*
X03508Y02658*
G37*
G36*
X03677Y02633D02*
X03678Y02632D01*
X03678Y02632*
X03679Y02632*
X03679Y02632*
X03679Y02631*
X03679Y02631*
X0368Y0263*
X0368Y0263*
X0368Y02629*
X0368Y02629*
X0368Y02629*
X0368Y02628*
X0368Y02628*
X0368Y02627*
X0368Y02626*
X03679Y02625*
X03679Y02625*
X03679Y02625*
X03679Y02625*
X03679Y02625*
X03678Y02624*
X03678Y02624*
X03677Y02624*
X03676Y02624*
X03676Y02624*
X03676Y02624*
X03676Y02624*
X03675Y02624*
X03674Y02624*
X03674Y02624*
X03673Y02624*
X03673Y02625*
X03672Y02625*
X03672Y02625*
X03672Y02626*
X03672Y02626*
X03671Y02627*
X03671Y02627*
X03671Y02627*
X03671Y02628*
X03671Y02628*
X03671Y02628*
X03671Y0263*
X03672Y0263*
X03672Y02631*
X03672Y02631*
X03672Y02631*
X03672Y02631*
X03673Y02632*
X03673Y02632*
X03674Y02632*
X03674Y02632*
X03675Y02633*
X03675Y02633*
X03675Y02633*
X03676Y02633*
X03676Y02633*
X03677Y02633*
G37*
G36*
X0348Y02678D02*
X03445Y02629D01*
X0344Y02632*
X03475Y02682*
X0348Y02678*
G37*
G36*
X03484Y02655D02*
X03458Y02619D01*
X03454Y02622*
X03479Y02658*
X03484Y02655*
G37*
G36*
X03518Y02631D02*
X03493Y02595D01*
X03488Y02598*
X03514Y02634*
X03518Y02631*
G37*
G36*
X03619Y0267D02*
X03611Y02616D01*
X03659Y02643*
X03659Y02642*
X03632Y02589*
X03628Y02592*
X03647Y0263*
X03606Y02607*
X03604Y02608*
X03612Y02655*
X03582Y02624*
X03578Y02627*
X03619Y02671*
X03619Y0267*
G37*
G36*
X03534Y02617D02*
X03535Y02617D01*
X03537Y02617*
X03538Y02616*
X0354Y02616*
X03542Y02615*
X03543Y02614*
X03545Y02613*
X03546Y02613*
X03546Y02613*
X03547Y02612*
X03547Y02611*
X03548Y02611*
X03549Y0261*
X0355Y02609*
X03551Y02607*
X03552Y02606*
X03552Y02605*
X03553Y02603*
X03554Y02602*
X03554Y026*
X03555Y02598*
X03555Y02596*
X03555Y02596*
X03555Y02596*
X03555Y02595*
X03555Y02595*
X03555Y02594*
X03555Y02593*
X03555Y02592*
X03555Y02591*
X03554Y0259*
X03554Y02589*
X03554Y02588*
X03553Y02586*
X03552Y02584*
X03551Y02582*
X0355Y02581*
X03518Y02604*
X03518Y02603*
X03518Y02603*
X03517Y02603*
X03517Y02602*
X03517Y02602*
X03517Y02601*
X03516Y026*
X03515Y02598*
X03515Y02595*
X03515Y02594*
X03515Y02593*
X03515Y02592*
X03515Y02591*
X03515Y0259*
X03515Y0259*
X03515Y0259*
X03515Y0259*
X03515Y02589*
X03515Y02588*
X03516Y02587*
X03517Y02585*
X03518Y02583*
X0352Y02581*
X03521Y02581*
X03522Y0258*
X03522Y0258*
X03523Y02579*
X03523Y02579*
X03524Y02578*
X03525Y02578*
X03526Y02577*
X03527Y02577*
X03528Y02577*
X03528Y02577*
X03529Y02577*
X0353Y02577*
X0353Y02577*
X03532Y02576*
X03533*
X03534Y02577*
X03534Y02577*
X03534Y02577*
X03535Y02577*
X03536Y02577*
X03537Y02577*
X03538Y02578*
X0354Y02578*
X03541Y02579*
X03544Y02574*
X03544Y02574*
X03543Y02574*
X03543Y02574*
X03542Y02573*
X03541Y02573*
X0354Y02572*
X03538Y02572*
X03536Y02571*
X03535Y02571*
X03535Y02571*
X03534Y02571*
X03533Y02571*
X03532Y02571*
X03531Y02571*
X0353Y02571*
X03528Y02571*
X03527Y02572*
X03527Y02572*
X03526Y02572*
X03525Y02572*
X03524Y02572*
X03523Y02573*
X03522Y02574*
X0352Y02574*
X03519Y02575*
X03519Y02576*
X03518Y02576*
X03518Y02576*
X03517Y02577*
X03516Y02578*
X03515Y02579*
X03514Y0258*
X03514Y02581*
X03513Y02582*
X03512Y02583*
X03511Y02584*
X03511Y02586*
X0351Y02587*
X03509Y02589*
X03509Y02591*
X03509Y02591*
X03509Y02591*
X03509Y02592*
X03509Y02592*
X03509Y02593*
X03509Y02594*
X03509Y02595*
X03509Y02596*
X0351Y02597*
X0351Y02599*
X03511Y02602*
X03511Y02603*
X03512Y02604*
X03513Y02606*
X03513Y02607*
X03513Y02607*
X03514Y02607*
X03514Y02608*
X03514Y02608*
X03515Y02609*
X03515Y02609*
X03516Y0261*
X03517Y02611*
X03519Y02612*
X03521Y02614*
X03522Y02615*
X03523Y02615*
X03525Y02616*
X03526Y02616*
X03526Y02616*
X03527Y02617*
X03527Y02617*
X03528Y02617*
X03529Y02617*
X0353Y02617*
X03531Y02617*
X03532Y02617*
X03534Y02617*
G37*
G36*
X0367Y02616D02*
X03645Y0258D01*
X03641Y02583*
X03666Y02619*
X0367Y02616*
G37*
G36*
X03575Y02591D02*
X03571Y02586D01*
X03571Y02586*
X03572Y02586*
X03572Y02586*
X03574Y02587*
X03575Y02587*
X03576Y02587*
X03577Y02587*
X03579Y02587*
X03579Y02587*
X03579Y02587*
X0358Y02587*
X03581Y02587*
X03582Y02587*
X03583Y02587*
X03584Y02586*
X03585Y02586*
X03585Y02585*
X03585Y02585*
X03586Y02585*
X03586Y02584*
X03587Y02583*
X03587Y02582*
X03588Y02581*
X03583Y02579*
X03583Y02579*
X03583Y02579*
X03582Y0258*
X03582Y0258*
X03581Y02581*
X03581Y02582*
X0358Y02582*
X0358Y02582*
X03579Y02582*
X03578Y02583*
X03577Y02583*
X03576Y02583*
X03575Y02583*
X03575Y02583*
X03574Y02583*
X03574Y02583*
X03573Y02582*
X03572Y02582*
X0357Y02581*
X03569Y0258*
X03567Y02579*
X03567Y02579*
X03567Y02579*
X03567Y02579*
X03567Y02578*
X03566Y02578*
X03566Y02577*
X03565Y02577*
X03565Y02576*
X03564Y02575*
X03563Y02574*
X03562Y02573*
X03561Y02572*
X0356Y02571*
X03559Y02569*
X03558Y02567*
X0355Y02555*
X03545Y02559*
X0357Y02594*
X03575Y02591*
G37*
G36*
X03694Y0262D02*
X03659Y0257D01*
X03654Y02573*
X03689Y02623*
X03694Y0262*
G37*
G36*
X03707Y02611D02*
X03672Y02561D01*
X03668Y02564*
X03702Y02614*
X03707Y02611*
G37*
G36*
X03622Y02577D02*
X03612Y02528D01*
X03655Y02554*
X0366Y0255*
X03605Y02517*
X03604Y02517*
X03617Y02581*
X03622Y02577*
G37*
G36*
X03728Y02501D02*
X03728Y02501D01*
X03729Y02501*
X03731Y02501*
X03732Y025*
X03734Y025*
X03736Y02499*
X03737Y02498*
X03738Y02498*
X03738Y02497*
X03739Y02497*
X03739Y02497*
X0374Y02496*
X03741Y02494*
X03742Y02493*
X03743Y02491*
X03744Y02489*
X03744Y02489*
X03744Y02489*
X03744Y02489*
X03744Y02488*
X03745Y02487*
X03745Y02486*
X03745Y02484*
X03745Y02482*
X03745Y02479*
X03744Y02477*
X03744Y02477*
X03744Y02476*
X03744Y02476*
X03744Y02475*
X03744Y02475*
X03744Y02474*
X03743Y02473*
X03743Y02472*
X03742Y02471*
X03742Y0247*
X03741Y02468*
X0374Y02467*
X0374Y02465*
X03739Y02464*
X03738Y02462*
X03736Y02461*
X03736Y0246*
X03736Y0246*
X03736Y0246*
X03735Y02459*
X03735Y02458*
X03734Y02457*
X03733Y02456*
X03732Y02455*
X03731Y02453*
X03728Y02451*
X03726Y02449*
X03725Y02448*
X03724Y02447*
X03724Y02447*
X03724Y02447*
X03723Y02447*
X03723Y02447*
X03722Y02447*
X03722Y02446*
X0372Y02446*
X03719Y02445*
X03717Y02444*
X03714Y02444*
X03712Y02444*
X03712Y02444*
X03712Y02444*
X03712Y02444*
X03711Y02444*
X0371Y02444*
X03709Y02444*
X03707Y02444*
X03705Y02445*
X03704Y02446*
X03702Y02447*
X03701Y02447*
X03701Y02447*
X03701Y02448*
X037Y02448*
X03699Y02449*
X03698Y0245*
X03697Y02452*
X03696Y02453*
X03695Y02455*
X03695Y02455*
X03695Y02456*
X03695Y02456*
X03695Y02457*
X03695Y02459*
X03694Y02461*
X03694Y02463*
X03695Y02465*
X03695Y02467*
X03695Y02467*
X03695Y02468*
X03695Y02468*
X03695Y02469*
X03696Y02469*
X03696Y0247*
X03696Y02471*
X03697Y02472*
X03697Y02473*
X03698Y02474*
X03699Y02476*
X03699Y02477*
X037Y02479*
X03701Y0248*
X03702Y02482*
X03703Y02484*
X03703Y02484*
X03704Y02484*
X03704Y02485*
X03704Y02485*
X03705Y02486*
X03706Y02487*
X03707Y02488*
X03707Y02489*
X03709Y02491*
X03711Y02493*
X03714Y02495*
X03715Y02496*
X03716Y02497*
X03716Y02497*
X03716Y02497*
X03716Y02497*
X03717Y02498*
X03717Y02498*
X03718Y02498*
X03719Y02499*
X03721Y025*
X03723Y025*
X03725Y02501*
X03727Y02501*
X03727Y02501*
X03727Y02501*
X03728Y02501*
G37*
G36*
X03684Y02534D02*
X0365Y02485D01*
X03645Y02488*
X03676Y02532*
X03668Y02537*
X03674Y0254*
X03684Y02534*
G37*
G36*
X03678Y02475D02*
X03678Y02475D01*
X03679Y02475*
X0368Y02475*
X0368Y02475*
X03681Y02474*
X03681Y02474*
X03681Y02474*
X03682Y02473*
X03682Y02473*
X03682Y02472*
X03683Y02472*
X03683Y02471*
X03683Y02471*
X03683Y02471*
Y0247*
X03683Y0247*
X03683Y02469*
X03683Y02469*
X03682Y02468*
X03682Y02467*
X03682Y02467*
X03682Y02467*
X03682Y02467*
X03681Y02466*
X03681Y02466*
X0368Y02466*
X0368Y02465*
X03679Y02465*
X03679Y02465*
X03678Y02465*
X03678Y02465*
X03678Y02465*
X03677Y02465*
X03676Y02465*
X03676Y02466*
X03675Y02466*
X03675Y02466*
X03675Y02467*
X03674Y02467*
X03674Y02467*
X03674Y02468*
X03673Y02469*
X03673Y02469*
X03673Y02469*
X03673Y0247*
X03673Y0247*
X03673Y0247*
X03673Y02471*
X03673Y02472*
X03674Y02472*
X03674Y02473*
X03674Y02473*
X03674Y02473*
X03674Y02474*
X03675Y02474*
X03675Y02474*
X03676Y02475*
X03676Y02475*
X03677Y02475*
X03677Y02475*
X03677Y02475*
X03678*
G37*
%LNfront_end-4*%
%LPC*%
G36*
X03328Y02767D02*
X03308Y02756D01*
X03324Y02744*
X03328Y02767*
G37*
G36*
X03486Y02735D02*
X03484Y02735D01*
X03484Y02735*
X03484Y02735*
X03483Y02735*
X03482Y02735*
X0348Y02734*
X03479Y02733*
X03477Y02732*
X03475Y02731*
X03502Y02712*
X03502Y02712*
X03502Y02712*
X03502Y02713*
X03502Y02714*
X03503Y02715*
X03503Y02716*
X03503Y02717*
X03503Y02718*
X03503Y0272*
X03503Y0272*
X03503Y0272*
X03503Y02721*
X03503Y02722*
X03503Y02723*
X03502Y02724*
X03502Y02725*
X03501Y02727*
X03501Y02727*
X03501Y02727*
X035Y02728*
X035Y02729*
X03499Y0273*
X03498Y02731*
X03497Y02732*
X03496Y02732*
X03495Y02733*
X03495Y02733*
X03495Y02733*
X03494Y02734*
X03492Y02734*
X03491Y02735*
X03489Y02735*
X03487Y02735*
X03486*
G37*
G36*
X03544Y02695D02*
X03543Y02695D01*
X03541Y02695*
X0354Y02694*
X03538Y02694*
X03537Y02693*
X03536Y02693*
X03536Y02693*
X03535Y02692*
X03534Y02692*
X03533Y02691*
X03532Y0269*
X03531Y02689*
X0353Y02687*
X0353Y02687*
X0353Y02687*
X03529Y02687*
X03529Y02686*
X03529Y02686*
X03528Y02685*
X03528Y02683*
X03527Y02682*
X03527Y0268*
X03526Y02679*
X03526Y02678*
X03526Y02678*
X03526Y02677*
X03526Y02676*
X03527Y02674*
X03527Y02673*
X03527Y02671*
X03528Y0267*
X03528Y0267*
X03528Y02669*
X03528Y02669*
X03529Y02668*
X03529Y02667*
X0353Y02666*
X03531Y02665*
X03532Y02664*
X03534Y02663*
X03534Y02662*
X03535Y02662*
X03536Y02661*
X03537Y02661*
X03539Y0266*
X0354Y0266*
X03542Y0266*
X03542Y0266*
X03542Y0266*
X03543Y0266*
X03544Y0266*
X03545*
X03546Y0266*
X03548Y0266*
X03549Y02661*
X03551Y02661*
X03551Y02661*
X03551Y02661*
X03552Y02662*
X03552Y02662*
X03553Y02663*
X03554Y02663*
X03556Y02665*
X03557Y02666*
X03558Y02667*
X03558Y02667*
X03558Y02667*
X03558Y02668*
X03559Y02668*
X03559Y02669*
X03559Y0267*
X0356Y02671*
X03561Y02673*
X03561Y02675*
X03561Y02677*
X03561Y02678*
X03561Y02679*
X03561Y0268*
X03561Y02681*
X03561Y02681*
X03561Y02681*
X03561Y02682*
X03561Y02682*
X0356Y02683*
X0356Y02684*
X0356Y02684*
X03559Y02686*
X03558Y02688*
X03556Y0269*
X03555Y02691*
X03554Y02692*
X03553Y02692*
X03552Y02693*
X03551Y02693*
X0355Y02694*
X03549Y02694*
X03547Y02695*
X03545Y02695*
X03545Y02695*
X03545Y02695*
X03544Y02695*
G37*
G36*
X03532Y02612D02*
X03531Y02612D01*
X0353Y02612*
X0353Y02612*
X03529Y02611*
X03528Y02611*
X03526Y0261*
X03525Y0261*
X03523Y02609*
X03521Y02607*
X03548Y02588*
X03548Y02589*
X03548Y02589*
X03548Y02589*
X03549Y0259*
X03549Y02591*
X03549Y02592*
X03549Y02594*
X03549Y02595*
X03549Y02596*
X03549Y02596*
X03549Y02597*
X03549Y02597*
X03549Y02598*
X03549Y02599*
X03548Y02601*
X03548Y02602*
X03547Y02603*
X03547Y02603*
X03547Y02604*
X03546Y02604*
X03546Y02605*
X03545Y02606*
X03544Y02607*
X03543Y02608*
X03542Y02609*
X03542Y02609*
X03541Y02609*
X03541Y0261*
X0354Y0261*
X03539Y02611*
X03537Y02611*
X03535Y02612*
X03533Y02612*
X03532*
G37*
G36*
X03727Y02495D02*
X03726Y02495D01*
X03725Y02495*
X03724Y02495*
X03723Y02494*
X03721Y02494*
X0372Y02493*
X03718Y02492*
X03718Y02492*
X03718Y02492*
X03718Y02492*
X03717Y02491*
X03717Y02491*
X03716Y0249*
X03716Y0249*
X03715Y02489*
X03714Y02489*
X03714Y02488*
X03713Y02487*
X03712Y02486*
X03711Y02485*
X0371Y02483*
X03709Y02482*
X03708Y0248*
X03708Y0248*
X03708Y0248*
X03707Y0248*
X03707Y02479*
X03707Y02478*
X03706Y02478*
X03706Y02477*
X03705Y02476*
X03704Y02474*
X03702Y02471*
X03701Y02469*
X03701Y02468*
X03701Y02467*
X03701Y02467*
X03701Y02467*
X03701Y02466*
X037Y02466*
X037Y02465*
X037Y02464*
X037Y02462*
X037Y02461*
X037Y02459*
X03701Y02458*
X03701Y02457*
X03701Y02457*
X03701Y02456*
X03702Y02455*
X03702Y02454*
X03703Y02453*
X03704Y02452*
X03705Y02451*
X03706Y02451*
X03706Y02451*
X03707Y0245*
X03708Y0245*
X0371Y02449*
X03711Y02449*
X03713Y02449*
X03713Y02449*
X03713Y02449*
X03714Y02449*
X03715Y0245*
X03717Y0245*
X03718Y02451*
X0372Y02451*
X03721Y02452*
X03721Y02453*
X03722Y02453*
X03722Y02453*
X03722Y02453*
X03723Y02454*
X03723Y02454*
X03724Y02455*
X03725Y02455*
X03725Y02456*
X03726Y02457*
X03727Y02458*
X03728Y02459*
X0373Y02461*
X03732Y02464*
X03732Y02464*
X03732Y02464*
X03732Y02464*
X03733Y02465*
X03733Y02466*
X03734Y02466*
X03734Y02467*
X03735Y02468*
X03736Y0247*
X03737Y02472*
X03738Y02475*
X03739Y02477*
X03739Y02477*
X03739Y02477*
X03739Y02477*
X03739Y02478*
X03739Y02479*
X03739Y0248*
X03739Y02482*
X03739Y02483*
X03739Y02485*
X03739Y02487*
X03739Y02487*
X03739Y02488*
X03738Y02488*
X03738Y02489*
X03737Y0249*
X03737Y02491*
X03736Y02492*
X03734Y02493*
X03734Y02494*
X03733Y02494*
X03732Y02494*
X03731Y02495*
X0373Y02495*
X03728Y02495*
X03727Y02495*
X03727Y02495*
G37*
%LNfront_end-5*%
%LPD*%
G54D12*
X04248Y03763D02*
X04285Y0385D01*
G54D14*
X04415Y04175D02*
X04645Y0408D01*
X0439Y04185D02*
X04415Y04175D01*
G54D15*
X04541Y02983D03*
Y03056D03*
X04677Y03054D03*
Y02981D03*
X0508Y0335D03*
Y03277D03*
X0499Y0335D03*
Y03277D03*
G54D16*
X04291Y04186D03*
X04318Y04253D03*
X04572Y04069D03*
X04599Y04136D03*
X04527Y04166D03*
X045Y04099D03*
X04428Y04129D03*
X04455Y04196D03*
X04153Y04143D03*
X04126Y04076D03*
X04056Y03901D03*
X04083Y03968D03*
G54D17*
X04624Y03507D03*
X04652Y0344D03*
X04537Y0347D03*
X04564Y03403D03*
X04513Y03776D03*
X04541Y03709D03*
X04389Y03723D03*
X04417Y03656D03*
G54D18*
X04541Y03222D03*
Y03127D03*
X04677Y03222D03*
Y03127D03*
G54D19*
X04968Y03683D03*
X04901Y03656D03*
G54D20*
X04397Y04057D03*
X04351Y04076D03*
X04305Y04095D03*
X04259Y04115D03*
X04288Y03794D03*
X04242Y03813D03*
X04196Y03832D03*
X04149Y03851D03*
G54D32*
X05107Y03378D02*
D01*
D01*
G75*
G03X05008Y037I-01226J-00203D01*
G74*G01*
D01*
D01*
G75*
G03X0452Y04241I-01127J-00525D01*
G74*G01*
X045Y04099D02*
X045Y04099D01*
X04428Y04129D02*
X045Y04099D01*
X04865Y02978D02*
Y03175D01*
X04484Y02597D02*
X04865Y02978D01*
X04484Y02348D02*
Y02597D01*
X0277Y037D02*
X0294Y0387D01*
X0277Y02627D02*
Y037D01*
Y02627D02*
X03366Y02031D01*
X04335D02*
X04576Y02272D01*
X03366Y02031D02*
X04335D01*
X04Y04035D02*
X04085D01*
X03753Y03788D02*
X04Y04035D01*
X03044Y03788D02*
X03753D01*
X03968Y04085D02*
X04117D01*
X03754Y0387D02*
X03968Y04085D01*
X03185Y0387D02*
X03754D01*
X02896Y0364D02*
X03044Y03788D01*
X0377Y03721D02*
X04023Y03974D01*
X03189Y03721D02*
X0377D01*
X0309Y03622D02*
X03189Y03721D01*
X04023Y03974D02*
X04078D01*
X0309Y02574D02*
Y03622D01*
X02896Y03175D02*
Y0364D01*
Y02649D02*
X03355Y0219D01*
X02896Y02649D02*
Y03175D01*
X03355Y0219D02*
X0388D01*
X04326D02*
X04484Y02348D01*
X0388Y0219D02*
X04326D01*
X04576Y02272D02*
Y02479D01*
X04665Y04004D02*
Y0406D01*
X0462Y0396D02*
X04665Y04004D01*
X04548Y0396D02*
X0462D01*
X04513Y03925D02*
X04548Y0396D01*
X04513Y03776D02*
Y03925D01*
X04541Y02983D02*
X04738D01*
X0487Y03315D02*
Y0337D01*
X0483Y03465D02*
X0487Y0337D01*
X0483Y03465D02*
Y03501D01*
X04462Y03644D02*
X04537Y0347D01*
X04417Y03656D02*
X04462Y03644D01*
X04537Y0347D02*
X04547Y0346D01*
X04382Y03717D02*
X04389Y03723D01*
X04186Y03717D02*
X04382D01*
X04126Y03777D02*
X04186Y03717D01*
X04126Y03777D02*
Y038D01*
X04181Y03794D02*
X04189Y0377D01*
X04181Y03794D02*
X04196Y03832D01*
X04189Y0377D02*
X04226Y03753D01*
X04285Y0385D02*
X04315Y03864D01*
X04433Y03809*
X04451Y038D02*
X0448Y03735D01*
X04433Y03809D02*
X04451Y038D01*
X04226Y03753D02*
X04248Y03763D01*
X045Y04099D02*
X04572Y04069D01*
X04968Y03683D02*
X05008Y037D01*
X05107Y03378D02*
Y03378D01*
X0452Y04241D02*
X0452D01*
X0447Y04228D02*
X0452Y04241D01*
X0508Y0335D02*
X05107Y03378D01*
X0499Y0335D02*
X0508D01*
X0499D02*
X0499Y03351D01*
X04527Y04166D02*
X04599Y04136D01*
X04455Y04196D02*
X0447Y04228D01*
X04407Y04216D02*
X04455Y04196D01*
X04291Y04186D02*
X04407Y04216D01*
X04645Y0408D02*
X04665Y0406D01*
X04305Y04095D02*
X04335Y0417D01*
X0439Y04185*
X04259Y04115D02*
X04291Y04186D01*
X04541Y03709D02*
X04574Y0363D01*
X04624Y03507*
X04574Y0363D02*
X04689Y03676D01*
X04494Y0373D02*
X04555Y03755D01*
X0448Y03735D02*
X04494Y0373D01*
X04555Y03755D02*
X04564Y0376D01*
X04576Y03772*
Y0387*
X04126Y038D02*
X04149Y03851D01*
X04325Y03931D02*
X0435Y03942D01*
X04325Y03931D02*
D01*
X04284Y03915D02*
X04325Y03931D01*
X04085Y04035D02*
X04325Y03931D01*
X04078Y03974D02*
X04083Y03968D01*
X04215Y03915*
X04117Y04085D02*
X04126Y04076D01*
X04275Y0405D02*
X04288Y04055D01*
X04305Y04095*
X04397Y04057D02*
X04428Y04129D01*
X04255Y04057D02*
X04275Y0405D01*
X042Y0408D02*
X04255Y04057D01*
X0418Y04129D02*
X042Y0408D01*
X04153Y04143D02*
X0418Y04129D01*
X04327Y0402D02*
X04351Y04076D01*
X04291Y0401D02*
X04327Y0402D01*
X04126Y04076D02*
X04291Y0401D01*
X04196Y03832D02*
X04224Y039D01*
X04215Y03915D02*
X04224Y039D01*
X04085Y0388D02*
X04149Y03851D01*
X04056Y03901D02*
X04085Y0388D01*
X04284Y03915D02*
D01*
X0435Y03942D02*
X04397Y04057D01*
X04242Y03813D02*
X04284Y03915D01*
X0309Y02574D02*
X03185Y02479D01*
X0294Y0387D02*
X03185D01*
X0485Y03295D02*
X0487Y03315D01*
X04796Y03295D02*
X0485D01*
X04738Y02983D02*
X04765Y0301D01*
Y03263*
X04796Y03295*
X0483Y03501D02*
X04857Y03529D01*
X04541Y03056D02*
Y03127D01*
X0474Y0322D02*
Y03335D01*
Y03085D02*
Y0322D01*
X04737Y03222D02*
X0474Y0322D01*
X04677Y03222D02*
X04737D01*
X0474Y03335D02*
X04803Y03398D01*
X04709Y03054D02*
X0474Y03085D01*
X04677Y03054D02*
X04709D01*
X04819Y03621D02*
X04901Y03656D01*
X04689Y03667D02*
Y03676D01*
X04727Y03539D02*
Y03583D01*
G54D33*
X04547Y0346D02*
X04605D01*
X04677Y0349D02*
X04727Y03539D01*
X04605Y0346D02*
X04677Y0349D01*
G54D34*
X03185Y0387D03*
X04576Y02479D03*
X03185D03*
X04576Y0387D03*
G54D35*
X04896Y03437D03*
G54D36*
X04803Y03398D03*
X04857Y03529D03*
X04765Y03491D03*
X04819Y03621D03*
X04727Y03583D03*
X04781Y03714D03*
X04689Y03676D03*
G54D37*
X02896Y03175D03*
X0388Y04159D03*
X04865Y03175D03*
X0388Y0219D03*
G54D38*
X0388Y03175D03*
M02*