%FSTAX23Y23*%
%MOIN*%
%SFA1B1*%

%IPPOS*%
%ADD10C,0.009840*%
%ADD11C,0.023620*%
%ADD12C,0.007870*%
%ADD13C,0.011810*%
%ADD14C,0.010000*%
%ADD15C,0.008000*%
%LNesp_board-1*%
%LPD*%
G54D10*
X04586Y0218D02*
D01*
D01*
G75*
G03X04576I-00004J0D01*
G74*G01*
D01*
G75*
G03X04586I00004J0D01*
G74*G01*
X03309Y02635D02*
D01*
D01*
G75*
G03X03299I-00004J0D01*
G74*G01*
D01*
G75*
G03X03309I00004J0D01*
G74*G01*
X0388Y02079D02*
D01*
D01*
G75*
G03X03871I-00004J0D01*
G74*G01*
D01*
G75*
G03X0388I00004J0D01*
G74*G01*
X0486Y03613D02*
D01*
D01*
G75*
G03X0485I-00004J0D01*
G74*G01*
D01*
G75*
G03X0486I00004J0D01*
G74*G01*
X04578Y03897D02*
D01*
D01*
G75*
G03X04568I-00004J0D01*
G74*G01*
D01*
G75*
G03X04578I00004J0D01*
G74*G01*
X03457Y03668D02*
D01*
D01*
G75*
G03X03448I-00004J0D01*
G74*G01*
D01*
G75*
G03X03457I00004J0D01*
G74*G01*
X03602Y03847D02*
D01*
D01*
G75*
G03X03593I-00004J0D01*
G74*G01*
D01*
G75*
G03X03602I00004J0D01*
G74*G01*
G54D11*
X04772Y03588D02*
D01*
D01*
G75*
G03X04748I-00011J0D01*
G74*G01*
D01*
G75*
G03X04772I00011J0D01*
G74*G01*
X0449Y03872D02*
D01*
D01*
G75*
G03X04466I-00011J0D01*
G74*G01*
D01*
G75*
G03X0449I00011J0D01*
G74*G01*
X03559Y03692D02*
D01*
D01*
G75*
G03X03535I-00011J0D01*
G74*G01*
D01*
G75*
G03X03559I00011J0D01*
G74*G01*
G54D12*
X04508Y02229D02*
X04529Y02208D01*
X04521Y02137D02*
X04549Y02165D01*
X04499Y0216D02*
X04521Y02137D01*
X04437Y02221D02*
X04465Y02249D01*
X04437Y02221D02*
X0446Y02199D01*
X04195Y03394D02*
X04198Y03397D01*
X04161Y03428D02*
X04164Y03431D01*
X03937Y02637D02*
X0394Y0264D01*
X03971Y02603D02*
X03974Y02606D01*
X04166Y02976D02*
X04169Y02978D01*
X04133Y03009D02*
X04136Y03012D01*
X04108Y03034D02*
X04111Y03037D01*
X04074Y03068D02*
X04077Y03071D01*
X04016Y03126D02*
X04018Y03129D01*
X04049Y03093D02*
X04052Y03096D01*
X03947Y02991D02*
X0395Y02994D01*
X03914Y03025D02*
X03917Y03027D01*
X04065Y02874D02*
X04067Y02877D01*
X04031Y02907D02*
X04034Y0291D01*
X04006Y02932D02*
X04009Y02935D01*
X03973Y02966D02*
X03975Y02969D01*
X03157Y02478D02*
X03291Y02612D01*
X03074Y02561D02*
X03208Y02695D01*
X03282Y02621D02*
X03291Y02612D01*
X03148Y02487D02*
X03157Y02478D01*
X03208Y02695D02*
X03217Y02686D01*
X03074Y02561D02*
X03083Y02552D01*
X03719Y02226D02*
X03853Y02092D01*
X03802Y02309D02*
X03936Y02175D01*
X03853Y02092D02*
X03862Y02101D01*
X03719Y02226D02*
X03728Y02235D01*
X03927Y02166D02*
X03936Y02175D01*
X03793Y023D02*
X03802Y02309D01*
X04304Y02094D02*
X04307D01*
X04304Y02141D02*
X04307D01*
X04764Y0283D02*
X04767Y02833D01*
X04731Y02864D02*
X04733Y02867D01*
X04802Y03543D02*
X04987Y03619D01*
X04955Y03173D02*
X0514Y0325D01*
X04802Y03543D02*
X04955Y03173D01*
X04987Y03619D02*
X0514Y0325D01*
X05217Y03399D02*
X05218Y03396D01*
X05173Y03381D02*
X05174Y03378D01*
X05133Y03597D02*
X05134Y03594D01*
X05089Y03579D02*
X0509Y03576D01*
X04534Y0345D02*
X04537Y03453D01*
X045Y03484D02*
X04503Y03487D01*
X04816Y03772D02*
X04819Y03769D01*
X0485Y03806D02*
X04853Y03803D01*
X04587Y03639D02*
X04676Y03728D01*
X04727Y03499D02*
X04816Y03588D01*
X04587Y03639D02*
X04727Y03499D01*
X04676Y03728D02*
X04816Y03588D01*
X04551Y03748D02*
X04554Y03745D01*
X04517Y03714D02*
X0452Y03711D01*
X04269Y04024D02*
X04272Y04021D01*
X04235Y0399D02*
X04238Y03987D01*
X04324Y0408D02*
X04327Y04077D01*
X0429Y04046D02*
X04293Y04043D01*
X04305Y03923D02*
X04394Y04012D01*
X04445Y03783D02*
X04534Y03872D01*
X04305Y03923D02*
X04445Y03783D01*
X04394Y04012D02*
X04534Y03872D01*
X04255Y0368D02*
X04258Y03677D01*
X04289Y03714D02*
X04292Y03711D01*
X03687Y03487D02*
X03689Y0349D01*
X03653Y0352D02*
X03656Y03523D01*
X03751Y03618D02*
X03753Y03621D01*
X03784Y03585D02*
X03787Y03588D01*
X03631Y03553D02*
X0372Y03642D01*
X03492Y03692D02*
X03581Y03782D01*
X0372Y03642*
X03492Y03692D02*
X03631Y03553D01*
X03451Y0369D02*
X03584Y03824D01*
X03367Y03774D02*
X03501Y03907D01*
X03575Y03833D02*
X03584Y03824D01*
X03442Y03699D02*
X03451Y0369D01*
X03501Y03907D02*
X0351Y03898D01*
X03367Y03774D02*
X03376Y03765D01*
X03544Y03309D02*
X03547Y03306D01*
X03578Y03342D02*
X03581Y03339D01*
X03485Y0325D02*
X03488Y03247D01*
X03519Y03283D02*
X03522Y0328D01*
X03426Y03191D02*
X03429Y03188D01*
X0346Y03224D02*
X03463Y03221D01*
X03367Y03358D02*
X03406Y03397D01*
X03261Y03464D02*
X033Y03503D01*
X03133Y03552D02*
X03136Y03549D01*
X03166Y03586D02*
X03169Y03583D01*
X03258Y03677D02*
X03261Y03675D01*
X03291Y03711D02*
X03294Y03708D01*
X03195Y03615D02*
X03198Y03612D01*
X03229Y03648D02*
X03232Y03645D01*
G54D13*
X03711Y02104D02*
X03727Y0212D01*
X03711Y02104D02*
X03781Y02034D01*
X03797Y0205*
X03706Y01823D02*
X03866Y01983D01*
X035Y02029D02*
X03706Y01823D01*
X0366Y02189D02*
X03866Y01983D01*
X035Y02029D02*
X0366Y02189D01*
G54D14*
X05249Y03231D02*
Y03324D01*
X04021Y04132D02*
Y04171D01*
X0404*
X04047Y04164*
Y04151*
X0404Y04145*
X04021*
X04034D02*
X04047Y04132D01*
X0406D02*
X04073D01*
X04066*
Y04171*
X0406Y04164*
X04093D02*
X04099Y04171D01*
X04112*
X04119Y04164*
Y04138*
X04112Y04132*
X04099*
X04093Y04138*
Y04164*
X04148D02*
X04154Y04171D01*
X04167*
X04174Y04164*
Y04158*
X04167Y04151*
X04161*
X04167*
X04174Y04145*
Y04138*
X04167Y04132*
X04154*
X04148Y04138*
X04187Y04164D02*
X04193Y04171D01*
X04207*
X04213Y04164*
Y04138*
X04207Y04132*
X04193*
X04187Y04138*
Y04164*
X04226D02*
X04233Y04171D01*
X04246*
X04252Y04164*
Y04138*
X04246Y04132*
X04233*
X04226Y04138*
Y04164*
X04562Y03829D02*
Y03868D01*
X04581*
X04588Y03861*
Y03848*
X04581Y03842*
X04562*
X04575D02*
X04588Y03829D01*
X04601Y03835D02*
X04607Y03829D01*
X04621*
X04627Y03835*
Y03861*
X04621Y03868*
X04607*
X04601Y03861*
Y03855*
X04607Y03848*
X04627*
X04562Y03771D02*
X04575D01*
X04568*
Y0381*
X04562Y03803*
X04594Y03771D02*
Y03777D01*
X04601*
Y03771*
X04594*
X04653D02*
X04627D01*
X04653Y03797*
Y03803*
X04647Y0381*
X04634*
X04627Y03803*
X04666Y03771D02*
Y0381D01*
Y03784D02*
X04686Y03797D01*
X04666Y03784D02*
X04686Y03771D01*
X04171Y03946D02*
X04164Y03953D01*
X04151*
X04145Y03946*
Y0392*
X04151Y03914*
X04164*
X04171Y0392*
X04184Y03914D02*
X04197D01*
X0419*
Y03953*
X04184Y03946*
X04217D02*
X04223Y03953D01*
X04236*
X04243Y03946*
Y0394*
X04236Y03933*
X0423*
X04236*
X04243Y03927*
Y0392*
X04236Y03914*
X04223*
X04217Y0392*
X04059Y03856D02*
X04073D01*
X04066*
Y03895*
X04059Y03888*
X04092D02*
X04099Y03895D01*
X04112*
X04119Y03888*
Y03862*
X04112Y03856*
X04099*
X04092Y03862*
Y03888*
X04132D02*
X04138Y03895D01*
X04151*
X04158Y03888*
Y03862*
X04151Y03856*
X04138*
X04132Y03862*
Y03888*
X04171Y03856D02*
Y03882D01*
X04191*
X04197Y03875*
Y03856*
X04237Y03895D02*
X0421D01*
Y03875*
X04223*
X0421*
Y03856*
X04888Y03858D02*
X04881Y03864D01*
X04868*
X04862Y03858*
Y03832*
X04868Y03825*
X04881*
X04888Y03832*
X04921Y03825D02*
Y03864D01*
X04901Y03845*
X04927*
X04748Y03884D02*
X04761D01*
X04754*
Y03923*
X04748Y03916*
X04781D02*
X04787Y03923D01*
X048*
X04807Y03916*
Y0389*
X048Y03884*
X04787*
X04781Y0389*
Y03916*
X0482D02*
X04826Y03923D01*
X0484*
X04846Y03916*
Y0389*
X0484Y03884*
X04826*
X0482Y0389*
Y03916*
X04859Y03884D02*
Y0391D01*
X04879*
X04885Y03903*
Y03884*
X04925Y03923D02*
X04899D01*
Y03903*
X04912*
X04899*
Y03884*
X03745Y03736D02*
Y03775D01*
X03765*
X03771Y03768*
Y03755*
X03765Y03749*
X03745*
X03758D02*
X03771Y03736D01*
X03811Y03775D02*
X03784D01*
Y03736*
X03811*
X03784Y03755D02*
X03797D01*
X0385Y03768D02*
X03843Y03775D01*
X0383*
X03824Y03768*
Y03742*
X0383Y03736*
X03843*
X0385Y03742*
Y03755*
X03837*
X03863Y03736D02*
X03876D01*
X0387*
Y03775*
X03863Y03768*
X03783Y03683D02*
Y03709D01*
X03796Y03722*
X03809Y03709*
Y03683*
Y03702*
X03783*
X03822Y03683D02*
Y03722D01*
X03842*
X03848Y03715*
Y03702*
X03842Y03696*
X03822*
X03861Y03683D02*
X03874D01*
X03868*
Y03722*
X03861Y03715*
X0392Y03722D02*
X03894D01*
Y03702*
X03907Y03709*
X03914*
X0392Y03702*
Y03689*
X03914Y03683*
X03901*
X03894Y03689*
X03933Y03715D02*
X0394Y03722D01*
X03953*
X0396Y03715*
Y03689*
X03953Y03683*
X0394*
X03933Y03689*
Y03715*
X03973Y03689D02*
X03979Y03683D01*
X03992*
X03999Y03689*
Y03715*
X03992Y03722*
X03979*
X03973Y03715*
Y03709*
X03979Y03702*
X03999*
X04034Y02593D02*
Y02632D01*
X04053*
X0406Y02625*
Y02612*
X04053Y02606*
X04034*
X04047D02*
X0406Y02593D01*
X04073Y02625D02*
X04079Y02632D01*
X04093*
X04099Y02625*
Y02619*
X04093Y02612*
X04099Y02606*
Y02599*
X04093Y02593*
X04079*
X04073Y02599*
Y02606*
X04079Y02612*
X04073Y02619*
Y02625*
X04079Y02612D02*
X04093D01*
X03975Y0253D02*
X03989D01*
X03982*
Y02569*
X03975Y02562*
X04008Y0253D02*
Y02569D01*
Y02543D02*
X04028Y02556D01*
X04008Y02543D02*
X04028Y0253D01*
X04246Y02015D02*
Y02054D01*
X04265*
X04272Y02048*
Y02035*
X04265Y02028*
X04246*
X04259D02*
X04272Y02015D01*
X04285Y02054D02*
X04311D01*
Y02048*
X04285Y02022*
Y02015*
X04346D02*
X04359D01*
X04352*
Y02054*
X04346Y02048*
X04378D02*
X04385Y02054D01*
X04398*
X04405Y02048*
Y02022*
X04398Y02015*
X04385*
X04378Y02022*
Y02048*
X04418D02*
X04424Y02054D01*
X04437*
X04444Y02048*
Y02022*
X04437Y02015*
X04424*
X04418Y02022*
Y02048*
X04229Y03028D02*
Y03067D01*
X04249*
X04255Y0306*
Y03047*
X04249Y03041*
X04229*
X04242D02*
X04255Y03028D01*
X04295Y03067D02*
X04281Y0306D01*
X04268Y03047*
Y03034*
X04275Y03028*
X04288*
X04295Y03034*
Y03041*
X04288Y03047*
X04268*
X04352Y03028D02*
X04326D01*
X04352Y03054*
Y0306*
X04345Y03067*
X04332*
X04326Y0306*
X04391Y03028D02*
X04365D01*
X04391Y03054*
Y0306*
X04385Y03067*
X04372*
X04365Y0306*
X04404D02*
X04411Y03067D01*
X04424*
X04431Y0306*
Y03034*
X04424Y03028*
X04411*
X04404Y03034*
Y0306*
X04171Y03086D02*
Y03125D01*
X04191*
X04197Y03118*
Y03105*
X04191Y03099*
X04171*
X04184D02*
X04197Y03086D01*
X04237Y03125D02*
X0421D01*
Y03105*
X04223Y03112*
X0423*
X04237Y03105*
Y03092*
X0423Y03086*
X04217*
X0421Y03092*
X04294Y03087D02*
X04268D01*
X04294Y03113*
Y03119*
X04287Y03126*
X04274*
X04268Y03119*
X04333Y03087D02*
X04307D01*
X04333Y03113*
Y03119*
X04327Y03126*
X04314*
X04307Y03119*
X04346D02*
X04353Y03126D01*
X04366*
X04373Y03119*
Y03093*
X04366Y03087*
X04353*
X04346Y03093*
Y03119*
X04112Y03145D02*
Y03184D01*
X04132*
X04138Y03177*
Y03164*
X04132Y03158*
X04112*
X04125D02*
X04138Y03145D01*
X04171D02*
Y03184D01*
X04151Y03164*
X04178*
X04235Y03146D02*
X04209D01*
X04235Y03172*
Y03178*
X04228Y03185*
X04215*
X04209Y03178*
X04274Y03146D02*
X04248D01*
X04274Y03172*
Y03178*
X04268Y03185*
X04255*
X04248Y03178*
X04287D02*
X04294Y03185D01*
X04307*
X04314Y03178*
Y03152*
X04307Y03146*
X04294*
X04287Y03152*
Y03178*
X03828Y03543D02*
Y03582D01*
X03848*
X03855Y03575*
Y03562*
X03848Y03556*
X03828*
X03842D02*
X03855Y03543D01*
X03868Y03575D02*
X03874Y03582D01*
X03888*
X03894Y03575*
Y03569*
X03888Y03562*
X03881*
X03888*
X03894Y03556*
Y03549*
X03888Y03543*
X03874*
X03868Y03549*
X03958Y03543D02*
X03932D01*
X03958Y03569*
Y03576*
X03951Y03583*
X03938*
X03932Y03576*
X03997Y03543D02*
X03971D01*
X03997Y03569*
Y03576*
X03991Y03583*
X03977*
X03971Y03576*
X0401D02*
X04017Y03583D01*
X0403*
X04036Y03576*
Y0355*
X0403Y03543*
X04017*
X0401Y0355*
Y03576*
X04238Y03356D02*
Y03395D01*
X04257*
X04264Y03388*
Y03375*
X04257Y03369*
X04238*
X04251D02*
X04264Y03356D01*
X04303D02*
X04277D01*
X04303Y03382*
Y03388*
X04297Y03395*
X04283*
X04277Y03388*
X04194Y03291D02*
Y03331D01*
X04175Y03311*
X04201*
X04214Y03291D02*
Y03298D01*
X0422*
Y03291*
X04214*
X04247Y03331D02*
X04273D01*
Y03324*
X04247Y03298*
Y03291*
X04286D02*
Y03331D01*
Y03304D02*
X04306Y03318D01*
X04286Y03304D02*
X04306Y03291D01*
X04361Y03656D02*
Y03695D01*
X0438*
X04387Y03688*
Y03675*
X0438Y03669*
X04361*
X04374D02*
X04387Y03656D01*
X044D02*
X04413D01*
X04406*
Y03695*
X044Y03688*
X0435Y03596D02*
X04324D01*
X0435Y03622*
Y03628*
X04343Y03635*
X0433*
X04324Y03628*
X04363Y03596D02*
Y03602D01*
X04369*
Y03596*
X04363*
X04422D02*
X04396D01*
X04422Y03622*
Y03628*
X04415Y03635*
X04402*
X04396Y03628*
X04435Y03596D02*
Y03635D01*
Y03609D02*
X04455Y03622D01*
X04435Y03609D02*
X04455Y03596D01*
X042Y02109D02*
Y02083D01*
X04207Y02076*
X0422*
X04227Y02083*
Y02109*
X0422Y02115*
X04207*
X04213Y02102D02*
X042Y02115D01*
X04207D02*
X042Y02109D01*
X04187Y02115D02*
X04174D01*
X04181*
Y02076*
X04187Y02083*
X04281Y02047D02*
Y02008D01*
X04267Y02021*
X04254Y02008*
Y02047*
X04235D02*
X04221D01*
X04215Y02041*
Y02028*
X04221Y02021*
X04235*
X04241Y02028*
Y02041*
X04235Y02047*
X04202D02*
X04182D01*
X04176Y02041*
X04182Y02034*
X04195*
X04202Y02028*
X04195Y02021*
X04176*
X04156Y02047D02*
Y02015D01*
Y02028*
X04162*
X04149*
X04156*
Y02015*
X04149Y02008*
X0411Y02047D02*
X04123D01*
X0413Y02041*
Y02028*
X04123Y02021*
X0411*
X04103Y02028*
Y02034*
X0413*
X04084Y02015D02*
Y02021D01*
X0409*
X04077*
X04084*
Y02041*
X04077Y02047*
X04018D02*
Y02008D01*
X03992Y02047*
Y02008*
X03429Y01966D02*
Y02005D01*
X03448*
X03455Y01999*
Y01986*
X03448Y01979*
X03429*
X03494Y01966D02*
X03468D01*
X03494Y01992*
Y01999*
X03488Y02005*
X03474*
X03468Y01999*
X03782Y01818D02*
Y01857D01*
X03795Y01844*
X03808Y01857*
Y01818*
X03827D02*
X03841D01*
X03847Y01824*
Y01837*
X03841Y01844*
X03827*
X03821Y01837*
Y01824*
X03827Y01818*
X03867Y0185D02*
Y01844D01*
X0386*
X03873*
X03867*
Y01824*
X03873Y01818*
X039D02*
X03913D01*
X03919Y01824*
Y01837*
X03913Y01844*
X039*
X03893Y01837*
Y01824*
X039Y01818*
X03932Y01844D02*
Y01818D01*
Y01831*
X03939Y01837*
X03945Y01844*
X03952*
X03122Y03357D02*
Y03318D01*
X03148*
X03161D02*
X03174D01*
X03168*
Y03357*
X03161Y0335*
X03231Y03218D02*
Y03257D01*
X03212Y03237*
X03238*
X03251Y03257D02*
X03277D01*
Y0325*
X03251Y03224*
Y03218*
X0329Y03244D02*
Y03224D01*
X03297Y03218*
X03317*
Y03244*
X0333Y03257D02*
Y03218D01*
Y03237*
X03356*
Y03257*
Y03218*
X04516Y04052D02*
X04529D01*
X04523*
Y04013*
X04516*
X04529*
X04575Y04045D02*
X04568Y04052D01*
X04555*
X04549Y04045*
Y04019*
X04555Y04013*
X04568*
X04575Y04019*
X04614Y04013D02*
X04588D01*
X04614Y04039*
Y04045*
X04608Y04052*
X04595*
X04588Y04045*
X0441Y04074D02*
Y04113D01*
X04423Y041*
X04436Y04113*
Y04074*
X04475Y04106D02*
X04469Y04113D01*
X04455*
X04449Y04106*
Y0408*
X04455Y04074*
X04469*
X04475Y0408*
X04488Y04074D02*
Y04113D01*
X04508*
X04514Y04106*
Y04093*
X04508Y04087*
X04488*
X04528Y04106D02*
X04534Y04113D01*
X04547*
X04554Y04106*
Y041*
X04547Y04093*
X04541*
X04547*
X04554Y04087*
Y0408*
X04547Y04074*
X04534*
X04528Y0408*
X04567Y04106D02*
X04573Y04113D01*
X04587*
X04593Y04106*
Y041*
X04587Y04093*
X0458*
X04587*
X04593Y04087*
Y0408*
X04587Y04074*
X04573*
X04567Y0408*
X04606Y04106D02*
X04613Y04113D01*
X04626*
X04633Y04106*
Y0408*
X04626Y04074*
X04613*
X04606Y0408*
Y04106*
X04646Y04074D02*
X04659D01*
X04652*
Y04113*
X04646Y04106*
X04891Y0374D02*
X04904D01*
X04897*
Y03701*
X04891*
X04904*
X0495Y03733D02*
X04943Y0374D01*
X0493*
X04923Y03733*
Y03707*
X0493Y03701*
X04943*
X0495Y03707*
X04963Y03701D02*
X04976D01*
X04969*
Y0374*
X04963Y03733*
X04894Y03643D02*
Y03669D01*
X04907Y03682*
X0492Y03669*
Y03643*
Y03663*
X04894*
X04933Y03682D02*
Y03643D01*
X04953*
X04959Y0365*
Y03676*
X04953Y03682*
X04933*
X04972Y03643D02*
Y03682D01*
X04992*
X04998Y03676*
Y03663*
X04992Y03656*
X04972*
X04985D02*
X04998Y03643D01*
X05012Y03676D02*
X05018Y03682D01*
X05031*
X05038Y03676*
Y0365*
X05031Y03643*
X05018*
X05012Y0365*
Y03676*
X05051D02*
X05057Y03682D01*
X05071*
X05077Y03676*
Y03669*
X05071Y03663*
X05064*
X05071*
X05077Y03656*
Y0365*
X05071Y03643*
X05057*
X05051Y0365*
X03831Y02343D02*
Y02304D01*
X0385*
X03857Y0231*
Y02336*
X0385Y02343*
X03831*
X0387D02*
X03896D01*
Y02336*
X0387Y0231*
Y02304*
X03785Y02844D02*
Y02804D01*
X03805*
X03811Y02811*
Y02837*
X03805Y02844*
X03785*
X03851D02*
X03837Y02837D01*
X03824Y02824*
Y02811*
X03831Y02804*
X03844*
X03851Y02811*
Y02817*
X03844Y02824*
X03824*
X03876Y02804D02*
Y02844D01*
X03902Y02804*
Y02844*
X03935D02*
X03921D01*
X03915Y02837*
Y02811*
X03921Y02804*
X03935*
X03941Y02811*
Y02837*
X03935Y02844*
X03954Y02804D02*
Y02844D01*
X03974*
X03981Y02837*
Y02824*
X03974Y02817*
X03954*
X03727Y02902D02*
Y02862D01*
X03747*
X03753Y02869*
Y02895*
X03747Y02902*
X03727*
X03793D02*
X03766D01*
Y02882*
X03779Y02888*
X03786*
X03793Y02882*
Y02869*
X03786Y02862*
X03773*
X03766Y02869*
X03818Y02862D02*
Y02902D01*
X03844Y02862*
Y02902*
X03877D02*
X03863D01*
X03857Y02895*
Y02869*
X03863Y02862*
X03877*
X03883Y02869*
Y02895*
X03877Y02902*
X03896Y02862D02*
Y02902D01*
X03916*
X03923Y02895*
Y02882*
X03916Y02875*
X03896*
X03668Y02961D02*
Y02921D01*
X03688*
X03694Y02928*
Y02954*
X03688Y02961*
X03668*
X03727Y02921D02*
Y02961D01*
X03707Y02941*
X03734*
X03759Y02921D02*
Y02961D01*
X03785Y02921*
Y02961*
X03818D02*
X03804D01*
X03798Y02954*
Y02928*
X03804Y02921*
X03818*
X03824Y02928*
Y02954*
X03818Y02961*
X03837Y02921D02*
Y02961D01*
X03857*
X03864Y02954*
Y02941*
X03857Y02934*
X03837*
X03732Y03486D02*
Y03447D01*
X03751*
X03758Y03453*
Y03479*
X03751Y03486*
X03732*
X03771Y03479D02*
X03777Y03486D01*
X03791*
X03797Y03479*
Y03473*
X03791Y03466*
X03784*
X03791*
X03797Y0346*
Y03453*
X03791Y03447*
X03777*
X03771Y03453*
X03829Y03447D02*
Y03486D01*
X03848*
X03855Y03479*
Y03466*
X03848Y0346*
X03829*
X03874Y03447D02*
X03888D01*
X03894Y03453*
Y03466*
X03888Y03473*
X03874*
X03868Y03466*
Y03453*
X03874Y03447*
X03907Y03473D02*
Y03453D01*
X03914Y03447*
X0392Y03453*
X03927Y03447*
X03933Y03453*
Y03473*
X03966Y03447D02*
X03953D01*
X03947Y03453*
Y03466*
X03953Y03473*
X03966*
X03973Y03466*
Y0346*
X03947*
X03986Y03473D02*
Y03447D01*
Y0346*
X03992Y03466*
X03999Y03473*
X04006*
X03363Y03904D02*
Y03865D01*
X03382*
X03389Y03871*
Y03897*
X03382Y03904*
X03363*
X03428Y03865D02*
X03402D01*
X03428Y03891*
Y03897*
X03422Y03904*
X03408*
X03402Y03897*
X03077Y02685D02*
Y02646D01*
X03096*
X03103Y02652*
Y02678*
X03096Y02685*
X03077*
X03116Y02646D02*
X03129D01*
X03122*
Y02685*
X03116Y02678*
X04847Y02838D02*
X0484Y02845D01*
X04827*
X04821Y02838*
Y02812*
X04827Y02806*
X0484*
X04847Y02812*
X0486Y02806D02*
X04873D01*
X04867*
Y02845*
X0486Y02838*
X04919Y02806D02*
X04893D01*
X04919Y02832*
Y02838*
X04912Y02845*
X04899*
X04893Y02838*
X04758Y0274D02*
X04772D01*
X04765*
Y02779*
X04758Y02772*
X04791D02*
X04798Y02779D01*
X04811*
X04817Y02772*
Y02746*
X04811Y0274*
X04798*
X04791Y02746*
Y02772*
X04831Y0274D02*
Y02766D01*
X0485*
X04857Y02759*
Y0274*
X04896Y02779D02*
X0487D01*
Y02759*
X04883*
X0487*
Y0274*
X05173Y0351D02*
X05166Y03517D01*
X05153*
X05147Y0351*
Y03484*
X05153Y03478*
X05166*
X05173Y03484*
X05186Y03478D02*
X05199D01*
X05192*
Y03517*
X05186Y0351*
X05219Y03478D02*
X05232D01*
X05225*
Y03517*
X05219Y0351*
X051Y0317D02*
X05113D01*
X05106*
Y03209*
X051Y03203*
X05132D02*
X05139Y03209D01*
X05152*
X05159Y03203*
Y03177*
X05152Y0317*
X05139*
X05132Y03177*
Y03203*
X05172D02*
X05178Y03209D01*
X05191*
X05198Y03203*
Y03177*
X05191Y0317*
X05178*
X05172Y03177*
Y03203*
X05211Y0317D02*
Y03196D01*
X05231*
X05237Y0319*
Y0317*
X05277Y03209D02*
X0525D01*
Y0319*
X05264*
X0525*
Y0317*
X04581Y03431D02*
X04574Y03438D01*
X04561*
X04555Y03431*
Y03405*
X04561Y03399*
X04574*
X04581Y03405*
X04594Y03399D02*
X04607D01*
X046*
Y03438*
X04594Y03431*
X04627D02*
X04633Y03438D01*
X04646*
X04653Y03431*
Y03405*
X04646Y03399*
X04633*
X04627Y03405*
Y03431*
X04555Y03338D02*
X04568D01*
X04562*
Y03377*
X04555Y0337*
X04588Y03338D02*
Y03364D01*
X04607*
X04614Y03357*
Y03338*
X04653Y03377D02*
X04627D01*
Y03357*
X0464*
X04627*
Y03338*
X05094Y03494D02*
X05087Y035D01*
X05074*
X05067Y03494*
Y03467*
X05074Y03461*
X05087*
X05094Y03467*
X05107D02*
X05113Y03461D01*
X05126*
X05133Y03467*
Y03494*
X05126Y035*
X05113*
X05107Y03494*
Y03487*
X05113Y03481*
X05133*
X051Y03106D02*
X05113D01*
X05106*
Y03145*
X051Y03138*
X05132D02*
X05139Y03145D01*
X05152*
X05159Y03138*
Y03112*
X05152Y03106*
X05139*
X05132Y03112*
Y03138*
X05172D02*
X05178Y03145D01*
X05191*
X05198Y03138*
Y03112*
X05191Y03106*
X05178*
X05172Y03112*
Y03138*
X05211Y03106D02*
Y03132D01*
X05231*
X05237Y03125*
Y03106*
X05277Y03145D02*
X0525D01*
Y03125*
X05264*
X0525*
Y03106*
X03538Y03143D02*
X03531Y0315D01*
X03518*
X03512Y03143*
Y03117*
X03518Y03111*
X03531*
X03538Y03117*
X03551Y03143D02*
X03558Y0315D01*
X03571*
X03577Y03143*
Y03137*
X03571Y0313*
X03577Y03124*
Y03117*
X03571Y03111*
X03558*
X03551Y03117*
Y03124*
X03558Y0313*
X03551Y03137*
Y03143*
X03558Y0313D02*
X03571D01*
X0361Y0311D02*
X03623D01*
X03616*
Y0315*
X0361Y03143*
X03642D02*
X03649Y0315D01*
X03662*
X03669Y03143*
Y03117*
X03662Y0311*
X03649*
X03642Y03117*
Y03143*
X03682D02*
X03688Y0315D01*
X03701*
X03708Y03143*
Y03117*
X03701Y0311*
X03688*
X03682Y03117*
Y03143*
X03721Y0311D02*
Y03137D01*
X03741*
X03747Y0313*
Y0311*
X03787Y0315D02*
X0376D01*
Y0313*
X03774*
X0376*
Y0311*
X03597Y03202D02*
X0359Y03209D01*
X03577*
X03571Y03202*
Y03176*
X03577Y0317*
X0359*
X03597Y03176*
X0361Y03209D02*
X03636D01*
Y03202*
X0361Y03176*
Y0317*
X03669Y03169D02*
X03682D01*
X03675*
Y03209*
X03669Y03202*
X03701D02*
X03708Y03209D01*
X03721*
X03728Y03202*
Y03176*
X03721Y03169*
X03708*
X03701Y03176*
Y03202*
X03741Y03196D02*
Y03176D01*
X03747Y03169*
X03767*
Y03196*
X03806Y03209D02*
X0378D01*
Y03189*
X03793*
X0378*
Y03169*
X03656Y03261D02*
X03649Y03268D01*
X03636*
X0363Y03261*
Y03235*
X03636Y03229*
X03649*
X03656Y03235*
X03695Y03268D02*
X03682Y03261D01*
X03669Y03248*
Y03235*
X03676Y03229*
X03689*
X03695Y03235*
Y03242*
X03689Y03248*
X03669*
X03728Y03228D02*
X03741D01*
X03734*
Y03268*
X03728Y03261*
X0376D02*
X03767Y03268D01*
X0378*
X03787Y03261*
Y03235*
X0378Y03228*
X03767*
X0376Y03235*
Y03261*
X038Y03255D02*
Y03235D01*
X03806Y03228*
X03826*
Y03255*
X03865Y03268D02*
X03839D01*
Y03248*
X03852*
X03839*
Y03228*
X03334Y03627D02*
X03328Y03634D01*
X03314*
X03308Y03627*
Y03601*
X03314Y03595*
X03328*
X03334Y03601*
X03374Y03634D02*
X03347D01*
Y03614*
X0336Y03621*
X03367*
X03374Y03614*
Y03601*
X03367Y03595*
X03354*
X03347Y03601*
X03139Y03747D02*
X03152D01*
X03145*
Y03786*
X03139Y03779*
X03171Y03747D02*
Y03773D01*
X03191*
X03198Y03766*
Y03747*
X03237Y03786D02*
X03211D01*
Y03766*
X03224*
X03211*
Y03747*
X03209Y03501D02*
X03203Y03508D01*
X03189*
X03183Y03501*
Y03475*
X03189Y03469*
X03203*
X03209Y03475*
X03249Y03469D02*
X03222D01*
X03249Y03495*
Y03501*
X03242Y03508*
X03229*
X03222Y03501*
X02916Y03514D02*
X02929D01*
X02922*
Y03554*
X02916Y03547*
X02948D02*
X02955Y03554D01*
X02968*
X02975Y03547*
Y03521*
X02968Y03514*
X02955*
X02948Y03521*
Y03547*
X02988D02*
X02994Y03554D01*
X03007*
X03014Y03547*
Y03521*
X03007Y03514*
X02994*
X02988Y03521*
Y03547*
X03027Y03514D02*
Y0354D01*
X03047*
X03053Y03534*
Y03514*
X03093Y03554D02*
X03066D01*
Y03534*
X03079*
X03066*
Y03514*
X03272Y03564D02*
X03266Y03571D01*
X03252*
X03246Y03564*
Y03538*
X03252Y03532*
X03266*
X03272Y03538*
X03285Y03532D02*
X03298D01*
X03292*
Y03571*
X03285Y03564*
X03017Y03684D02*
X0303D01*
X03024*
Y03723*
X03017Y03717*
X0305D02*
X03057Y03723D01*
X0307*
X03076Y03717*
Y03691*
X0307Y03684*
X03057*
X0305Y03691*
Y03717*
X03089Y03684D02*
Y0371D01*
X03109*
X03116Y03704*
Y03684*
X03155Y03723D02*
X03129D01*
Y03704*
X03142*
X03129*
Y03684*
X0477Y03654D02*
Y03693D01*
X04789*
X04796Y03686*
Y03673*
X04789Y03667*
X0477*
X04809Y03654D02*
X04822D01*
X04815*
Y03693*
X04809Y03686*
X04826Y03177D02*
X04836Y03152D01*
X04855Y0316*
X04849Y03172*
X04855Y0316*
X04873Y03168*
X04833Y03194D02*
X04858Y03204D01*
X04846Y03199*
X04837Y03202*
X04828Y03206*
X04826Y03212*
X0484Y03246D02*
X04835Y03258D01*
X04826Y03262*
X04814Y03257*
X04811Y03248*
X04816Y03236*
X04824Y03233*
X04836Y03238*
X0484Y03246*
X04827Y03277D02*
X04803Y03267D01*
X04796Y03285*
X04799Y03293*
X04817Y03301*
X0478Y03306D02*
X04786Y03309D01*
X04788Y03303*
X04783Y03315*
X04786Y03309*
X04804Y03317*
X04807Y03325*
X04777Y03398D02*
X04782Y03386D01*
X04779Y03377*
X04767Y03372*
X04758Y03376*
X04753Y03388*
X04757Y03396*
X04763Y03399*
X04773Y03375*
X0477Y03416D02*
X04746Y03406D01*
X04738Y03424*
X04742Y03433*
X0476Y0344*
X04708Y03462D02*
X04745Y03477D01*
X04752Y03458*
X04749Y0345*
X04737Y03445*
X04728Y03448*
X0472Y03467*
G54D15*
X04786Y03461D02*
X04778Y03464D01*
X04773Y03476*
X04776Y03485*
X04782Y03488*
X04791Y03484*
X04794Y03493*
X04801Y03495*
X04809Y03492*
X04814Y03479*
X04811Y03471*
X04805Y03468*
X04796Y03472*
X04792Y03463*
X04786Y03461*
X04796Y03472D02*
X04791Y03484D01*
X05025Y03566D02*
X05015Y03591D01*
X05021Y03593*
X05055Y03579*
X05062Y03582*
X05173Y03309D02*
X05168Y03321D01*
X0517Y03315*
X05134Y033*
X05143Y03296*
X04909Y03219D02*
X0492Y03195D01*
X04885Y03209*
X04879Y03206*
X04876Y03198*
X04881Y03186*
X04889Y03182*
M02*