%FSTAX23Y23*%
%MOIN*%
%SFA1B1*%

%IPPOS*%
%ADD14C,0.010000*%
%ADD55C,0.005000*%
%LNesp_board-1*%
%LPD*%
G36*
X03067Y02585D02*
X03058Y02575D01*
X03067Y02565*
X03064Y02562*
X03054Y02572*
X03044Y02562*
X03041Y02565*
X03051Y02575*
X03041Y02585*
X03044Y02588*
X03054Y02578*
X03064Y02588*
X03067Y02585*
G37*
G36*
X03886Y02716D02*
X03865Y02695D01*
X03867Y02695*
X0387*
X03872Y02695*
X03873Y02695*
X03875Y02695*
X03876Y02694*
X03877Y02694*
X03877*
X03877Y02694*
X03879Y02693*
X03881Y02692*
X03883Y02691*
X03884Y0269*
X03886Y02689*
X03887Y02689*
X03887Y02688*
X03889Y02686*
X0389Y02685*
X03891Y02683*
X03892Y02681*
X03893Y0268*
X03893Y02678*
X03894Y02677*
X03894Y02675*
X03895Y02674*
X03895Y02673*
X03895Y02671*
X03895Y0267*
X03895Y0267*
Y02669*
Y02669*
Y02668*
X03895Y02666*
X03895Y02664*
X03894Y02663*
X03894Y02661*
X03893Y02659*
X03893Y02657*
X03892Y02656*
X03891Y02655*
X0389Y02653*
X0389Y02652*
X03889Y02651*
X03888Y02651*
X03888Y0265*
X03887Y0265*
X03887Y02649*
X03887Y02649*
X03886Y02648*
X03884Y02646*
X03882Y02645*
X03881Y02644*
X03879Y02644*
X03877Y02643*
X03876Y02642*
X03874Y02642*
X03873Y02642*
X03872Y02641*
X0387Y02641*
X03869Y02641*
X03869Y02641*
X03868Y02641*
X03868*
X03868*
X03866Y02641*
X03864Y02641*
X03862Y02642*
X0386Y02642*
X03858Y02643*
X03857Y02643*
X03855Y02644*
X03854Y02645*
X03853Y02645*
X03852Y02646*
X03851Y02647*
X0385Y02647*
X03849Y02648*
X03849Y02648*
X03849Y02649*
X03847Y0265*
X03846Y02652*
X03845Y02654*
X03844Y02655*
X03843Y02657*
X03842Y02658*
X03842Y02658*
X03842Y02658*
Y02659*
X03842Y02659*
X03841Y02661*
X03841Y02663*
X03841Y02665*
X03841Y02667*
X03841Y02668*
Y0267*
X03841Y02671*
X03841Y02671*
X03834Y02665*
X0383Y02669*
X03881Y02721*
X03886Y02716*
G37*
G36*
X03909Y02664D02*
X0391Y02664D01*
X03911Y02663*
X03912Y02663*
X03913Y02663*
X03913Y02662*
X03913Y02662*
X03914Y02661*
X03915Y0266*
X03916Y02659*
X03916Y02658*
X03916Y02657*
X03917Y02656*
X03917Y02655*
Y02655*
X03917Y02654*
X03917Y02652*
Y0265*
X03917Y02649*
X03917Y02648*
X03917Y02647*
X03917Y02646*
X03917Y02646*
X03922Y02651*
X03927Y02646*
X0389Y02609*
X03885Y02614*
X03897Y02627*
X03899Y02628*
X03901Y0263*
X03902Y02631*
X03903Y02633*
X03904Y02634*
X03905Y02635*
X03906Y02636*
X03907Y02637*
X03908Y02638*
X03908Y02639*
X03909Y02639*
X03909Y0264*
X03909Y0264*
X03909Y0264*
X03909Y0264*
X0391Y02642*
X03911Y02644*
X03912Y02646*
X03912Y02647*
X03912Y02648*
X03912Y02649*
Y0265*
Y0265*
X03912Y02651*
X03912Y02653*
X03911Y02654*
X03911Y02655*
X0391Y02656*
X0391Y02656*
X0391Y02656*
X03909Y02657*
X03907Y02658*
X03907Y02658*
X03907Y02658*
X03906Y02658*
X03906Y02658*
X03908Y02665*
X03909Y02664*
G37*
G36*
X03941Y02633D02*
X03934Y02626D01*
X03936Y02626*
X03939*
X03941Y02626*
X03942Y02626*
X03944Y02626*
X03945Y02625*
X03946Y02625*
X03946*
X03946Y02625*
X03948Y02624*
X0395Y02623*
X03952Y02622*
X03953Y02621*
X03955Y0262*
X03956Y0262*
X03956Y02619*
X03958Y02617*
X03959Y02616*
X0396Y02614*
X03961Y02612*
X03962Y02611*
X03962Y02609*
X03963Y02608*
X03963Y02606*
X03964Y02605*
X03964Y02603*
X03964Y02602*
X03964Y02601*
X03964Y02601*
Y026*
Y026*
Y02599*
X03964Y02597*
X03964Y02595*
X03964Y02593*
X03963Y02592*
X03962Y0259*
X03962Y02588*
X03961Y02587*
X0396Y02585*
X0396Y02584*
X03959Y02583*
X03958Y02582*
X03957Y02581*
X03957Y02581*
X03957Y0258*
X03956Y0258*
X03956Y0258*
X03955Y02579*
X03953Y02577*
X03951Y02576*
X0395Y02575*
X03948Y02575*
X03946Y02574*
X03945Y02573*
X03943Y02573*
X03942Y02573*
X03941Y02572*
X0394Y02572*
X03939Y02572*
X03938Y02572*
X03937Y02572*
X03937*
X03937*
X03935Y02572*
X03933Y02572*
X03931Y02572*
X03929Y02573*
X03927Y02574*
X03926Y02574*
X03924Y02575*
X03923Y02576*
X03922Y02576*
X03921Y02577*
X0392Y02578*
X03919Y02578*
X03918Y02579*
X03918Y02579*
X03918Y0258*
X03916Y02581*
X03915Y02583*
X03914Y02585*
X03913Y02586*
X03912Y02588*
X03912Y02589*
X03911Y02589*
X03911Y02589*
Y0259*
X03911Y0259*
X03911Y02592*
X0391Y02594*
X0391Y02596*
X0391Y02598*
X0391Y02599*
Y02601*
X0391Y02602*
X0391Y02602*
X03903Y02596*
X03899Y026*
X03936Y02638*
X03941Y02633*
G37*
G36*
X03982Y02581D02*
X03982D01*
X03984*
X03986Y02581*
X03988Y02581*
X0399Y0258*
X03992Y02579*
X03993Y02579*
X03995Y02578*
X03996Y02577*
X03998Y02576*
X03999Y02576*
X04Y02575*
X04001Y02574*
X04001Y02574*
X04002Y02573*
X04002Y02573*
X04004Y02571*
X04005Y0257*
X04006Y02568*
X04007Y02566*
X04008Y02564*
X04008Y02563*
X04009Y02561*
X04009Y0256*
X0401Y02558*
X0401Y02557*
X0401Y02556*
X0401Y02555*
X0401Y02554*
Y02553*
X0401Y02553*
Y02553*
X0401Y02551*
X0401Y02549*
X04009Y02547*
X04009Y02545*
X04008Y02543*
X04007Y02542*
X04006Y02539*
X04005Y02538*
X04004Y02537*
X04004Y02536*
X04003Y02535*
X04003Y02535*
X04002Y02534*
X04002Y02534*
X04002Y02534*
X04Y02533*
X03999Y02531*
X03997Y0253*
X03996Y0253*
X03994Y02529*
X03992Y02528*
X03991Y02528*
X03989Y02527*
X03988Y02527*
X03987Y02526*
X03986Y02526*
X03985Y02526*
X03984*
X03983Y02526*
X03983*
X03983*
X03981Y02526*
X03979Y02526*
X03977Y02527*
X03975Y02527*
X03973Y02528*
X03972Y02528*
X0397Y02529*
X03969Y0253*
X03968Y02531*
X03966Y02531*
X03965Y02532*
X03965Y02533*
X03964Y02533*
X03964Y02534*
X03963Y02534*
X03962Y02536*
X0396Y02537*
X03959Y02539*
X03958Y02541*
X03957Y02542*
X03957Y02544*
X03956Y02546*
X03956Y02547*
X03956Y02548*
X03955Y0255*
X03955Y02551*
X03955Y02552*
X03955Y02553*
Y02553*
Y02554*
Y02554*
X03955Y02556*
X03955Y02558*
X03956Y0256*
X03956Y02561*
X03957Y02563*
X03958Y02565*
X03959Y02566*
X03959Y02567*
X0396Y02569*
X03961Y0257*
X03961Y02571*
X03962Y02571*
X03962Y02572*
X03963Y02573*
X03963Y02573*
X03963Y02573*
X03965Y02574*
X03966Y02575*
X03968Y02576*
X03969Y02577*
X03971Y02578*
X03972Y02579*
X03974Y02579*
X03975Y0258*
X03977Y0258*
X03978Y0258*
X03979Y02581*
X0398Y02581*
X03981Y02581*
X03981Y02581*
X03982*
G37*
G36*
X04046Y02547D02*
X04048Y02547D01*
X04049Y02546*
X0405Y02546*
X0405Y02546*
X04051Y02546*
X04052Y02545*
X04054Y02544*
X04056Y02543*
X04058Y02542*
X04059Y0254*
X0406Y0254*
X0406Y02539*
X04071Y02528*
X04021Y02478*
X04007Y02492*
X04006Y02493*
X04005Y02495*
X04004Y02496*
X04003Y02497*
X04002Y02499*
X04001Y025*
X04001Y02501*
X04Y02503*
X04Y02504*
X04Y02505*
X04Y02506*
X04Y02506*
X04Y02507*
Y02508*
X03999Y02508*
Y02508*
Y02509*
X04Y02511*
X04Y02512*
X04Y02514*
X04001Y02515*
X04001Y02516*
X04002Y02518*
X04003Y0252*
X04004Y02521*
X04004Y02521*
X04005Y02522*
X04005Y02522*
X04005Y02522*
X04005Y02523*
X04006Y02524*
X04008Y02525*
X04009Y02525*
X0401Y02526*
X04011Y02526*
X04011Y02527*
X04012Y02527*
X04012*
X04013Y02527*
X04015Y02528*
X04016Y02528*
X04017Y02528*
X04018Y02528*
X04019*
X04019Y02528*
X0402*
X04021Y02528*
X04023Y02527*
X04024Y02527*
X04026Y02526*
X04027Y02526*
X04028Y02526*
X04029Y02525*
X04029*
X04029Y02525*
X04028Y02527*
X04028Y02529*
X04028Y0253*
Y02532*
X04028Y02533*
X04028Y02533*
X04028Y02534*
X04028Y02534*
X04029Y02536*
X0403Y02537*
X0403Y02539*
X04031Y0254*
X04032Y02541*
X04032Y02542*
X04033Y02542*
X04033Y02542*
X04034Y02543*
X04036Y02544*
X04037Y02545*
X04038Y02546*
X0404Y02546*
X04041Y02546*
X04041Y02547*
X04041Y02547*
X04043Y02547*
X04045Y02547*
X04046Y02547*
G37*
G36*
X04129Y02437D02*
X04131Y02437D01*
X04133Y02436*
X04135Y02436*
X04137Y02435*
X04138Y02434*
X0414Y02433*
X04141Y02433*
X04143Y02432*
X04144Y02431*
X04145Y0243*
X04145Y0243*
X04146Y02429*
X04146Y02429*
X04148Y02427*
X04149Y02425*
X0415Y02423*
X04151Y02422*
X04152Y0242*
X04153Y02418*
X04153Y02416*
X04154Y02415*
X04154Y02413*
X04154Y02412*
X04154Y0241*
Y02409*
Y02408*
Y02408*
X04154Y02407*
Y02407*
X04154Y02405*
X04153Y02404*
X04153Y02402*
X04152Y024*
X04151Y02397*
X04149Y02395*
X04149Y02394*
X04148Y02393*
X04147Y02392*
X04147Y02391*
X04146Y02391*
X04146Y0239*
X04146Y0239*
X04146Y0239*
X04144Y02389*
X04143Y02388*
X04141Y02387*
X0414Y02386*
X04137Y02384*
X04135Y02384*
X04134Y02383*
X04132Y02383*
X04131Y02383*
X0413Y02382*
X04129Y02382*
X04128Y02382*
X04128Y02382*
X04127Y02382*
X04127*
X04125Y02382*
X04123Y02382*
X04121Y02382*
X04119Y02383*
X04118Y02383*
X04116Y02384*
X04114Y02385*
X04113Y02386*
X04112Y02386*
X04111Y02387*
X04109Y02388*
X04109Y02389*
X04108Y02389*
X04107Y0239*
X04107Y0239*
X04106Y02392*
X04104Y02393*
X04103Y02395*
X04102Y02396*
X04102Y02397*
X04101Y02398*
X04101Y02398*
X04101Y02399*
X041Y024*
X041Y02402*
X04099Y02404*
X04099Y02405*
X04099Y02406*
X04099Y02407*
Y02408*
X04099Y02408*
Y0241*
X04099Y02412*
X04099Y02414*
X04099Y02415*
X041Y02417*
X041Y02418*
X041Y02419*
Y02419*
X041Y02419*
X04107Y02417*
X04106Y02415*
X04106Y02413*
X04106Y02412*
X04105Y0241*
Y02409*
Y02408*
Y02408*
Y02408*
X04106Y02406*
X04106Y02405*
X04106Y02404*
X04106Y02403*
X04107Y02402*
X04107Y02401*
X04107Y02401*
X04107Y02401*
X04108Y02399*
X04109Y02398*
X0411Y02397*
X0411Y02396*
X04111Y02395*
X04111Y02395*
X04112Y02394*
X04113Y02393*
X04114Y02392*
X04117Y02391*
X04119Y0239*
X04121Y02389*
X04123Y02389*
X04124Y02388*
X04125Y02388*
X04125Y02388*
X04126*
X04126*
X04126*
X04127Y02388*
X04129Y02389*
X0413Y02389*
X04132Y02389*
X04134Y0239*
X04136Y02391*
X04138Y02393*
X04139Y02393*
X04139Y02394*
X0414Y02394*
X0414Y02394*
X04141Y02395*
X04141Y02395*
X04107Y02428*
X04109Y0243*
X0411Y02431*
X04113Y02433*
X04114Y02434*
X04116Y02434*
X04117Y02435*
X04118Y02435*
X04119Y02436*
X04121Y02436*
X04122Y02436*
X04122Y02436*
X04123Y02437*
X04124Y02437*
X04124Y02437*
X04124*
X04126Y02437*
X04129Y02437*
G37*
G36*
X04091Y02483D02*
X04076Y02443D01*
X04116Y02458*
X04121Y02453*
X04066Y02433*
X04065Y02434*
X04085Y02488*
X04091Y02483*
G37*
G36*
X04253Y0234D02*
X04255Y0234D01*
X04256Y0234*
X04258Y0234*
X04259Y02339*
X0426Y02339*
X04262Y02338*
X04264Y02337*
X04265Y02336*
X04266Y02336*
X04267Y02335*
X04267Y02335*
X04268Y02334*
X04269Y02333*
X0427Y02332*
X04271Y02331*
X04272Y02329*
X04273Y02328*
X04274Y02325*
X04274Y02324*
X04275Y02323*
X04275Y02321*
X04275Y0232*
X04275Y02319*
X04276Y02319*
X04276Y02318*
Y02317*
Y02317*
Y02317*
X04276Y02315*
X04275Y02313*
X04275Y02312*
X04274Y0231*
X04274Y02309*
X04273Y02307*
X04272Y02305*
X04271Y02304*
X04271Y02303*
X0427Y02302*
X0427Y02301*
X04269Y02301*
X04269Y023*
X04269Y023*
X04268Y023*
X04264Y02305*
X04265Y02307*
X04267Y02309*
X04268Y02311*
X04268Y02313*
X04269Y02315*
X04269Y02316*
X04269Y02317*
Y02317*
X04269Y0232*
X04268Y02322*
X04267Y02324*
X04267Y02325*
X04266Y02327*
X04265Y02328*
X04265Y02328*
X04264Y02329*
X04262Y0233*
X04261Y02331*
X04259Y02332*
X04257Y02333*
X04256Y02333*
X04254Y02333*
X04254Y02333*
X04253*
X04251Y02333*
X04249Y02333*
X04247Y02332*
X04246Y02331*
X04244Y0233*
X04244Y0233*
X04243Y02329*
X04243Y02329*
X04243Y02329*
X04243Y02329*
X04242Y02328*
X04241Y02326*
X0424Y02325*
X04239Y02324*
X04239Y02323*
X04238Y02322*
X04238Y02321*
X04238Y02321*
X04238Y0232*
X04238Y02319*
X04237Y02316*
X04237Y02313*
X04237Y02311*
X04237Y02308*
X04237Y02307*
X04237Y02306*
Y02305*
Y02304*
X04237Y02304*
Y02304*
X04235Y02264*
X04201Y02298*
X04206Y02303*
X04229Y0228*
X0423Y02306*
X0423Y02308*
X0423Y0231*
X0423Y02312*
X0423Y02314*
X04231Y02315*
X04231Y02317*
X04231Y02319*
X04231Y02321*
X04231Y02321*
X04232Y02322*
X04232Y02323*
X04232Y02323*
X04232Y02324*
Y02324*
X04232Y02324*
X04233Y02326*
X04234Y02328*
X04235Y0233*
X04236Y02331*
X04237Y02332*
X04237Y02333*
X04238Y02334*
X04238Y02334*
X04238Y02334*
X04238Y02334*
X04239Y02335*
X0424Y02336*
X04243Y02338*
X04245Y02339*
X04248Y02339*
X04249Y0234*
X0425Y0234*
X04251Y0234*
X04251Y0234*
X04252*
X04253*
X04253Y0234*
X04253*
G37*
G36*
X04193Y02409D02*
X04171Y02388D01*
X04174Y02388*
X04176*
X04178Y02388*
X0418Y02388*
X04182Y02388*
X04183Y02388*
X04184Y02387*
X04184*
X04184Y02387*
X04186Y02387*
X04188Y02386*
X0419Y02385*
X04191Y02384*
X04192Y02383*
X04193Y02382*
X04194Y02381*
X04195Y0238*
X04197Y02378*
X04198Y02376*
X04199Y02375*
X04199Y02373*
X042Y02372*
X04201Y0237*
X04201Y02368*
X04201Y02367*
X04201Y02366*
X04202Y02365*
X04202Y02364*
X04202Y02363*
Y02362*
Y02362*
Y02362*
X04202Y0236*
X04202Y02358*
X04201Y02356*
X04201Y02354*
X042Y02352*
X04199Y02351*
X04199Y02349*
X04198Y02348*
X04197Y02347*
X04196Y02346*
X04196Y02345*
X04195Y02344*
X04194Y02343*
X04194Y02343*
X04194Y02343*
X04194Y02342*
X04192Y02341*
X04191Y0234*
X04189Y02339*
X04187Y02338*
X04186Y02337*
X04184Y02336*
X04182Y02336*
X04181Y02335*
X0418Y02335*
X04178Y02335*
X04177Y02334*
X04176Y02334*
X04175Y02334*
X04175Y02334*
X04174*
X04174*
X04172Y02334*
X0417Y02334*
X04168Y02335*
X04167Y02335*
X04165Y02336*
X04163Y02337*
X04162Y02337*
X04161Y02338*
X04159Y02339*
X04158Y02339*
X04157Y0234*
X04157Y02341*
X04156Y02341*
X04156Y02342*
X04155Y02342*
X04154Y02344*
X04152Y02345*
X04151Y02347*
X0415Y02349*
X0415Y0235*
X04149Y02351*
X04149Y02351*
X04149Y02352*
Y02352*
X04149Y02352*
X04148Y02354*
X04148Y02356*
X04148Y02358*
X04147Y0236*
X04147Y02362*
Y02363*
X04147Y02364*
X04147Y02364*
X04141Y02358*
X04136Y02363*
X04188Y02414*
X04193Y02409*
G37*
G36*
X04295Y023D02*
X04296Y023D01*
X04298Y02299*
X04299Y02299*
X04299Y02299*
X04299*
X04299Y02299*
X04301Y02298*
X04303Y02298*
X04305Y02297*
X04306Y02296*
X04307Y02295*
X04308Y02294*
X0431Y02293*
X0431Y02291*
X04312Y02289*
X04313Y02287*
X04314Y02285*
X04314Y02283*
X04314Y02283*
X04314Y02282*
X04314Y02282*
X04314Y02281*
Y02281*
Y02281*
Y02278*
X04314Y02275*
X04313Y02273*
X04313Y02271*
X04312Y02269*
X04311Y02268*
X04311Y02267*
X04311Y02267*
X04311Y02266*
X0431Y02266*
X0431Y02266*
X04305Y02271*
X04306Y02273*
X04307Y02275*
X04307Y02277*
X04307Y02278*
X04307Y0228*
Y0228*
Y02281*
Y02281*
X04307Y02283*
X04307Y02284*
X04306Y02285*
X04305Y02287*
X04305Y02287*
X04304Y02288*
X04304Y02289*
X04302Y0229*
X04301Y02291*
X04299Y02292*
X04298Y02292*
X04296Y02293*
X04296Y02293*
X04295*
X04295Y02293*
X04293Y02293*
X04291Y02292*
X0429Y02292*
X04289Y02291*
X04288Y02291*
X04287Y0229*
X04287Y0229*
X04286Y0229*
X04286Y0229*
X04286Y02289*
X04285Y02288*
X04285Y02287*
X04284Y02286*
X04284Y02285*
X04284Y02285*
X04284Y02285*
Y02284*
X04283Y02283*
X04284Y02282*
X04284Y02281*
X04284Y0228*
X04284Y02279*
X04284Y02278*
X04285Y02277*
X04285Y02277*
X04285Y02276*
X04286Y02274*
X04287Y02273*
X04288Y02272*
X04289Y02271*
X04289Y0227*
X0429Y0227*
X04285Y02265*
X04283Y02267*
X04281Y02269*
X04279Y0227*
X04278Y02271*
X04276Y02271*
X04276Y02272*
X04275Y02272*
X04275Y02272*
X04273Y02273*
X04272Y02273*
X0427Y02273*
X04269*
X04268Y02273*
X04267Y02273*
X04267Y02273*
X04266*
X04265Y02272*
X04264Y02272*
X04262Y02271*
X04261Y0227*
X0426Y0227*
X0426Y02269*
X04259Y02269*
X04259Y02269*
X04258Y02268*
X04258Y02267*
X04257Y02265*
X04256Y02263*
X04255Y02262*
X04255Y0226*
X04255Y02259*
X04255Y02258*
Y02258*
Y02258*
X04255Y02255*
X04256Y02253*
X04257Y02251*
X04258Y02249*
X04259Y02248*
X04259Y02247*
X0426Y02247*
X0426Y02246*
X0426Y02246*
X04262Y02244*
X04264Y02243*
X04266Y02242*
X04268Y02241*
X04269Y02241*
X0427Y02241*
X04271Y02241*
X04271Y02241*
X04273Y02241*
X04275Y02241*
X04276Y02242*
X04278Y02242*
X0428Y02243*
X04281Y02243*
X04281Y02244*
X04282Y02244*
X04282Y02244*
X04282Y02244*
X04287Y02239*
X04285Y02238*
X04284Y02237*
X04282Y02236*
X04281Y02236*
X04279Y02235*
X04278Y02235*
X04276Y02234*
X04275Y02234*
X04274Y02234*
X04273Y02234*
X04272*
X04272Y02234*
X04271*
X04271*
X0427*
X0427*
X04269Y02234*
X04267Y02234*
X04264Y02235*
X04262Y02236*
X0426Y02238*
X04258Y02239*
X04257Y02239*
X04257Y0224*
X04256Y0224*
X04256Y02241*
X04254Y02243*
X04253Y02245*
X04251Y02246*
X04251Y02248*
X0425Y02249*
X04249Y02251*
X04249Y02251*
X04249Y02251*
Y02252*
X04249Y02252*
X04249Y02254*
X04248Y02256*
X04248Y02258*
X04248Y0226*
X04248Y02262*
X04249Y02263*
X04249Y02264*
Y02264*
X04249Y02264*
X0425Y02266*
X0425Y02268*
X04251Y0227*
X04252Y02271*
X04253Y02273*
X04254Y02274*
X04254Y02274*
X04255Y02274*
X04255Y02274*
X04255Y02274*
X04256Y02275*
X04257Y02276*
X04259Y02277*
X04261Y02278*
X04263Y02279*
X04264Y02279*
X04266Y0228*
X04266Y0228*
X04267Y0228*
X04267*
X04267*
X04269Y0228*
X04271Y0228*
X04273Y0228*
X04274Y02279*
X04275Y02279*
X04276Y02279*
X04277Y02278*
X04277*
X04277Y02278*
X04277Y0228*
X04277Y02282*
Y02284*
Y02285*
X04277Y02287*
X04277Y02288*
X04278Y02289*
X04278Y02291*
X04279Y02292*
X0428Y02293*
X0428Y02294*
X04281Y02294*
X04281Y02295*
X04281Y02295*
X04281Y02295*
X04282Y02296*
X04284Y02297*
X04285Y02298*
X04286Y02298*
X04288Y02299*
X04288Y02299*
X04289Y02299*
X04289Y02299*
X04291Y023*
X04293Y023*
X04295*
G37*
G36*
X04332Y02261D02*
X04334Y02261D01*
X04336Y0226*
X04337Y0226*
X04338Y02259*
X04339Y02259*
X04339Y02259*
X04339Y02259*
X04339Y02259*
X0434Y02258*
X04341Y02258*
X04342Y02257*
X04343Y02256*
X04345Y02255*
X04347Y02253*
X04349Y02251*
X04361Y02238*
X04311Y02188*
X04306Y02193*
X04329Y02216*
X04323Y02223*
X04321Y02224*
X0432Y02226*
X04319Y02227*
X04318Y02228*
X04317Y02229*
X04316Y0223*
X04316Y02231*
X04315Y02232*
X04315Y02232*
X04314Y02232*
X04314Y02233*
X04314Y02233*
X04314Y02233*
X04313Y02236*
X04312Y02238*
X04311Y0224*
X04311Y02241*
X04311Y02243*
X04311Y02244*
X04311Y02245*
Y02245*
X04311Y02247*
X04312Y02249*
X04313Y02251*
X04314Y02253*
X04315Y02254*
X04315Y02255*
X04316Y02255*
X04316Y02256*
X04316Y02256*
X04317Y02256*
X04317Y02256*
X04319Y02258*
X04321Y02259*
X04322Y0226*
X04324Y02261*
X04326Y02261*
X04327Y02261*
X04327Y02262*
X04328*
X0433Y02262*
X04332Y02261*
G37*
G36*
X04374Y0222D02*
X04375D01*
X04377Y0222*
X04378Y0222*
X04379Y0222*
X04379Y0222*
X04381Y02219*
X04382Y02218*
X04384Y02217*
X04385Y02217*
X04386Y02216*
X04387Y02215*
X04387Y02215*
X04389Y02213*
X0439Y02212*
X0439Y02211*
X04391Y0221*
X04391Y02208*
X04392Y02208*
X04392Y02207*
X04392Y02207*
X04392Y02205*
X04393Y02204*
X04393Y02202*
X04393Y02201*
X04392Y022*
X04392Y02199*
X04392Y02198*
X04392Y02198*
X04392Y02197*
X04391Y02195*
X0439Y02194*
X04389Y02193*
X04389Y02192*
X04388Y02191*
X04388Y02191*
X04388Y02191*
X04386Y02189*
X04384Y02188*
X04383Y02187*
X04381Y02187*
X0438Y02186*
X04378Y02186*
X04378Y02186*
X04378*
X04377Y02186*
X04377Y02186*
X04376*
X04375*
X04374*
X04371Y02186*
X04369Y02186*
X04366Y02186*
X04365Y02186*
X04364Y02186*
X04364Y02187*
X04363Y02187*
X04363Y02187*
X04363*
X04361Y02187*
X04359Y02187*
X04357Y02187*
X04355Y02187*
X04354Y02188*
X04353*
X04351*
X0435*
X04348Y02187*
X04347Y02187*
X04346Y02187*
X04346*
X04346Y02187*
X04344Y02187*
X04343Y02186*
X04342Y02186*
X04341Y02185*
X0434Y02185*
X0434Y02184*
X04339Y02184*
X04339Y02184*
X04339Y02183*
X04338Y02182*
X04337Y02181*
X04337Y0218*
X04337Y0218*
X04336Y02179*
X04336Y02179*
Y02178*
X04336Y02177*
X04336Y02176*
Y02175*
X04336Y02174*
X04336Y02173*
X04336Y02173*
X04337Y02172*
Y02172*
X04337Y02171*
X04338Y0217*
X04338Y02169*
X04339Y02168*
X04339Y02167*
X0434Y02167*
X0434Y02166*
X04341Y02165*
X04343Y02164*
X04344Y02164*
X04346Y02163*
X04347Y02163*
X04349Y02163*
X04352Y02163*
X04353Y02163*
X04355Y02163*
X04356Y02163*
X04357Y02164*
X04358Y02164*
X04358Y02164*
X04359Y02164*
X04359*
X04361Y02157*
X04357Y02156*
X04354Y02156*
X04352Y02156*
X0435Y02155*
X04348Y02156*
X04347Y02156*
X04346Y02156*
X04346Y02156*
X04346Y02156*
X04343Y02156*
X04341Y02157*
X04339Y02158*
X04338Y02159*
X04337Y0216*
X04336Y02161*
X04335Y02161*
X04335Y02162*
X04334Y02163*
X04333Y02164*
X04331Y02166*
X0433Y02169*
X0433Y02171*
X04329Y02173*
X04329Y02174*
X04329Y02174*
X04329Y02175*
Y02176*
Y02176*
Y02176*
Y02177*
X04329Y02179*
X04329Y0218*
X04329Y02181*
X0433Y02184*
X04331Y02186*
X04332Y02187*
X04333Y02188*
X04333Y02189*
X04333Y02189*
X04334Y02189*
X04334Y02189*
X04334Y0219*
X04336Y02191*
X04337Y02192*
X04339Y02193*
X0434Y02193*
X04342Y02194*
X04343Y02194*
X04344Y02194*
X04344*
X04344Y02195*
X04345Y02195*
X04347Y02195*
X04349Y02195*
X04352*
X04355Y02195*
X04358Y02195*
X04359Y02195*
X0436Y02194*
X0436Y02194*
X04361Y02194*
X04361Y02194*
X04362*
X04363Y02194*
X04365Y02194*
X04366Y02194*
X04367Y02193*
X04369Y02193*
X04369Y02193*
X04371Y02193*
X04372Y02193*
X04373Y02193*
X04373*
X04373*
X04374Y02193*
X04376Y02193*
X04377Y02193*
X04377Y02193*
X04378Y02193*
X04379Y02193*
X04379*
X04379Y02194*
X04381Y02194*
X04382Y02195*
X04382Y02195*
X04383Y02196*
X04383Y02196*
X04383Y02196*
X04384Y02197*
X04384Y02198*
X04385Y02199*
X04385Y022*
X04385Y02201*
X04385Y02202*
Y02202*
Y02203*
X04385Y02204*
X04385Y02205*
X04384Y02206*
X04384Y02207*
X04383Y02208*
X04383Y02209*
X04382Y02209*
X04381Y0221*
X0438Y02211*
X04379Y02211*
X04379Y02212*
X04378Y02212*
X04377Y02212*
X04377Y02213*
X04377*
X04375Y02213*
X04374Y02213*
X04372*
X04371Y02213*
X04369Y02213*
X04368Y02213*
X04367Y02212*
X04367Y02213*
X04367Y02212*
X04366Y0222*
X04369Y0222*
X04371Y0222*
X04374Y0222*
G37*
G36*
X04434Y02166D02*
X04384Y02116D01*
X04355Y02144*
X0436Y02149*
X04383Y02125*
X04403Y02145*
X0438Y02169*
X04385Y02174*
X04408Y0215*
X04424Y02166*
X044Y0219*
X04405Y02195*
X04434Y02166*
G37*
G36*
X03646Y02228D02*
X03642Y02204D01*
X03665Y02208*
X03671Y02202*
X03641Y02197*
X03635Y02164*
X0363Y02169*
X03634Y02196*
X03607Y02192*
X03601Y02198*
X03635Y02203*
X0364Y02233*
X03646Y02228*
G37*
G36*
X03682Y02191D02*
X03676Y02184D01*
X03678Y02184*
X0368*
X03682Y02184*
X03684Y02184*
X03686Y02184*
X03687Y02184*
X03688Y02183*
X03688*
X03688Y02183*
X0369Y02183*
X03692Y02182*
X03694Y02181*
X03695Y0218*
X03696Y02179*
X03697Y02178*
X03698Y02177*
X037Y02176*
X03701Y02174*
X03702Y02172*
X03703Y02171*
X03703Y02169*
X03704Y02167*
X03705Y02166*
X03705Y02164*
X03705Y02163*
X03706Y02162*
X03706Y02161*
X03706Y0216*
X03706Y02159*
Y02158*
Y02158*
Y02158*
X03706Y02156*
X03706Y02154*
X03705Y02152*
X03705Y0215*
X03704Y02148*
X03703Y02147*
X03703Y02145*
X03702Y02144*
X03701Y02143*
X037Y02142*
X037Y02141*
X03699Y0214*
X03699Y02139*
X03698Y02139*
X03698Y02138*
X03698Y02138*
X03696Y02137*
X03695Y02136*
X03693Y02135*
X03691Y02134*
X0369Y02133*
X03688Y02132*
X03687Y02132*
X03685Y02131*
X03684Y02131*
X03682Y0213*
X03681Y0213*
X0368Y0213*
X0368Y0213*
X03679Y0213*
X03679*
X03678*
X03676Y0213*
X03674Y0213*
X03672Y02131*
X03671Y02131*
X03669Y02132*
X03667Y02132*
X03666Y02133*
X03665Y02134*
X03663Y02135*
X03662Y02135*
X03661Y02136*
X03661Y02137*
X0366Y02137*
X0366Y02137*
X03659Y02138*
X03658Y0214*
X03656Y02141*
X03655Y02143*
X03654Y02145*
X03654Y02146*
X03653Y02147*
X03653Y02147*
X03653Y02148*
Y02148*
X03653Y02148*
X03652Y0215*
X03652Y02152*
X03652Y02154*
X03652Y02156*
X03651Y02158*
Y02159*
X03652Y0216*
X03651Y0216*
X03645Y02154*
X0364Y02159*
X03678Y02196*
X03682Y02191*
G37*
G36*
X03728Y02142D02*
X03729Y02142D01*
X03729*
X0373Y02142*
X03731Y02141*
X03733Y0214*
X03735Y0214*
X03736Y02139*
X03737Y02138*
X03738Y02137*
X03738Y02137*
X0374Y02135*
X03741Y02133*
X03742Y02132*
X03743Y0213*
X03743Y02129*
X03744Y02128*
X03744Y02127*
Y02127*
X03744Y02127*
X03744Y02125*
X03744Y02122*
Y0212*
X03744Y02118*
X03744Y02117*
X03743Y02115*
X03743Y02115*
Y02115*
X03743Y02114*
X03743Y02114*
X03745Y02115*
X03746Y02115*
X03747Y02116*
X03749Y02116*
X0375Y02116*
X0375Y02116*
X03751Y02117*
X03751*
X03752*
X03753*
X03754Y02116*
X03755Y02116*
X03756Y02116*
X03757Y02116*
X03757Y02115*
X03758*
X03759Y02115*
X0376Y02114*
X03761Y02114*
X03762Y02113*
X03763Y02112*
X03763Y02112*
X03764Y02111*
X03765Y0211*
X03766Y02108*
X03767Y02107*
X03768Y02105*
X03769Y02104*
X03769Y02103*
X03769Y02102*
Y02102*
X03769Y02102*
X0377Y021*
X0377Y02098*
Y02096*
X0377Y02095*
X03769Y02093*
X03769Y02092*
X03769Y02092*
Y02091*
X03776Y02098*
X0378Y02093*
X03743Y02056*
X03738Y02061*
X03754Y02076*
X03755Y02078*
X03756Y02079*
X03758Y0208*
X03758Y02081*
X03759Y02082*
X0376Y02083*
X03761Y02084*
X03761Y02085*
X03762Y02085*
X03762Y02086*
X03762Y02087*
X03763Y02087*
X03763Y02087*
X03763Y02088*
X03763Y02088*
X03764Y0209*
X03764Y02092*
X03764Y02093*
X03765Y02095*
X03764Y02096*
X03764Y02097*
Y02097*
X03764Y02098*
X03764Y02099*
X03763Y02101*
X03763Y02102*
X03762Y02104*
X03761Y02105*
X03761Y02105*
X0376Y02106*
X03759Y02107*
X03758Y02108*
X03757Y02108*
X03756Y02109*
X03755Y02109*
X03754Y02109*
X03754Y02109*
X03754*
X03752Y02109*
X03751*
X0375Y02109*
X03749Y02109*
X03748Y02109*
X03747Y02109*
X03747Y02109*
X03747Y02108*
X03746Y02108*
X03745Y02108*
X03744Y02107*
X03742Y02105*
X03741Y02104*
X03739Y02102*
X03738Y02102*
X03738Y02101*
X03737Y02101*
X03737Y021*
X03737Y021*
X03737Y021*
X03718Y02081*
X03713Y02086*
X03728Y021*
X03729Y02102*
X0373Y02103*
X03731Y02105*
X03732Y02106*
X03733Y02107*
X03734Y02108*
X03735Y02109*
X03736Y0211*
X03736Y02111*
X03737Y02111*
X03737Y02112*
X03737Y02112*
X03737Y02113*
X03738Y02113*
X03738Y02113*
X03738Y02115*
X03739Y02117*
X03739Y02118*
X03739Y0212*
Y02121*
X03739Y02122*
Y02123*
X03739Y02123*
X03739Y02125*
X03738Y02126*
X03737Y02128*
X03737Y02129*
X03736Y0213*
X03735Y02131*
X03735Y02131*
X03734Y02132*
X03733Y02133*
X03731Y02134*
X03731Y02134*
X0373Y02134*
X03729Y02135*
X03729Y02135*
X03728*
X03727Y02135*
X03726*
X03725Y02135*
X03724Y02135*
X03723Y02134*
X03722Y02134*
X03722Y02134*
X03722Y02134*
X03721Y02134*
X03721Y02133*
X03719Y02132*
X03718Y02131*
X03716Y0213*
X03715Y02129*
X03714Y02128*
X03714Y02128*
X03713Y02127*
X03713Y02127*
X03713Y02127*
X03713Y02127*
X03693Y02107*
X03688Y02111*
X03708Y02132*
X03709Y02133*
X03711Y02134*
X03712Y02135*
X03713Y02136*
X03714Y02137*
X03715Y02137*
X03716Y02138*
X03716Y02139*
X03717Y02139*
X03718Y0214*
X03719Y0214*
X03719Y0214*
X03719Y0214*
X0372Y0214*
X0372Y02141*
X03722Y02141*
X03723Y02142*
X03725Y02142*
X03727Y02142*
X03728*
G37*
G36*
X03826Y02074D02*
X03804Y02018D01*
X0386Y0204*
X03865Y02035*
X03793Y02006*
X03792Y02007*
X03821Y02079*
X03826Y02074*
G37*
G36*
X03911Y01983D02*
X03912Y01983D01*
X03914Y01982*
X03915Y01982*
X03917Y01982*
X03918Y01981*
X03919Y01981*
X03922Y01979*
X03923Y01979*
X03924Y01978*
X03924Y01977*
X03925Y01977*
X03926Y01977*
X03926Y01976*
X03928Y01974*
X03929Y01973*
X03929Y01972*
X0393Y0197*
X03932Y01967*
X03932Y01966*
X03932Y01965*
X03933Y01964*
X03933Y01963*
X03933Y01962*
X03933Y01961*
X03933Y0196*
Y0196*
Y01959*
Y01959*
X03933Y01957*
X03933Y01956*
X03933Y01954*
X03932Y01953*
X03932Y01951*
X03931Y0195*
X0393Y01947*
X03929Y01946*
X03928Y01945*
X03928Y01944*
X03927Y01944*
X03927Y01943*
X03926Y01943*
X03926Y01942*
X03926Y01942*
X03921Y01947*
X03923Y01949*
X03924Y01952*
X03925Y01954*
X03926Y01956*
X03926Y01957*
X03927Y01958*
X03927Y01959*
Y0196*
X03926Y01962*
X03926Y01964*
X03925Y01966*
X03924Y01968*
X03923Y01969*
X03923Y0197*
X03922Y0197*
X03922Y01971*
X0392Y01972*
X03918Y01974*
X03916Y01974*
X03915Y01975*
X03913Y01975*
X03912Y01975*
X03911Y01976*
X03911*
X03909Y01975*
X03907Y01975*
X03905Y01974*
X03903Y01974*
X03902Y01973*
X03901Y01972*
X03901Y01972*
X03901Y01972*
X039Y01971*
X039Y01971*
X03899Y0197*
X03898Y01969*
X03897Y01967*
X03897Y01966*
X03896Y01965*
X03896Y01964*
X03896Y01963*
X03896Y01963*
X03896Y01962*
X03895Y01961*
X03895Y01959*
X03895Y01956*
X03894Y01953*
X03894Y0195*
X03894Y01949*
X03894Y01948*
Y01947*
Y01947*
X03894Y01946*
Y01946*
X03893Y01906*
X03858Y01941*
X03863Y01945*
X03887Y01922*
X03887Y01948*
X03888Y0195*
X03888Y01952*
X03888Y01954*
X03888Y01956*
X03888Y01958*
X03888Y01959*
X03889Y01962*
X03889Y01963*
X03889Y01964*
X03889Y01964*
X03889Y01965*
X0389Y01966*
X0389Y01966*
Y01966*
X0389Y01966*
X0389Y01968*
X03891Y0197*
X03892Y01972*
X03893Y01973*
X03894Y01975*
X03895Y01976*
X03895Y01976*
X03895Y01976*
X03896Y01976*
X03896Y01976*
X03897Y01977*
X03898Y01978*
X03901Y0198*
X03903Y01981*
X03905Y01982*
X03906Y01982*
X03907Y01982*
X03908Y01982*
X03909Y01983*
X0391*
X0391*
X0391Y01983*
X03911*
G37*
G36*
X03874Y0202D02*
X03875Y0202D01*
X03876Y0202*
X03876Y0202*
X03877Y0202*
X03877Y0202*
X03879Y02019*
X03881Y02018*
X03883Y02017*
X03885Y02016*
X03886Y02015*
X03887Y02015*
X03887Y02015*
X03888Y02014*
X03888Y02014*
X0389Y02012*
X03891Y0201*
X03892Y02008*
X03893Y02006*
X03894Y02005*
X03894Y02003*
X03894Y02003*
X03894Y02002*
X03894Y02002*
X03894Y02002*
X03894Y02*
X03894Y01997*
X03894Y01995*
X03894Y01993*
X03893Y01991*
X03893Y0199*
X03893Y01989*
X03892Y01989*
X03892Y01988*
X03892Y01988*
X03892Y01988*
X03891Y01986*
X0389Y01985*
X03889Y01982*
X03886Y01979*
X03884Y01976*
X03883Y01975*
X03882Y01974*
X03881Y01973*
X0388Y01972*
X0388Y01971*
X03879Y01971*
X03879Y01971*
X03879Y0197*
X03877Y01969*
X03875Y01967*
X03873Y01966*
X03872Y01964*
X0387Y01963*
X03869Y01962*
X03868Y01961*
X03866Y0196*
X03865Y0196*
X03864Y01959*
X03863Y01958*
X03863Y01958*
X03862Y01958*
X03862Y01957*
X03861Y01957*
X03861Y01957*
X03858Y01956*
X03856Y01955*
X03853Y01955*
X03851Y01955*
X03849Y01955*
X03848Y01955*
X03847Y01955*
X03847Y01955*
X03847Y01955*
X03845Y01956*
X03842Y01956*
X03841Y01957*
X03839Y01958*
X03837Y01959*
X03837Y0196*
X03836Y0196*
X03836Y01961*
X03836Y01961*
X03834Y01963*
X03833Y01965*
X03831Y01967*
X03831Y01969*
X0383Y0197*
X0383Y01971*
X0383Y01972*
X03829Y01972*
X0383Y01973*
X03829Y01973*
X03829Y01975*
X03829Y01978*
X0383Y0198*
X0383Y01983*
X03831Y01984*
X03831Y01985*
X03831Y01986*
X03831Y01987*
X03831Y01987*
X03832Y01987*
X03832Y01987*
X03832Y01989*
X03833Y0199*
X03835Y01993*
X03837Y01996*
X03839Y01999*
X0384Y02*
X03841Y02001*
X03842Y02002*
X03843Y02003*
X03844Y02004*
X03844Y02004*
X03844Y02005*
X03844Y02005*
X03846Y02007*
X03848Y02008*
X0385Y0201*
X03851Y02011*
X03853Y02012*
X03854Y02013*
X03856Y02014*
X03857Y02015*
X03858Y02015*
X03859Y02016*
X0386Y02017*
X03861Y02017*
X03861Y02017*
X03862Y02017*
X03862Y02018*
X03862Y02018*
X03865Y02019*
X03868Y02019*
X0387Y0202*
X03872Y0202*
X03874*
G37*
G36*
X03959Y0191D02*
X0396Y0191D01*
X03961Y0191*
X03961Y0191*
X03963Y01909*
X03965Y01908*
X03967Y01907*
X03968Y01907*
X03969Y01906*
X0397Y01905*
X03971Y01904*
X03972Y01903*
X03974Y01901*
X03974Y019*
X03975Y01898*
X03976Y01897*
X03976Y01896*
X03976Y01895*
Y01895*
X03977Y01895*
X03977Y01893*
X03977Y01891*
X03977Y01889*
Y01887*
X03977Y01885*
X03977Y01884*
X03977Y01883*
X03977Y01883*
X03984Y01889*
X03989Y01885*
X03951Y01848*
X03947Y01852*
X0396Y01866*
X03962Y01867*
X03963Y01868*
X03964Y0187*
X03965Y01871*
X03966Y01872*
X03966Y01873*
X03967Y01873*
X03968Y01874*
X03968Y01875*
X03969Y01875*
X03969Y01876*
X03969Y01876*
X0397Y01876*
X0397Y01877*
X03971Y01879*
X03971Y01881*
X03972Y01883*
X03972Y01884*
X03972Y01886*
Y01887*
Y01888*
Y01888*
X03972Y01891*
X03971Y01893*
X03971Y01894*
X0397Y01896*
X03969Y01897*
X03968Y01898*
X03968Y01899*
X03967Y01899*
X03966Y019*
X03965Y01901*
X03963Y01902*
X03962Y01903*
X03961Y01903*
X0396Y01903*
X0396Y01903*
X03959*
X03958Y01903*
X03956Y01903*
X03955Y01903*
X03953Y01902*
X03952Y01902*
X03951Y01901*
X03951Y01901*
X03951*
X03951Y01901*
X0395Y01901*
X03949Y019*
X03948Y01899*
X03947Y01898*
X03945Y01896*
X03944Y01895*
X03943Y01894*
X03943Y01894*
X03942Y01894*
X03942Y01893*
X03942Y01893*
X03942Y01893*
X03924Y01875*
X03919Y0188*
X03938Y01899*
X0394Y019*
X03941Y01902*
X03942Y01903*
X03943Y01904*
X03944Y01905*
X03945Y01905*
X03946Y01906*
X03947Y01907*
X03948Y01907*
X03949Y01908*
X03949Y01908*
X0395Y01908*
X0395Y01908*
X03951Y01909*
X03951*
X03951Y01909*
X03953Y01909*
X03955Y0191*
X03956Y0191*
X03958Y0191*
X03959Y0191*
G37*
G36*
X04018Y01882D02*
X03967Y01832D01*
X03962Y01837*
X04013Y01887*
X04018Y01882*
G37*
G36*
X04031Y01869D02*
X04009Y01813D01*
X04064Y01835*
X0407Y0183*
X03998Y01801*
X03997Y01802*
X04025Y01874*
X04031Y01869*
G37*
%LNesp_board-2*%
%LPC*%
G36*
X03868Y0269D02*
X03866Y0269D01*
X03865Y02689*
X03863Y02689*
X03862Y02689*
X03859Y02688*
X03857Y02686*
X03855Y02685*
X03854Y02685*
X03854Y02684*
X03853Y02684*
X03853Y02683*
X03853Y02683*
X03853Y02683*
X03851Y02681*
X0385Y0268*
X03849Y02678*
X03848Y02677*
X03848Y02676*
X03847Y02675*
X03847Y02674*
Y02674*
X03847Y02674*
X03847Y02672*
X03846Y0267*
Y02668*
X03846Y02666*
X03847Y02665*
X03847Y02664*
X03847Y02663*
Y02663*
X03847Y02663*
X03848Y02661*
X03849Y02659*
X03849Y02658*
X0385Y02656*
X03851Y02655*
X03852Y02654*
X03852Y02653*
X03854Y02652*
X03856Y02651*
X03857Y0265*
X03859Y02649*
X0386Y02649*
X03861Y02648*
X03861Y02648*
X03862*
X03862Y02648*
X03864Y02648*
X03866Y02648*
X03867*
X03869Y02648*
X03871Y02648*
X03872Y02648*
X03872Y02648*
X03873Y02648*
X03875Y02649*
X03876Y0265*
X03878Y02651*
X03879Y02652*
X03881Y02653*
X03881Y02653*
X03882Y02653*
X03882Y02654*
X03882Y02654*
X03882Y02654*
X03883Y02655*
X03885Y02657*
X03886Y02659*
X03886Y0266*
X03887Y02661*
X03887Y02662*
X03888Y02663*
X03888Y02663*
X03888Y02665*
X03888Y02667*
X03888Y02669*
X03888Y02671*
X03888Y02672*
X03888Y02673*
X03888Y02674*
X03888Y02674*
X03887Y02676*
X03886Y02678*
X03885Y0268*
X03885Y02681*
X03884Y02682*
X03883Y02683*
X03882Y02684*
X03881Y02685*
X0388Y02686*
X03877Y02687*
X03875Y02688*
X03873Y02689*
X03872Y02689*
X03871Y02689*
X0387Y0269*
X03869Y0269*
X03868*
X03868Y0269*
X03868*
X03868*
G37*
G36*
X03937Y02621D02*
X03935Y02621D01*
X03934Y0262*
X03932Y0262*
X03931Y0262*
X03928Y02619*
X03926Y02617*
X03924Y02616*
X03923Y02616*
X03923Y02615*
X03922Y02615*
X03922Y02614*
X03922Y02614*
X03922Y02614*
X0392Y02612*
X03919Y02611*
X03918Y02609*
X03917Y02608*
X03917Y02607*
X03916Y02606*
X03916Y02605*
Y02605*
X03916Y02605*
X03916Y02603*
X03915Y02601*
Y02599*
X03915Y02597*
X03916Y02596*
X03916Y02595*
X03916Y02594*
Y02594*
X03916Y02594*
X03917Y02592*
X03918Y0259*
X03918Y02588*
X03919Y02587*
X0392Y02586*
X03921Y02585*
X03921Y02584*
X03923Y02583*
X03925Y02582*
X03926Y02581*
X03928Y0258*
X03929Y0258*
X0393Y02579*
X03931Y02579*
X03931*
X03931Y02579*
X03933Y02579*
X03935Y02579*
X03937*
X03938Y02579*
X0394Y02579*
X03941Y02579*
X03941Y02579*
X03942Y02579*
X03944Y0258*
X03946Y02581*
X03947Y02582*
X03949Y02583*
X0395Y02583*
X0395Y02584*
X03951Y02584*
X03951Y02585*
X03951Y02585*
X03951Y02585*
X03953Y02586*
X03954Y02588*
X03955Y0259*
X03955Y02591*
X03956Y02592*
X03956Y02593*
X03957Y02594*
X03957Y02594*
X03957Y02596*
X03957Y02598*
Y026*
X03957Y02602*
X03957Y02603*
X03957Y02604*
X03957Y02605*
X03957Y02605*
X03956Y02607*
X03955Y02609*
X03955Y0261*
X03954Y02612*
X03953Y02613*
X03952Y02614*
X03951Y02614*
X0395Y02616*
X03949Y02617*
X03947Y02618*
X03944Y02619*
X03942Y0262*
X03941Y0262*
X0394Y0262*
X03939Y0262*
X03938Y02621*
X03937*
X03937Y02621*
X03937*
X03937*
G37*
G36*
X03983Y02574D02*
X03981Y02574D01*
X0398Y02574*
X03978Y02574*
X03977Y02573*
X03974Y02572*
X03972Y02571*
X0397Y0257*
X0397Y02569*
X03969Y02569*
X03968Y02568*
X03968Y02568*
X03968Y02568*
X03968Y02568*
X03966Y02566*
X03965Y02565*
X03964Y02563*
X03964Y02562*
X03963Y0256*
X03963Y02559*
X03962Y02559*
Y02558*
X03962Y02558*
X03962Y02556*
X03962Y02554*
X03962Y02553*
X03962Y02551*
X03962Y0255*
X03962Y02549*
X03962Y02548*
Y02548*
X03962Y02548*
X03963Y02546*
X03964Y02544*
X03965Y02543*
X03966Y02541*
X03966Y0254*
X03967Y02539*
X03968Y02539*
X03969Y02537*
X03971Y02536*
X03972Y02535*
X03974Y02534*
X03975Y02534*
X03976Y02533*
X03977Y02533*
X03977*
X03977Y02533*
X03979Y02533*
X03981Y02533*
X03982*
X03984Y02533*
X03985Y02533*
X03986Y02533*
X03987Y02533*
X03987Y02533*
X03989Y02534*
X03991Y02535*
X03993Y02536*
X03994Y02537*
X03995Y02537*
X03996Y02538*
X03996Y02538*
X03997Y02539*
X03997Y02539*
X03997Y02539*
X03998Y0254*
X03999Y02541*
X04Y02544*
X04002Y02546*
X04002Y02549*
X04003Y0255*
X04003Y02551*
X04003Y02551*
X04003Y02552*
Y02553*
Y02553*
X04003Y02554*
Y02554*
X04003Y02555*
X04003Y02557*
X04003Y02558*
X04002Y0256*
X04002Y02561*
X04001Y02562*
X04Y02564*
X03999Y02566*
X03999Y02567*
X03998Y02567*
X03998Y02568*
X03997Y02568*
X03996Y02569*
X03995Y0257*
X03994Y02571*
X03993Y02572*
X0399Y02573*
X03988Y02574*
X03986Y02574*
X03985Y02574*
X03984Y02574*
X03984*
X03983Y02574*
X03983*
X03983*
G37*
G36*
X04044Y0254D02*
X04043Y0254D01*
X04042Y02539*
X0404Y02539*
X04039Y02538*
X04039Y02537*
X04038Y02537*
X04038Y02537*
X04038Y02537*
X04037Y02536*
X04036Y02535*
X04036Y02534*
X04035Y02533*
X04035Y02532*
X04035Y02531*
X04035Y02531*
Y02531*
X04035Y0253*
X04035Y02528*
X04035Y02527*
X04035Y02526*
X04035Y02525*
X04035Y02524*
X04036Y02524*
Y02524*
X04036Y02522*
X04037Y02521*
X04038Y0252*
X0404Y02518*
X04041Y02517*
X04042Y02516*
X04045Y02512*
X04061Y02529*
X04055Y02534*
X04054Y02536*
X04052Y02537*
X0405Y02538*
X04049Y02539*
X04047Y02539*
X04047Y0254*
X04046Y0254*
X04046*
X04044*
G37*
G36*
X04018Y02521D02*
X04017Y02521D01*
X04015Y0252*
X04014Y0252*
X04013Y02519*
X04012Y02518*
X04011Y02518*
X0401Y02517*
X0401Y02517*
X0401Y02517*
X04009Y02516*
X04009Y02515*
X04008Y02514*
X04008Y02513*
X04007Y02512*
X04007Y02511*
X04007Y02511*
Y02511*
X04007Y02509*
Y02508*
X04007Y02507*
X04007Y02506*
X04007Y02505*
X04007Y02504*
X04008Y02503*
Y02503*
X04008Y02502*
X04009Y025*
X04011Y02499*
X04012Y02497*
X04013Y02496*
X04013Y02496*
X04021Y02488*
X0404Y02507*
X04035Y02512*
X04034Y02513*
X04033Y02514*
X04032Y02515*
X04032Y02516*
X04031Y02516*
X0403Y02517*
X04029Y02518*
X04028Y02518*
X04028Y02518*
X04028Y02518*
X04026Y02519*
X04024Y0252*
X04023Y02521*
X04021Y02521*
X0402Y02521*
X04019*
X04019*
X04018*
G37*
G36*
X04126Y0243D02*
X04126Y0243D01*
X04125*
X04124Y0243*
X04122Y0243*
X04121Y02429*
X04119Y02429*
X04118Y02428*
X04117Y02428*
X04117Y02427*
X04117*
X04116Y02427*
X04144Y02399*
X04145Y02402*
X04146Y02404*
X04147Y02406*
X04147Y02408*
X04148Y02409*
X04148Y0241*
Y02411*
Y02411*
X04147Y02413*
X04147Y02414*
X04147Y02417*
X04146Y02419*
X04145Y02421*
X04144Y02422*
X04143Y02423*
X04143Y02423*
X04142Y02424*
X04142Y02424*
X0414Y02426*
X04139Y02427*
X04138Y02427*
X04137Y02428*
X04136Y02429*
X04135Y02429*
X04134Y02429*
X04134Y02429*
X04132Y0243*
X04131Y0243*
X04129Y0243*
X04128Y0243*
X04127*
X04126*
G37*
G36*
X04174Y02383D02*
X04173Y02383D01*
X04171Y02383*
X0417Y02382*
X04168Y02382*
X04166Y02381*
X04164Y0238*
X04162Y02379*
X04161Y02378*
X0416Y02377*
X0416Y02377*
X0416Y02377*
X04159Y02377*
X04159Y02376*
X04158Y02375*
X04157Y02373*
X04156Y02372*
X04155Y0237*
X04154Y02369*
X04154Y02368*
X04154Y02367*
Y02367*
X04154Y02367*
X04153Y02365*
X04153Y02363*
Y02361*
X04153Y0236*
X04153Y02358*
X04153Y02357*
X04154Y02356*
Y02356*
X04154Y02356*
X04154Y02354*
X04155Y02352*
X04156Y02351*
X04157Y02349*
X04158Y02348*
X04158Y02348*
X04159Y02347*
X04161Y02346*
X04162Y02344*
X04164Y02343*
X04165Y02343*
X04166Y02342*
X04167Y02342*
X04168Y02342*
X04168*
X04168Y02341*
X0417Y02341*
X04172Y02341*
X04174*
X04176Y02341*
X04177Y02341*
X04178Y02341*
X04179Y02342*
X04179Y02342*
X04181Y02342*
X04183Y02343*
X04185Y02344*
X04186Y02345*
X04187Y02346*
X04188Y02347*
X04188Y02347*
X04189Y02347*
X04189Y02347*
X04189Y02347*
X0419Y02349*
X04191Y0235*
X04192Y02352*
X04193Y02353*
X04194Y02355*
X04194Y02356*
X04194Y02356*
X04194Y02357*
X04195Y02359*
X04195Y02361*
X04195Y02363*
X04195Y02364*
X04195Y02366*
X04195Y02367*
X04195Y02367*
X04194Y02367*
X04194Y02369*
X04193Y02371*
X04192Y02373*
X04191Y02374*
X0419Y02375*
X0419Y02376*
X04189Y02377*
X04188Y02378*
X04187Y02379*
X04184Y0238*
X04182Y02382*
X04179Y02382*
X04178Y02383*
X04177Y02383*
X04176Y02383*
X04176Y02383*
X04175*
X04175Y02383*
X04174*
X04174*
G37*
G36*
X04331Y02254D02*
X0433Y02254D01*
X04329*
X04328*
X04328Y02254*
X04328*
X04327Y02254*
X04325Y02253*
X04324Y02253*
X04323Y02252*
X04323Y02252*
X04322Y02251*
X04322Y02251*
X04322Y02251*
X04321Y0225*
X0432Y02249*
X0432Y02248*
X04319Y02247*
X04319Y02246*
X04319Y02245*
X04318Y02245*
Y02245*
X04318Y02243*
Y02242*
X04318Y02241*
X04319Y0224*
X04319Y02239*
X04319Y02238*
X04319Y02238*
Y02238*
X0432Y02237*
X04321Y02235*
X04322Y02234*
X04323Y02233*
X04324Y02231*
X04325Y0223*
X04326Y0223*
X04334Y02221*
X04352Y02238*
X04341Y02249*
X04339Y0225*
X04338Y02251*
X04337Y02252*
X04336Y02253*
X04335Y02253*
X04335Y02253*
X04334*
X04333Y02254*
X04332Y02254*
X04331Y02254*
G37*
G36*
X03678Y02179D02*
X03677Y02179D01*
X03675Y02179*
X03674Y02178*
X03672Y02178*
X0367Y02177*
X03668Y02176*
X03666Y02174*
X03665Y02174*
X03664Y02173*
X03664Y02173*
X03664Y02173*
X03663Y02172*
X03663Y02172*
X03662Y02171*
X03661Y02169*
X0366Y02167*
X03659Y02166*
X03658Y02165*
X03658Y02164*
X03658Y02163*
Y02163*
X03658Y02163*
X03657Y02161*
X03657Y02159*
Y02157*
X03657Y02156*
X03657Y02154*
X03657Y02153*
X03658Y02152*
Y02152*
X03658Y02152*
X03658Y0215*
X03659Y02148*
X0366Y02147*
X03661Y02145*
X03662Y02144*
X03663Y02143*
X03663Y02143*
X03665Y02141*
X03666Y0214*
X03668Y02139*
X03669Y02139*
X03671Y02138*
X03672Y02138*
X03672Y02137*
X03672*
X03672Y02137*
X03674Y02137*
X03676Y02137*
X03678*
X0368Y02137*
X03681Y02137*
X03682Y02137*
X03683Y02137*
X03683Y02138*
X03685Y02138*
X03687Y02139*
X03689Y0214*
X0369Y02141*
X03691Y02142*
X03692Y02142*
X03693Y02143*
X03693Y02143*
X03693Y02143*
X03693Y02143*
X03694Y02145*
X03695Y02146*
X03696Y02148*
X03697Y02149*
X03698Y02151*
X03698Y02152*
X03698Y02152*
X03698Y02152*
X03699Y02155*
X03699Y02157*
Y02158*
X03699Y0216*
X03699Y02161*
X03699Y02162*
X03699Y02163*
X03699Y02163*
X03698Y02165*
X03697Y02167*
X03696Y02169*
X03695Y0217*
X03695Y02171*
X03694Y02172*
X03693Y02173*
X03692Y02174*
X03691Y02175*
X03688Y02176*
X03686Y02177*
X03683Y02178*
X03682Y02178*
X03681Y02179*
X03681Y02179*
X0368Y02179*
X03679*
X03679Y02179*
X03679*
X03678*
G37*
G36*
X03873Y02013D02*
X03871Y02013D01*
X03869Y02013*
X03867Y02012*
X03866Y02012*
X03864Y02011*
X03864Y02011*
X03864Y02011*
X03863Y02011*
X03863Y02011*
X03861Y02009*
X03858Y02008*
X03856Y02006*
X03854Y02004*
X03853Y02003*
X03852Y02003*
X03851Y02002*
X0385Y02001*
X0385Y02001*
X03849Y02*
X03849Y02*
X03849Y02*
X03846Y01997*
X03844Y01995*
X03843Y01993*
X03842Y01992*
X03841Y01991*
X03841Y0199*
X0384Y01989*
X0384Y01988*
X03839Y01987*
X03839Y01986*
X03838Y01986*
X03838Y01985*
X03838Y01985*
X03838Y01985*
X03837Y01983*
X03837Y01981*
X03836Y01979*
X03836Y01977*
X03836Y01976*
Y01975*
Y01974*
X03836Y01974*
X03836Y01972*
X03837Y01971*
X03837Y01969*
X03838Y01968*
X03839Y01967*
X03839Y01966*
X0384Y01966*
X03841Y01965*
X03843Y01964*
X03844Y01963*
X03845Y01963*
X03847Y01962*
X03848Y01962*
X03848Y01962*
X03848Y01962*
X0385Y01962*
X03852Y01962*
X03854Y01962*
X03856Y01962*
X03857Y01963*
X03859Y01963*
X03859Y01964*
X03859Y01964*
X03859*
X0386Y01964*
X03861Y01964*
X03862Y01965*
X03864Y01967*
X03867Y01969*
X03869Y01971*
X0387Y01972*
X03871Y01972*
X03872Y01973*
X03873Y01974*
X03873Y01974*
X03874Y01975*
X03874Y01975*
X03874Y01975*
X03875Y01977*
X03877Y01978*
X03878Y0198*
X03879Y01981*
X0388Y01982*
X03881Y01984*
X03882Y01985*
X03883Y01986*
X03883Y01986*
X03884Y01987*
X03884Y01988*
X03885Y01989*
X03885Y01989*
X03885Y01989*
X03885Y01989*
X03885Y0199*
X03886Y01992*
X03887Y01994*
X03887Y01996*
X03887Y01997*
X03888Y01999*
Y02*
Y02*
X03887Y02001*
X03887Y02003*
X03887Y02004*
X03886Y02006*
X03885Y02007*
X03885Y02008*
X03884Y02009*
X03883Y02009*
X03882Y0201*
X03881Y02011*
X03879Y02012*
X03878Y02013*
X03877Y02013*
X03876Y02013*
X03875Y02013*
X03875Y02013*
X03873Y02013*
G37*
%LNesp_board-3*%
%LPD*%
G54D14*
X03277Y02689D02*
D01*
D01*
G75*
G03X02884I-00196J0D01*
G74*G01*
D01*
G75*
G03X03277I00196J0D01*
G74*G01*
X02929Y03332D02*
X03742Y04145D01*
X02929Y03332D02*
X04377Y01884D01*
X03742Y04145D02*
X0519Y02697D01*
X04377Y01884D02*
X0519Y02697D01*
X04742Y02555D02*
X04895Y02402D01*
X04519Y02332D02*
X04742Y02555D01*
X04519Y02332D02*
X04672Y02179D01*
X03586Y03989D02*
X0431Y03265D01*
X03809Y02764D02*
X0431Y03265D01*
X03085Y03488D02*
X03809Y02764D01*
X05057Y02334D02*
Y02373D01*
X05043Y0236*
X0503Y02373*
Y02334*
X04991Y02366D02*
X04997Y02373D01*
X05011*
X05017Y02366*
Y0234*
X05011Y02334*
X04997*
X04991Y0234*
X04978Y02373D02*
Y0234D01*
X04971Y02334*
X04958*
X04952Y0234*
Y02373*
X04938Y02334D02*
X04925D01*
X04932*
Y02373*
X04938Y02366*
X029Y02872D02*
X02907Y02879D01*
X0292*
X02927Y02872*
Y02846*
X0292Y0284*
X02907*
X029Y02846*
X02887Y02872D02*
X02881Y02879D01*
X02867*
X02861Y02872*
Y02866*
X02867Y02859*
X02874*
X02867*
X02861Y02853*
Y02846*
X02867Y0284*
X02881*
X02887Y02846*
X03013Y02934D02*
X03006Y02941D01*
X02993*
X02986Y02934*
Y02928*
X02993Y02921*
X02999*
X02993*
X02986Y02915*
Y02908*
X02993Y02902*
X03006*
X03013Y02908*
X02973Y02934D02*
X02967Y02941D01*
X02953*
X02947Y02934*
Y02928*
X02953Y02921*
X0296*
X02953*
X02947Y02915*
Y02908*
X02953Y02902*
X02967*
X02973Y02908*
X02934Y02934D02*
X02927Y02941D01*
X02914*
X02908Y02934*
Y02908*
X02914Y02902*
X02927*
X02934Y02908*
Y02934*
X02894Y02928D02*
Y02908D01*
X02888Y02902*
X02868*
Y02928*
X02829Y02941D02*
X02855D01*
Y02921*
X02842*
X02855*
Y02902*
X03737Y02371D02*
X0375D01*
X03743*
Y02338*
X0375Y02332*
X03756*
X03763Y02338*
X03724Y02332D02*
X0371D01*
X03717*
Y02371*
X03724Y02364*
G54D55*
X03053Y0228D02*
X03332Y02001D01*
X03053Y0228D02*
X03132Y02359D01*
X03332Y02001D02*
X03411Y0208D01*
X03592Y02465D02*
X03694Y02363D01*
X03415Y02642D02*
X03517Y0254D01*
M02*