%FSTAX23Y23*%
%MOIN*%
%SFA1B1*%

%IPPOS*%
%AMD16*
4,1,4,0.020900,0.004200,0.004200,0.020900,-0.020900,-0.004200,-0.004200,-0.020900,0.020900,0.004200,0.0*
%
%AMD17*
4,1,4,-0.032700,0.006200,0.006200,-0.032700,0.032700,-0.006200,-0.006200,0.032700,-0.032700,0.006200,0.0*
%
%AMD18*
4,1,4,0.058400,0.009800,0.009800,0.058400,-0.058400,-0.009800,-0.009800,-0.058400,0.058400,0.009800,0.0*
%
%AMD19*
4,1,4,0.009800,-0.058400,0.058400,-0.009800,-0.009800,0.058400,-0.058400,0.009800,0.009800,-0.058400,0.0*
%
%AMD21*
4,1,4,-0.018300,-0.027800,0.032600,-0.006800,0.018300,0.027800,-0.032600,0.006800,-0.018300,-0.027800,0.0*
%
%AMD22*
4,1,4,0.006200,0.032700,-0.032700,-0.006200,-0.006200,-0.032700,0.032700,0.006200,0.006200,0.032700,0.0*
%
%AMD23*
4,1,4,0.020900,0.004200,0.004200,0.020900,-0.020900,-0.004200,-0.004200,-0.020900,0.020900,0.004200,0.0*
1,1,0.023620,0.012500,0.012500*
1,1,0.023620,-0.012500,-0.012500*
%
%AMD24*
4,1,4,-0.097400,0.013900,0.013900,-0.097400,0.097400,-0.013900,-0.013900,0.097400,-0.097400,0.013900,0.0*
%
G04~CAMADD=16~9~0.0~0.0~236.2~354.3~0.0~0.0~0~0.0~0.0~0.0~0.0~0~0.0~0.0~0.0~0.0~0~0.0~0.0~0.0~315.0~418.0~417.0*
%ADD16D16*%
G04~CAMADD=17~9~0.0~0.0~551.2~374.0~0.0~0.0~0~0.0~0.0~0.0~0.0~0~0.0~0.0~0.0~0.0~0~0.0~0.0~0.0~135.0~654.0~653.0*
%ADD17D17*%
G04~CAMADD=18~9~0.0~0.0~689.0~964.6~0.0~0.0~0~0.0~0.0~0.0~0.0~0~0.0~0.0~0.0~0.0~0~0.0~0.0~0.0~315.0~1168.0~1167.0*
%ADD18D18*%
G04~CAMADD=19~9~0.0~0.0~689.0~964.6~0.0~0.0~0~0.0~0.0~0.0~0.0~0~0.0~0.0~0.0~0.0~0~0.0~0.0~0.0~225.0~1168.0~1167.0*
%ADD19D19*%
%ADD20R,0.037400X0.055120*%
G04~CAMADD=21~9~0.0~0.0~551.2~374.0~0.0~0.0~0~0.0~0.0~0.0~0.0~0~0.0~0.0~0.0~0.0~0~0.0~0.0~0.0~202.5~652.0~555.0*
%ADD21D21*%
G04~CAMADD=22~9~0.0~0.0~551.2~374.0~0.0~0.0~0~0.0~0.0~0.0~0.0~0~0.0~0.0~0.0~0.0~0~0.0~0.0~0.0~45.0~654.0~653.0*
%ADD22D22*%
G04~CAMADD=23~3~0.0~0.0~236.2~590.6~0.0~0.0~0~0.0~0.0~0.0~0.0~0~0.0~0.0~0.0~0.0~0~0.0~0.0~0.0~315.0~486.0~486.0*
%ADD23D23*%
G04~CAMADD=24~9~0.0~0.0~1574.8~1181.1~0.0~0.0~0~0.0~0.0~0.0~0.0~0~0.0~0.0~0.0~0.0~0~0.0~0.0~0.0~135.0~1948.0~1947.0*
%ADD24D24*%
%LNesp_board-1*%
%LPD*%
G54D16*
X04557Y02204D03*
X04504Y02257D03*
X04466Y02166D03*
G54D17*
X04205Y03438D03*
X04154Y03387D03*
X0393Y02596D03*
X03981Y02647D03*
X04177Y03019D03*
X04125Y02968D03*
X04118Y03078D03*
X04067Y03027D03*
X04008Y03085D03*
X04059Y03137D03*
X03958Y03035D03*
X03906Y02984D03*
X04075Y02918D03*
X04024Y02866D03*
X04016Y02976D03*
X03965Y02925D03*
X04774Y02874D03*
X04723Y02823D03*
X04544Y03494D03*
X04493Y03443D03*
X03697Y03531D03*
X03645Y03479D03*
X03743Y03577D03*
X03795Y03629D03*
G54D18*
X03242Y02646D03*
X03123Y02527D03*
X03535Y03859D03*
X03416Y03739D03*
G54D19*
X03887Y02141D03*
X03768Y0226D03*
G54D20*
X04342Y02118D03*
X04269D03*
G54D21*
X05182Y03422D03*
X05209Y03355D03*
X05098Y0362D03*
X05125Y03553D03*
G54D22*
X0486Y03762D03*
X04809Y03813D03*
X0451Y03755D03*
X04561Y03704D03*
X04228Y04031D03*
X04279Y0398D03*
X04283Y04087D03*
X04334Y04036D03*
X04299Y0367D03*
X04248Y03721D03*
X03588Y03298D03*
X03537Y0335D03*
X03529Y03239D03*
X03478Y03291D03*
X0347Y0318D03*
X03419Y03232D03*
X03177Y03542D03*
X03125Y03593D03*
X03302Y03667D03*
X0325Y03718D03*
X03239Y03604D03*
X03188Y03656D03*
G54D23*
X04572Y0359D03*
X04607Y03555D03*
X04643Y03519D03*
X04678Y03484D03*
X04725Y03743D03*
X0476Y03708D03*
X04796Y03672D03*
X04831Y03637D03*
X0429Y03874D03*
X04325Y03839D03*
X04361Y03803D03*
X04396Y03768D03*
X04443Y04027D03*
X04478Y03992D03*
X04514Y03956D03*
X04549Y03921D03*
X03735Y03691D03*
X037Y03726D03*
X03665Y03762D03*
X03629Y03797D03*
X03582Y03538D03*
X03547Y03573D03*
X03512Y03609D03*
X03476Y03644D03*
G54D24*
X0339Y03487D03*
X03277Y03374D03*
M02*