%FSTAX23Y23*%
%MOIN*%
%SFA1B1*%

%IPPOS*%
%ADD14C,0.010000*%
%ADD55C,0.005000*%
%LNesp_board-1*%
%LPD*%
G36*
X03067Y02585D02*
X03057Y02575D01*
X03067Y02565*
X03064Y02562*
X03054Y02572*
X03044Y02562*
X03041Y02565*
X03051Y02575*
X03041Y02585*
X03044Y02588*
X03054Y02578*
X03064Y02588*
X03067Y02585*
G37*
G36*
X03885Y02717D02*
X03864Y02695D01*
X03867Y02696*
X03869Y02696*
X03871Y02696*
X03873Y02696*
X03874Y02695*
X03875Y02695*
X03876Y02695*
X03876Y02695*
X03876Y02695*
X03877*
X03877Y02695*
X03879Y02694*
X03881Y02693*
X03882Y02692*
X03884Y02691*
X03885Y0269*
X03885Y0269*
X03886Y0269*
X03886Y02689*
X03887Y02688*
X03888Y02687*
X03889Y02685*
X03891Y02684*
X03891Y02682*
X03892Y0268*
X03893Y02679*
X03893Y02677*
X03894Y02676*
X03894Y02674*
X03894Y02673*
X03894Y02672*
X03895Y02671*
Y0267*
X03895Y0267*
Y02669*
Y02669*
X03895Y02667*
X03894Y02665*
X03894Y02663*
X03893Y02661*
X03893Y0266*
X03892Y02658*
X03891Y02657*
X03891Y02655*
X0389Y02654*
X03889Y02653*
X03888Y02652*
X03888Y02651*
X03887Y02651*
X03887Y0265*
X03887Y0265*
X03887Y0265*
X03885Y02648*
X03883Y02647*
X03882Y02646*
X0388Y02645*
X03878Y02644*
X03877Y02644*
X03875Y02643*
X03874Y02643*
X03872Y02642*
X03871Y02642*
X0387Y02642*
X03869Y02642*
X03868Y02642*
X03868*
X03867Y02641*
X03867*
X03865Y02642*
X03863Y02642*
X03861Y02642*
X03859Y02643*
X03858Y02643*
X03856Y02644*
X03855Y02645*
X03853Y02645*
X03852Y02646*
X03851Y02647*
X0385Y02647*
X03849Y02648*
X03849Y02649*
X03848Y02649*
X03848Y02649*
X03846Y02651*
X03845Y02653*
X03844Y02654*
X03843Y02656*
X03843Y02657*
X03842Y02657*
X03842Y02658*
X03842Y02658*
X03842Y02659*
X03842Y02659*
X03842Y02659*
X03842Y02659*
X03841Y02661*
X0384Y02664*
X0384Y02666*
X0384Y02668*
X0384Y02669*
X0384Y0267*
Y02671*
Y02671*
X0384Y02671*
Y02672*
X03834Y02665*
X03829Y0267*
X03881Y02722*
X03885Y02717*
G37*
G36*
X03908Y02665D02*
X0391Y02665D01*
X03911Y02664*
X03911Y02664*
X03912Y02663*
X03912Y02663*
X03913Y02663*
X03914Y02662*
X03914Y0266*
X03915Y02659*
X03915Y02658*
X03916Y02657*
X03916Y02656*
X03916Y02656*
X03916Y02656*
X03916Y02654*
X03917Y02653*
X03917Y02651*
X03916Y0265*
X03916Y02648*
X03916Y02647*
X03916Y02647*
X03916Y02647*
X03916Y02647*
X03921Y02652*
X03926Y02647*
X03889Y0261*
X03884Y02615*
X03897Y02627*
X03899Y02629*
X039Y02631*
X03902Y02632*
X03903Y02634*
X03904Y02635*
X03905Y02636*
X03906Y02637*
X03906Y02638*
X03907Y02639*
X03908Y02639*
X03908Y0264*
X03908Y0264*
X03909Y02641*
X03909Y02641*
X03909Y02641*
X03909Y02641*
X0391Y02643*
X0391Y02645*
X03911Y02646*
X03911Y02648*
X03911Y02649*
X03912Y0265*
Y0265*
Y02651*
X03911Y02652*
X03911Y02653*
X03911Y02655*
X0391Y02655*
X0391Y02656*
X03909Y02657*
X03908Y02658*
X03908Y02658*
X03907Y02658*
X03906Y02659*
X03906Y02659*
X03906Y02659*
X03906*
X03907Y02666*
X03908Y02665*
G37*
G36*
X0394Y02633D02*
X03933Y02626D01*
X03936Y02627*
X03938Y02627*
X0394Y02627*
X03942Y02626*
X03944Y02626*
X03944Y02626*
X03945Y02626*
X03945Y02626*
X03945Y02626*
X03946*
X03946Y02626*
X03948Y02625*
X0395Y02624*
X03951Y02623*
X03953Y02622*
X03954Y02621*
X03954Y02621*
X03955Y0262*
X03955Y0262*
X03956Y02619*
X03957Y02618*
X03959Y02616*
X0396Y02615*
X03961Y02613*
X03961Y02611*
X03962Y0261*
X03962Y02608*
X03963Y02607*
X03963Y02605*
X03963Y02604*
X03963Y02603*
X03964Y02602*
Y02601*
X03964Y02601*
Y026*
Y026*
X03964Y02598*
X03963Y02596*
X03963Y02594*
X03962Y02592*
X03962Y02591*
X03961Y02589*
X0396Y02588*
X0396Y02586*
X03959Y02585*
X03958Y02584*
X03957Y02583*
X03957Y02582*
X03956Y02582*
X03956Y02581*
X03956Y02581*
X03956Y02581*
X03954Y02579*
X03952Y02578*
X03951Y02577*
X03949Y02576*
X03947Y02575*
X03946Y02574*
X03944Y02574*
X03943Y02574*
X03941Y02573*
X0394Y02573*
X03939Y02573*
X03938Y02573*
X03937Y02572*
X03937*
X03936Y02572*
X03936*
X03934Y02572*
X03932Y02573*
X0393Y02573*
X03928Y02574*
X03927Y02574*
X03925Y02575*
X03924Y02575*
X03922Y02576*
X03921Y02577*
X0392Y02578*
X03919Y02578*
X03918Y02579*
X03918Y02579*
X03917Y0258*
X03917Y0258*
X03915Y02582*
X03914Y02584*
X03913Y02585*
X03912Y02587*
X03912Y02588*
X03911Y02588*
X03911Y02589*
X03911Y02589*
X03911Y0259*
X03911Y0259*
X03911Y0259*
X03911Y0259*
X0391Y02592*
X0391Y02594*
X03909Y02597*
X03909Y02598*
X03909Y026*
X03909Y02601*
Y02602*
Y02602*
X03909Y02602*
Y02602*
X03903Y02596*
X03898Y02601*
X03935Y02638*
X0394Y02633*
G37*
G36*
X04046Y02547D02*
X04047Y02547D01*
X04049Y02547*
X04049Y02547*
X0405Y02547*
X0405*
X0405Y02547*
X0405Y02546*
X04051Y02546*
X04052Y02546*
X04054Y02545*
X04056Y02543*
X04057Y02542*
X04058Y02541*
X04059Y02541*
X04059Y0254*
X0406Y0254*
X04071Y02529*
X0402Y02479*
X04007Y02492*
X04005Y02494*
X04004Y02495*
X04003Y02497*
X04002Y02498*
X04002Y02499*
X04001Y02501*
X04Y02502*
X04Y02503*
X04Y02504*
X03999Y02505*
X03999Y02506*
X03999Y02507*
X03999Y02508*
X03999Y02508*
Y02508*
Y02508*
Y0251*
X03999Y02511*
X03999Y02513*
X04Y02514*
X04Y02516*
X04001Y02517*
X04001Y02518*
X04002Y02519*
X04002Y0252*
X04003Y02521*
X04003Y02521*
X04004Y02522*
X04004Y02523*
X04004Y02523*
X04005Y02523*
X04005Y02523*
X04006Y02524*
X04007Y02525*
X04008Y02526*
X04009Y02526*
X0401Y02527*
X04011Y02527*
X04011Y02527*
X04011Y02527*
X04013Y02528*
X04014Y02528*
X04016Y02528*
X04017Y02528*
X04018Y02529*
X04019*
X04019*
X04019Y02528*
X04021Y02528*
X04022Y02528*
X04024Y02527*
X04025Y02527*
X04026Y02526*
X04027Y02526*
X04027Y02526*
X04028Y02526*
X04028Y02526*
X04028Y02526*
X04028Y02526*
X04028Y02527*
X04028Y02529*
X04028Y02531*
Y02532*
X04028Y02533*
X04028Y02534*
X04028Y02535*
Y02535*
X04028Y02535*
X04028Y02536*
X04029Y02538*
X0403Y02539*
X04031Y0254*
X04031Y02541*
X04032Y02542*
X04032Y02542*
X04032Y02542*
X04032Y02543*
X04032Y02543*
X04034Y02544*
X04035Y02545*
X04037Y02546*
X04038Y02546*
X04039Y02547*
X0404Y02547*
X0404Y02547*
X04041Y02547*
X04041*
X04041Y02547*
X04043Y02548*
X04044Y02548*
X04046Y02547*
G37*
G36*
X03981Y02582D02*
X03981D01*
X03983*
X03986Y02581*
X03987Y02581*
X03989Y02581*
X03991Y0258*
X03993Y02579*
X03994Y02579*
X03996Y02578*
X03997Y02577*
X03998Y02576*
X03999Y02576*
X04Y02575*
X04001Y02574*
X04001Y02574*
X04002Y02574*
X04003Y02572*
X04004Y0257*
X04006Y02569*
X04007Y02567*
X04007Y02565*
X04008Y02563*
X04009Y02562*
X04009Y0256*
X04009Y02559*
X04009Y02557*
X0401Y02556*
X0401Y02555*
X0401Y02554*
Y02554*
Y02553*
Y02553*
X0401Y02551*
X04009Y02549*
X04009Y02547*
X04008Y02546*
X04008Y02544*
X04007Y02542*
X04006Y02541*
X04005Y0254*
X04005Y02539*
X04004Y02538*
X04003Y02537*
X04003Y02536*
X04002Y02535*
X04002Y02535*
X04002Y02535*
X04001Y02535*
X04Y02533*
X03998Y02532*
X03997Y02531*
X03995Y0253*
X03994Y02529*
X03992Y02528*
X0399Y02528*
X03989Y02528*
X03988Y02527*
X03986Y02527*
X03985Y02527*
X03984Y02527*
X03984Y02526*
X03983*
X03983Y02526*
X03982*
X0398*
X03978Y02527*
X03976Y02527*
X03975Y02527*
X03973Y02528*
X03971Y02529*
X0397Y0253*
X03968Y0253*
X03967Y02531*
X03966Y02532*
X03965Y02533*
X03964Y02533*
X03963Y02534*
X03963Y02534*
X03963Y02535*
X03961Y02536*
X0396Y02538*
X03959Y0254*
X03958Y02541*
X03957Y02543*
X03956Y02545*
X03956Y02546*
X03955Y02548*
X03955Y02549*
X03955Y0255*
X03955Y02551*
X03954Y02552*
Y02553*
X03954Y02554*
Y02554*
Y02554*
X03955Y02556*
X03955Y02558*
X03955Y0256*
X03956Y02562*
X03957Y02564*
X03957Y02565*
X03958Y02567*
X03959Y02568*
X03959Y02569*
X0396Y0257*
X03961Y02571*
X03961Y02572*
X03962Y02573*
X03962Y02573*
X03962Y02573*
X03963Y02573*
X03964Y02575*
X03966Y02576*
X03967Y02577*
X03969Y02578*
X0397Y02579*
X03972Y02579*
X03973Y0258*
X03975Y0258*
X03976Y02581*
X03977Y02581*
X03978Y02581*
X03979Y02581*
X0398Y02582*
X03981Y02582*
X03981*
G37*
G36*
X04128Y02437D02*
X04131Y02437D01*
X04133Y02437*
X04135Y02436*
X04136Y02435*
X04138Y02435*
X0414Y02434*
X04141Y02433*
X04142Y02432*
X04143Y02431*
X04144Y02431*
X04145Y0243*
X04146Y0243*
X04146Y02429*
X04148Y02428*
X04149Y02426*
X0415Y02424*
X04151Y02422*
X04152Y0242*
X04153Y02418*
X04153Y02416*
X04153Y02415*
X04154Y02413*
X04154Y02412*
X04154Y02411*
X04154Y02409*
X04154Y02409*
Y02408*
X04154Y02408*
Y02407*
X04153Y02406*
X04153Y02404*
X04153Y02402*
X04152Y02401*
X04151Y02399*
X04151Y02398*
X0415Y02396*
X04149Y02395*
X04149Y02394*
X04148Y02393*
X04147Y02392*
X04147Y02392*
X04146Y02391*
X04146Y02391*
X04146Y02391*
X04146Y0239*
X04144Y02389*
X04143Y02388*
X04141Y02387*
X04139Y02386*
X04138Y02385*
X04136Y02384*
X04135Y02384*
X04133Y02383*
X04132Y02383*
X04131Y02383*
X0413Y02383*
X04129Y02382*
X04128Y02382*
X04127Y02382*
X04127Y02382*
X04127*
X04125Y02382*
X04123Y02382*
X04121Y02383*
X04119Y02383*
X04117Y02384*
X04116Y02384*
X04114Y02385*
X04113Y02386*
X04111Y02387*
X0411Y02388*
X04109Y02388*
X04108Y02389*
X04108Y0239*
X04107Y0239*
X04107Y0239*
X04105Y02392*
X04104Y02394*
X04103Y02395*
X04102Y02396*
X04101Y02397*
X04101Y02398*
X04101Y02398*
X04101Y02399*
X04101Y02399*
X04101Y02399*
X04101Y02399*
X041Y02401*
X04099Y02402*
X04099Y02404*
X04099Y02405*
X04098Y02407*
X04098Y02408*
X04098Y02408*
Y02408*
X04098Y0241*
X04098Y02412*
X04099Y02414*
X04099Y02416*
X04099Y02417*
X041Y02418*
X041Y02418*
X041Y02419*
X041Y02419*
Y02419*
X041Y02419*
X04106Y02418*
X04106Y02415*
X04105Y02414*
X04105Y02412*
X04105Y02411*
X04105Y0241*
X04105Y02409*
Y02408*
X04105Y02408*
X04105Y02407*
X04105Y02406*
X04106Y02404*
X04106Y02403*
X04106Y02402*
X04107Y02402*
X04107Y02401*
Y02401*
X04107Y02401*
X04108Y024*
X04108Y02398*
X04109Y02397*
X0411Y02396*
X04111Y02396*
X04111Y02395*
X04112Y02394*
X04113Y02393*
X04114Y02392*
X04115Y02392*
X04116Y02391*
X04117Y0239*
X04119Y0239*
X0412Y0239*
X04121Y02389*
X04122Y02389*
X04123Y02389*
X04124Y02389*
X04124Y02389*
X04125Y02389*
X04125*
X04125*
X04126*
X04127Y02389*
X04129Y02389*
X0413Y02389*
X04131Y0239*
X04133Y0239*
X04134Y02391*
X04136Y02392*
X04137Y02393*
X04138Y02393*
X04139Y02394*
X04139Y02394*
X0414Y02395*
X0414Y02395*
X0414Y02395*
X0414Y02395*
X04107Y02429*
X04108Y0243*
X0411Y02431*
X04111Y02432*
X04113Y02433*
X04114Y02434*
X04116Y02435*
X04117Y02435*
X04118Y02436*
X04119Y02436*
X0412Y02436*
X04121Y02437*
X04122Y02437*
X04123Y02437*
X04123Y02437*
X04124Y02437*
X04124*
X04126Y02437*
X04128Y02437*
G37*
G36*
X04091Y02483D02*
X04076Y02443D01*
X04115Y02458*
X0412Y02453*
X04066Y02433*
X04065Y02434*
X04085Y02488*
X04091Y02483*
G37*
G36*
X04193Y0241D02*
X04171Y02388D01*
X04174Y02389*
X04176Y02389*
X04178Y02389*
X0418Y02388*
X04181Y02388*
X04182Y02388*
X04183Y02388*
X04183Y02388*
X04183Y02388*
X04184*
X04184Y02388*
X04186Y02387*
X04188Y02386*
X04189Y02385*
X04191Y02384*
X04192Y02383*
X04192Y02383*
X04193Y02383*
X04193Y02382*
X04194Y02381*
X04195Y0238*
X04197Y02378*
X04198Y02377*
X04198Y02375*
X04199Y02373*
X042Y02372*
X042Y0237*
X04201Y02369*
X04201Y02367*
X04201Y02366*
X04201Y02365*
X04202Y02364*
Y02363*
X04202Y02363*
Y02362*
Y02362*
X04202Y0236*
X04201Y02358*
X04201Y02356*
X042Y02354*
X042Y02353*
X04199Y02351*
X04198Y0235*
X04198Y02348*
X04197Y02347*
X04196Y02346*
X04195Y02345*
X04195Y02344*
X04194Y02344*
X04194Y02343*
X04194Y02343*
X04194Y02343*
X04192Y02341*
X0419Y0234*
X04189Y02339*
X04187Y02338*
X04185Y02337*
X04184Y02337*
X04182Y02336*
X04181Y02336*
X04179Y02335*
X04178Y02335*
X04177Y02335*
X04176Y02335*
X04175Y02335*
X04175*
X04174Y02334*
X04174*
X04172Y02335*
X0417Y02335*
X04168Y02335*
X04166Y02336*
X04165Y02336*
X04163Y02337*
X04162Y02338*
X0416Y02338*
X04159Y02339*
X04158Y0234*
X04157Y0234*
X04156Y02341*
X04156Y02342*
X04155Y02342*
X04155Y02342*
X04153Y02344*
X04152Y02346*
X04151Y02347*
X0415Y02349*
X0415Y0235*
X04149Y0235*
X04149Y02351*
X04149Y02351*
X04149Y02352*
X04149Y02352*
X04149Y02352*
X04149Y02352*
X04148Y02354*
X04148Y02356*
X04147Y02359*
X04147Y0236*
X04147Y02362*
X04147Y02363*
Y02364*
Y02364*
X04147Y02364*
Y02364*
X04141Y02358*
X04136Y02363*
X04188Y02415*
X04193Y0241*
G37*
G36*
X04253Y0234D02*
X04253D01*
X04254*
X04256Y0234*
X04257Y0234*
X04259Y0234*
X0426Y02339*
X04262Y02338*
X04263Y02338*
X04264Y02337*
X04265Y02337*
X04266Y02336*
X04267Y02335*
X04267Y02335*
X04268Y02335*
X04268Y02334*
X0427Y02332*
X04271Y02331*
X04272Y0233*
X04272Y02328*
X04273Y02327*
X04274Y02325*
X04274Y02324*
X04275Y02323*
X04275Y02322*
X04275Y02321*
X04275Y0232*
X04275Y02319*
X04275Y02318*
Y02318*
Y02317*
Y02317*
X04275Y02315*
X04275Y02314*
X04275Y02312*
X04274Y02311*
X04274Y02309*
X04273Y02308*
X04273Y02306*
X04272Y02305*
X04271Y02304*
X0427Y02303*
X0427Y02302*
X04269Y02301*
X04269Y02301*
X04269Y023*
X04268Y023*
X04268Y023*
X04263Y02305*
X04264Y02306*
X04265Y02307*
X04266Y02308*
X04266Y02309*
X04267Y02311*
X04267Y02312*
X04268Y02313*
X04268Y02314*
X04268Y02314*
X04268Y02315*
X04269Y02316*
X04269Y02316*
Y02317*
Y02317*
X04269Y02317*
Y02317*
X04269Y02319*
X04269Y0232*
X04268Y02321*
X04268Y02322*
X04267Y02324*
X04266Y02326*
X04265Y02327*
X04265Y02327*
X04265Y02328*
X04264Y02328*
X04264Y02329*
X04263Y0233*
X04262Y0233*
X0426Y02331*
X04258Y02332*
X04257Y02333*
X04256Y02333*
X04255Y02333*
X04255Y02333*
X04254Y02333*
X04254Y02333*
X04253Y02333*
X04253*
X04253*
X04252*
X04251Y02333*
X0425Y02333*
X04249Y02333*
X04247Y02332*
X04246Y02331*
X04244Y02331*
X04244Y0233*
X04243Y0233*
X04243Y0233*
X04243Y02329*
X04243Y02329*
X04243Y02329*
X04241Y02328*
X0424Y02327*
X0424Y02325*
X04239Y02324*
X04239Y02323*
X04238Y02322*
X04238Y02322*
X04238Y02321*
Y02321*
X04238Y02321*
X04238Y0232*
X04238Y02319*
X04237Y02318*
X04237Y02316*
X04237Y02314*
X04237Y02311*
X04237Y0231*
X04236Y02308*
Y02307*
X04236Y02306*
X04236Y02305*
X04236Y02305*
X04236Y02304*
Y02304*
X04235Y02264*
X04201Y02298*
X04205Y02303*
X04229Y0228*
X0423Y02306*
X0423Y02308*
X0423Y0231*
X0423Y02312*
X0423Y02314*
X0423Y02316*
X04231Y02317*
X04231Y02319*
X04231Y0232*
X04231Y02321*
X04231Y02322*
X04231Y02322*
X04232Y02323*
X04232Y02323*
X04232Y02324*
Y02324*
X04232Y02324*
X04233Y02326*
X04233Y02328*
X04234Y0233*
X04235Y02331*
X04236Y02332*
X04236Y02333*
X04237Y02333*
X04237Y02333*
X04237Y02334*
X04238Y02334*
X04238Y02334*
X04238Y02334*
X04239Y02335*
X0424Y02336*
X04241Y02337*
X04243Y02338*
X04244Y02338*
X04245Y02339*
X04246Y02339*
X04247Y0234*
X04249Y0234*
X0425Y0234*
X0425Y0234*
X04251Y0234*
X04252Y0234*
X04252Y0234*
X04253*
G37*
G36*
X04295Y023D02*
X04296Y023D01*
X04297Y023*
X04298Y02299*
X04299Y02299*
X04299Y02299*
X04299Y02299*
X04299Y02299*
X04301Y02299*
X04303Y02298*
X04304Y02297*
X04306Y02296*
X04307Y02295*
X04307Y02295*
X04308Y02294*
X04308Y02294*
X04309Y02293*
X0431Y02292*
X04311Y02291*
X04312Y0229*
X04313Y02287*
X04313Y02286*
X04313Y02285*
X04314Y02284*
X04314Y02284*
X04314Y02283*
X04314Y02282*
X04314Y02282*
X04314Y02281*
Y02281*
Y02281*
X04315Y0228*
X04314Y02278*
X04314Y02276*
X04313Y02273*
X04313Y02271*
X04312Y0227*
X04312Y02269*
X04311Y02268*
X04311Y02267*
X04311Y02267*
X0431Y02266*
X0431Y02266*
X0431Y02266*
X04305Y02271*
X04306Y02272*
X04306Y02273*
X04307Y02275*
X04307Y02277*
X04307Y02279*
X04307Y0228*
X04307Y02281*
Y02281*
X04307Y02281*
X04307Y02283*
X04307Y02284*
X04306Y02286*
X04305Y02287*
X04305Y02288*
X04304Y02288*
X04304Y02289*
X04302Y0229*
X043Y02291*
X04299Y02292*
X04298Y02293*
X04296Y02293*
X04295Y02293*
X04295Y02293*
X04295Y02293*
X04295Y02293*
X04294*
X04293Y02293*
X04291Y02293*
X0429Y02292*
X04289Y02292*
X04287Y02291*
X04287Y02291*
X04287Y0229*
X04286Y0229*
X04286Y0229*
X04286Y0229*
X04285Y02289*
X04285Y02288*
X04284Y02287*
X04284Y02286*
X04284Y02286*
X04284Y02285*
X04283Y02285*
X04283Y02285*
X04283Y02283*
X04283Y02282*
X04283Y02281*
X04284Y0228*
X04284Y02279*
X04284Y02278*
X04284Y02278*
Y02277*
X04284Y02277*
X04285Y02276*
X04286Y02274*
X04287Y02273*
X04288Y02272*
X04288Y02271*
X04289Y02271*
X04289Y0227*
X04285Y02265*
X04284Y02266*
X04283Y02267*
X04282Y02268*
X04281Y02269*
X0428Y02269*
X04279Y0227*
X04278Y0227*
X04277Y02271*
X04277Y02271*
X04276Y02272*
X04276Y02272*
X04275Y02272*
X04275Y02272*
X04275Y02272*
X04275*
X04275Y02272*
X04273Y02273*
X04272Y02273*
X0427Y02273*
X04269Y02273*
X04268Y02273*
X04267Y02273*
X04266Y02273*
X04266*
X04266Y02273*
X04265Y02272*
X04263Y02272*
X04262Y02271*
X04261Y02271*
X0426Y0227*
X0426Y0227*
X04259Y02269*
X04259Y02269*
X04259Y02269*
X04259Y02269*
X04258Y02268*
X04258Y02267*
X04257Y02266*
X04257Y02265*
X04256Y02264*
X04255Y02262*
X04255Y02261*
X04255Y0226*
X04255Y0226*
X04255Y02259*
Y02259*
X04255Y02258*
Y02258*
Y02258*
X04255Y02257*
X04255Y02256*
X04255Y02254*
X04256Y02253*
X04257Y02251*
X04258Y02249*
X04258Y02249*
X04259Y02248*
X04259Y02247*
X04259Y02247*
X0426Y02246*
X0426Y02246*
X04261Y02245*
X04262Y02244*
X04264Y02243*
X04266Y02242*
X04267Y02242*
X04268Y02241*
X04269Y02241*
X04269Y02241*
X0427Y02241*
X0427Y02241*
X04271Y02241*
X04271Y02241*
X04271Y02241*
X04272*
X04273Y02241*
X04275Y02241*
X04276Y02242*
X04278Y02242*
X0428Y02243*
X0428Y02243*
X04281Y02244*
X04281Y02244*
X04281Y02244*
X04282Y02244*
X04282Y02244*
X04287Y02239*
X04285Y02238*
X04283Y02237*
X04282Y02237*
X04281Y02236*
X04279Y02235*
X04278Y02235*
X04276Y02235*
X04275Y02234*
X04274Y02234*
X04273Y02234*
X04272Y02234*
X04271Y02234*
X04271*
X0427*
X0427*
X0427*
X04269Y02234*
X04267Y02234*
X04266Y02235*
X04264Y02235*
X04263Y02236*
X04262Y02236*
X0426Y02238*
X04259Y02238*
X04258Y02239*
X04257Y02239*
X04257Y0224*
X04256Y0224*
X04255Y02241*
X04254Y02243*
X04252Y02245*
X04251Y02246*
X0425Y02248*
X0425Y02249*
X0425Y0225*
X04249Y0225*
X04249Y02251*
X04249Y02251*
X04249Y02251*
Y02252*
X04249Y02252*
X04248Y02254*
X04248Y02256*
X04248Y02258*
X04248Y0226*
X04248Y02262*
X04248Y02262*
X04248Y02263*
X04249Y02263*
X04249Y02264*
Y02264*
X04249Y02264*
X04249Y02266*
X0425Y02268*
X04251Y0227*
X04252Y02271*
X04253Y02272*
X04253Y02273*
X04254Y02273*
X04254Y02274*
X04254Y02274*
X04254Y02274*
X04254Y02274*
X04255Y02274*
X04256Y02275*
X04256Y02276*
X04258Y02277*
X04259Y02277*
X04261Y02278*
X04262Y02279*
X04263Y02279*
X04263Y02279*
X04264Y0228*
X04265Y0228*
X04266Y0228*
X04266Y0228*
X04267Y0228*
X04267Y0228*
X04267*
X04269Y0228*
X04271Y0228*
X04272Y0228*
X04274Y02279*
X04275Y02279*
X04276Y02279*
X04277Y02279*
X04277Y02278*
X04277Y02278*
X04277Y02278*
X04277Y0228*
X04277Y02282*
X04276Y02284*
X04277Y02285*
X04277Y02287*
X04277Y02288*
X04278Y0229*
X04278Y02291*
X04278Y02292*
X04279Y02293*
X04279Y02293*
X0428Y02294*
X0428Y02294*
X04281Y02295*
X04281Y02295*
X04281Y02295*
X04282Y02296*
X04284Y02297*
X04285Y02298*
X04286Y02299*
X04287Y02299*
X04288Y02299*
X04289Y02299*
X04289Y023*
X04289*
X04289Y023*
X04291Y023*
X04293Y023*
X04295Y023*
G37*
G36*
X04332Y02262D02*
X04334Y02261D01*
X04336Y02261*
X04337Y0226*
X04338Y0226*
X04338Y0226*
X04339Y02259*
X04339Y02259*
X04339Y02259*
X04339Y02259*
X0434Y02259*
X04341Y02258*
X04342Y02257*
X04343Y02257*
X04345Y02255*
X04347Y02253*
X04348Y02252*
X04348Y02251*
X04349Y0225*
X04361Y02238*
X04311Y02188*
X04306Y02193*
X04329Y02216*
X04324Y02222*
X04323Y02223*
X04321Y02225*
X0432Y02226*
X04319Y02227*
X04318Y02228*
X04317Y02229*
X04316Y0223*
X04316Y02231*
X04315Y02232*
X04315Y02232*
X04315Y02233*
X04314Y02233*
X04314Y02233*
X04314Y02233*
X04314Y02234*
X04313Y02236*
X04312Y02238*
X04311Y0224*
X04311Y02242*
X04311Y02243*
X04311Y02244*
Y02244*
X04311Y02245*
Y02245*
Y02245*
Y02245*
X04311Y02246*
X04311Y02247*
X04312Y0225*
X04313Y02251*
X04314Y02253*
X04314Y02254*
X04315Y02254*
X04315Y02255*
X04316Y02255*
X04316Y02256*
X04316Y02256*
X04316Y02256*
X04317Y02256*
X04318Y02257*
X04318Y02258*
X0432Y02259*
X04322Y0226*
X04323Y02261*
X04324Y02261*
X04325Y02261*
X04325Y02261*
X04326Y02261*
X04327Y02262*
X04327*
X04327Y02262*
X04327Y02262*
X04328*
X0433Y02262*
X04332Y02262*
G37*
G36*
X04375Y0222D02*
X04376Y0222D01*
X04377Y0222*
X04378Y0222*
X04379Y0222*
X04379Y0222*
X04379*
X04379Y0222*
X04381Y02219*
X04382Y02218*
X04384Y02218*
X04385Y02217*
X04386Y02216*
X04386Y02216*
X04387Y02215*
X04387Y02215*
X04389Y02214*
X0439Y02212*
X0439Y02211*
X04391Y0221*
X04391Y02209*
X04392Y02208*
X04392Y02208*
X04392Y02207*
Y02207*
X04392Y02207*
X04392Y02205*
X04393Y02204*
X04393Y02202*
X04393Y02201*
X04392Y022*
X04392Y02199*
X04392Y02199*
Y02198*
X04392Y02198*
X04392Y02197*
X04391Y02195*
X0439Y02194*
X0439Y02193*
X04389Y02192*
X04388Y02191*
X04388Y02191*
X04388Y02191*
X04388Y02191*
X04388Y02191*
X04387Y0219*
X04386Y02189*
X04384Y02188*
X04383Y02187*
X04381Y02187*
X0438Y02186*
X04379Y02186*
X04378Y02186*
X04378Y02186*
X04378Y02186*
X04377*
X04377Y02186*
X04377Y02186*
X04376Y02186*
X04375*
X04374Y02186*
X04371Y02186*
X04369Y02186*
X04366Y02186*
X04365Y02186*
X04364Y02186*
X04364Y02187*
X04363Y02187*
X04363Y02187*
X04363*
X04361Y02187*
X04359Y02187*
X04357Y02187*
X04355Y02187*
X04354Y02187*
X04353Y02188*
X04351*
X0435*
X04349Y02187*
X04348*
X04348Y02187*
X04347Y02187*
X04347*
X04346Y02187*
X04346*
X04346Y02187*
X04344Y02187*
X04343Y02186*
X04342Y02186*
X04341Y02185*
X0434Y02185*
X0434Y02184*
X04339Y02184*
X04339Y02184*
X04339Y02184*
X04339Y02183*
X04338Y02182*
X04337Y02181*
X04337Y0218*
X04337Y0218*
X04336Y02179*
X04336Y02179*
X04336Y02179*
X04336Y02177*
X04336Y02176*
X04336Y02175*
X04336Y02174*
X04336Y02173*
X04336Y02173*
X04336Y02172*
X04336Y02172*
X04337Y02171*
X04337Y0217*
X04338Y02169*
X04339Y02168*
X04339Y02167*
X0434Y02167*
X0434Y02166*
X04341Y02165*
X04343Y02164*
X04344Y02164*
X04345Y02163*
X04347Y02163*
X04349Y02163*
X0435Y02163*
X04352Y02163*
X04353Y02163*
X04354Y02163*
X04356Y02163*
X04357Y02164*
X04358Y02164*
X04358Y02164*
X04359Y02164*
X04359Y02164*
X0436Y02157*
X04359Y02157*
X04357Y02156*
X04356Y02156*
X04354Y02156*
X04353Y02156*
X04352Y02156*
X04351Y02156*
X0435*
X04349*
X04348Y02156*
X04347Y02156*
X04347*
X04346Y02156*
X04346*
X04346Y02156*
X04345*
X04343Y02156*
X04341Y02157*
X04339Y02158*
X04338Y02159*
X04337Y0216*
X04336Y0216*
X04336Y02161*
X04336Y02161*
X04335Y02161*
X04335Y02162*
X04334Y02163*
X04333Y02164*
X04332Y02165*
X04331Y02166*
X04331Y02168*
X0433Y02169*
X0433Y0217*
X04329Y02171*
X04329Y02172*
X04329Y02173*
X04329Y02174*
X04329Y02174*
X04329Y02175*
X04329Y02176*
Y02176*
Y02176*
Y02177*
X04329Y02179*
X04329Y0218*
X04329Y02181*
X0433Y02183*
X0433Y02184*
X04331Y02185*
X04331Y02186*
X04332Y02187*
X04332Y02187*
X04333Y02188*
X04333Y02189*
X04333Y02189*
X04334Y02189*
X04334Y02189*
X04334Y0219*
X04335Y02191*
X04337Y02192*
X04339Y02193*
X0434Y02194*
X04342Y02194*
X04342Y02194*
X04343Y02194*
X04343Y02195*
X04344Y02195*
X04344Y02195*
X04344*
X04345Y02195*
X04346Y02195*
X04348Y02195*
X04349Y02195*
X04352*
X04355Y02195*
X04356Y02195*
X04358Y02195*
X04359Y02195*
X0436Y02195*
X0436Y02194*
X04361Y02194*
X04361Y02194*
X04362*
X04363Y02194*
X04365Y02194*
X04366Y02194*
X04367Y02193*
X04368Y02193*
X04369Y02193*
X0437Y02193*
X04371Y02193*
X04371*
X04372Y02193*
X04373Y02193*
X04373*
X04373*
X04374Y02193*
X04376Y02193*
X04376Y02193*
X04377Y02193*
X04378Y02193*
X04378Y02193*
X04379Y02194*
X04379*
X0438Y02194*
X0438Y02194*
X04381Y02195*
X04382Y02195*
X04382Y02196*
X04382Y02196*
X04383Y02196*
X04383Y02196*
X04384Y02197*
X04384Y02198*
X04385Y02199*
X04385Y02201*
X04385Y02201*
X04385Y02202*
X04385Y02203*
Y02203*
X04385Y02204*
X04385Y02205*
X04384Y02206*
X04384Y02208*
X04383Y02208*
X04383Y02209*
X04382Y02209*
X04381Y0221*
X0438Y02211*
X04379Y02212*
X04379Y02212*
X04378Y02212*
X04377Y02212*
X04377Y02213*
X04377Y02213*
X04376Y02213*
X04375Y02213*
X04374Y02213*
X04372*
X04371Y02213*
X04369Y02213*
X04368Y02213*
X04368Y02213*
X04367*
X04367Y02213*
X04367*
X04366Y0222*
X04367Y0222*
X04369Y0222*
X0437Y0222*
X04371Y0222*
X04373*
X04374Y0222*
X04375Y0222*
G37*
G36*
X04434Y02166D02*
X04384Y02116D01*
X04355Y02144*
X0436Y02149*
X04383Y02125*
X04403Y02145*
X0438Y02169*
X04384Y02174*
X04408Y0215*
X04424Y02166*
X044Y0219*
X04405Y02195*
X04434Y02166*
G37*
G36*
X03645Y02228D02*
X03641Y02205D01*
X03665Y02208*
X03671Y02203*
X0364Y02198*
X03635Y02164*
X03629Y0217*
X03634Y02197*
X03607Y02192*
X03601Y02198*
X03635Y02204*
X0364Y02234*
X03645Y02228*
G37*
G36*
X03682Y02191D02*
X03675Y02184D01*
X03678Y02185*
X0368Y02185*
X03682Y02185*
X03684Y02185*
X03685Y02184*
X03686Y02184*
X03687Y02184*
X03687Y02184*
X03687Y02184*
X03688*
X03688Y02184*
X0369Y02183*
X03692Y02182*
X03693Y02181*
X03695Y0218*
X03695Y02179*
X03696Y02179*
X03697Y02179*
X03697Y02178*
X03698Y02177*
X03699Y02176*
X037Y02174*
X03702Y02173*
X03702Y02171*
X03703Y02169*
X03704Y02168*
X03704Y02166*
X03705Y02165*
X03705Y02163*
X03705Y02162*
X03705Y02161*
X03706Y0216*
Y02159*
X03706Y02159*
Y02158*
Y02158*
X03706Y02156*
X03705Y02154*
X03705Y02152*
X03704Y0215*
X03704Y02149*
X03703Y02147*
X03702Y02146*
X03702Y02144*
X03701Y02143*
X037Y02142*
X03699Y02141*
X03699Y0214*
X03698Y0214*
X03698Y02139*
X03698Y02139*
X03698Y02139*
X03696Y02137*
X03694Y02136*
X03693Y02135*
X03691Y02134*
X03689Y02133*
X03688Y02133*
X03686Y02132*
X03685Y02132*
X03683Y02131*
X03682Y02131*
X03681Y02131*
X0368Y02131*
X03679Y02131*
X03679*
X03678Y0213*
X03678*
X03676Y02131*
X03674Y02131*
X03672Y02131*
X0367Y02132*
X03669Y02132*
X03667Y02133*
X03666Y02134*
X03664Y02134*
X03663Y02135*
X03662Y02136*
X03661Y02136*
X0366Y02137*
X0366Y02138*
X03659Y02138*
X03659Y02138*
X03657Y0214*
X03656Y02142*
X03655Y02143*
X03654Y02145*
X03654Y02146*
X03653Y02146*
X03653Y02147*
X03653Y02147*
X03653Y02148*
X03653Y02148*
X03653Y02148*
X03653Y02148*
X03652Y0215*
X03651Y02153*
X03651Y02155*
X03651Y02157*
X03651Y02158*
X03651Y02159*
Y0216*
Y0216*
X03651Y0216*
Y02161*
X03645Y02154*
X0364Y02159*
X03677Y02196*
X03682Y02191*
G37*
G36*
X03728Y02142D02*
X03728Y02142D01*
X03729Y02142*
X03729Y02142*
X03729Y02142*
X03731Y02142*
X03733Y02141*
X03734Y0214*
X03736Y02139*
X03737Y02139*
X03737Y02138*
X03737Y02138*
X03738Y02137*
X03739Y02136*
X03741Y02134*
X03742Y02132*
X03742Y02131*
X03743Y02129*
X03743Y02129*
X03743Y02128*
X03743Y02128*
X03743Y02128*
Y02127*
X03743Y02127*
X03744Y02125*
X03744Y02123*
X03744Y02121*
X03744Y02119*
X03743Y02117*
X03743Y02116*
X03743Y02116*
X03743Y02115*
X03743Y02115*
X03743Y02115*
Y02115*
X03744Y02115*
X03746Y02116*
X03747Y02116*
X03748Y02117*
X03749Y02117*
X0375Y02117*
X0375Y02117*
X0375*
X03752*
X03753Y02117*
X03754Y02117*
X03755Y02116*
X03756Y02116*
X03757Y02116*
X03757Y02116*
X03757Y02116*
X03759Y02115*
X0376Y02115*
X03761Y02114*
X03762Y02113*
X03762Y02113*
X03763Y02112*
X03764Y02112*
X03765Y0211*
X03766Y02109*
X03767Y02107*
X03768Y02105*
X03768Y02104*
X03768Y02103*
X03769Y02103*
X03769Y02103*
X03769Y02102*
Y02102*
X03769Y02102*
X03769Y021*
X03769Y02099*
X03769Y02097*
X03769Y02095*
X03769Y02094*
X03769Y02093*
X03769Y02092*
X03769Y02092*
X03769Y02092*
Y02092*
X03775Y02098*
X0378Y02093*
X03743Y02056*
X03738Y02061*
X03754Y02077*
X03755Y02078*
X03756Y02079*
X03757Y0208*
X03758Y02081*
X03759Y02082*
X0376Y02083*
X0376Y02084*
X03761Y02085*
X03761Y02086*
X03762Y02086*
X03762Y02087*
X03762Y02087*
X03763Y02088*
X03763Y02088*
X03763Y02088*
X03763Y02088*
X03764Y0209*
X03764Y02092*
X03764Y02093*
X03764Y02095*
X03764Y02096*
X03764Y02097*
X03764Y02098*
X03764Y02098*
X03764Y02098*
X03764Y021*
X03763Y02101*
X03762Y02103*
X03762Y02104*
X03761Y02105*
X0376Y02106*
X0376Y02106*
X0376Y02106*
X03759Y02107*
X03758Y02108*
X03756Y02109*
X03755Y02109*
X03755Y02109*
X03754Y0211*
X03753Y0211*
X03753Y0211*
X03752Y0211*
X03751Y0211*
X0375Y0211*
X03749Y02109*
X03748Y02109*
X03747Y02109*
X03747Y02109*
X03747Y02109*
X03746Y02108*
X03745Y02108*
X03744Y02107*
X03744Y02107*
X03742Y02105*
X0374Y02104*
X0374Y02103*
X03739Y02103*
X03738Y02102*
X03738Y02102*
X03737Y02101*
X03737Y02101*
X03737Y02101*
X03737Y021*
X03718Y02081*
X03713Y02086*
X03727Y02101*
X03729Y02102*
X0373Y02104*
X03731Y02105*
X03732Y02106*
X03733Y02107*
X03734Y02108*
X03735Y02109*
X03735Y0211*
X03736Y02111*
X03736Y02112*
X03737Y02112*
X03737Y02113*
X03737Y02113*
X03737Y02113*
X03737Y02113*
X03737Y02114*
X03738Y02115*
X03739Y02117*
X03739Y02119*
X03739Y0212*
Y02121*
X03739Y02122*
X03739Y02123*
X03739Y02123*
X03739Y02123*
X03738Y02125*
X03738Y02127*
X03737Y02128*
X03736Y02129*
X03736Y0213*
X03735Y02131*
X03735Y02131*
X03734Y02132*
X03733Y02133*
X03732Y02133*
X03731Y02134*
X0373Y02134*
X03729Y02135*
X03729Y02135*
X03728Y02135*
X03728Y02135*
X03727Y02135*
X03726*
X03724Y02135*
X03724Y02135*
X03723Y02135*
X03722Y02135*
X03722Y02135*
X03721Y02134*
X03721Y02134*
X0372Y02134*
X0372Y02133*
X03719Y02133*
X03717Y02132*
X03716Y0213*
X03715Y02129*
X03714Y02129*
X03713Y02128*
X03713Y02128*
X03713Y02127*
X03712Y02127*
X03712Y02127*
X03692Y02107*
X03687Y02112*
X03708Y02132*
X03709Y02133*
X0371Y02134*
X03711Y02135*
X03712Y02136*
X03713Y02137*
X03714Y02138*
X03715Y02139*
X03716Y02139*
X03717Y0214*
X03718Y0214*
X03718Y0214*
X03719Y02141*
X03719Y02141*
X03719Y02141*
X03719Y02141*
X03719Y02141*
X03721Y02142*
X03723Y02142*
X03725Y02142*
X03726Y02142*
X03728Y02142*
G37*
G36*
X03826Y02074D02*
X03804Y02018D01*
X03859Y0204*
X03865Y02035*
X03793Y02006*
X03792Y02007*
X0382Y02079*
X03826Y02074*
G37*
G36*
X03873Y0202D02*
X03874D01*
X03875*
X03875Y0202*
X03876*
X03876Y0202*
X03876Y0202*
X03877*
X03878Y0202*
X03879Y02019*
X0388Y02019*
X03881Y02019*
X03883Y02018*
X03885Y02017*
X03886Y02016*
X03886Y02016*
X03887Y02015*
X03887Y02015*
X03888Y02014*
X03888Y02014*
X03889Y02013*
X0389Y02012*
X03891Y0201*
X03892Y02008*
X03893Y02006*
X03893Y02006*
X03894Y02005*
X03894Y02004*
X03894Y02003*
X03894Y02003*
X03894Y02003*
X03894Y02002*
Y02002*
X03894Y02001*
X03894Y02*
X03894Y01997*
X03894Y01995*
X03894Y01993*
X03893Y01991*
X03893Y0199*
X03892Y01989*
X03892Y01989*
X03892Y01988*
X03892Y01988*
X03892Y01988*
X03891Y01987*
X0389Y01985*
X0389Y01984*
X03889Y01982*
X03886Y01979*
X03885Y01978*
X03884Y01977*
X03883Y01975*
X03882Y01974*
X03881Y01973*
X0388Y01972*
X0388Y01972*
X03879Y01971*
X03879Y01971*
X03879Y01971*
X03879Y01971*
X03877Y01969*
X03875Y01967*
X03873Y01966*
X03872Y01964*
X0387Y01963*
X03869Y01962*
X03867Y01961*
X03866Y0196*
X03865Y0196*
X03864Y01959*
X03863Y01958*
X03863Y01958*
X03862Y01958*
X03862Y01957*
X03861Y01957*
X03861Y01957*
X0386Y01957*
X03858Y01956*
X03857Y01956*
X03856Y01956*
X03854Y01955*
X03853Y01955*
X03852Y01955*
X03851Y01955*
X0385*
X03849Y01955*
X03849Y01955*
X03848*
X03847Y01955*
X03847*
X03847Y01955*
X03847*
X03846Y01955*
X03844Y01956*
X03842Y01957*
X0384Y01958*
X03839Y01958*
X03838Y01959*
X03837Y01959*
X03837Y0196*
X03836Y0196*
X03836Y01961*
X03835Y01961*
X03835Y01962*
X03834Y01963*
X03832Y01965*
X03831Y01967*
X03831Y01969*
X0383Y0197*
X0383Y0197*
X0383Y01971*
X0383Y01972*
X03829Y01972*
X03829Y01973*
X03829Y01973*
Y01973*
X03829Y01974*
X03829Y01975*
X03829Y01978*
X03829Y01981*
X0383Y01983*
X03831Y01985*
X03831Y01986*
X03831Y01986*
X03831Y01987*
X03831Y01987*
X03831Y01987*
X03832Y01988*
X03832Y01989*
X03833Y01991*
X03835Y01994*
X03837Y01997*
X03838Y01998*
X03839Y01999*
X0384Y02*
X03841Y02002*
X03842Y02003*
X03843Y02003*
X03843Y02004*
X03844Y02005*
X03844Y02005*
X03844Y02005*
X03846Y02007*
X03848Y02008*
X03849Y0201*
X03851Y02011*
X03853Y02012*
X03854Y02013*
X03855Y02014*
X03857Y02015*
X03858Y02016*
X03859Y02016*
X0386Y02017*
X0386Y02017*
X03861Y02017*
X03861Y02018*
X03862Y02018*
X03862Y02018*
X03863Y02018*
X03865Y02019*
X03866Y02019*
X03867Y02019*
X03869Y0202*
X0387Y0202*
X03871Y0202*
X03872Y0202*
X03873*
G37*
G36*
X0391Y01983D02*
X0391D01*
X03912*
X03914Y01983*
X03915Y01982*
X03917Y01982*
X03918Y01981*
X03919Y01981*
X0392Y0198*
X03922Y01979*
X03923Y01979*
X03923Y01978*
X03924Y01978*
X03925Y01977*
X03925Y01977*
X03926Y01976*
X03927Y01975*
X03928Y01973*
X03929Y01972*
X0393Y0197*
X03931Y01969*
X03931Y01968*
X03932Y01966*
X03932Y01965*
X03933Y01964*
X03933Y01963*
X03933Y01962*
X03933Y01961*
X03933Y0196*
Y0196*
Y0196*
Y01959*
X03933Y01958*
X03933Y01956*
X03932Y01954*
X03932Y01953*
X03931Y01951*
X03931Y0195*
X0393Y01949*
X0393Y01947*
X03929Y01946*
X03928Y01945*
X03928Y01944*
X03927Y01944*
X03927Y01943*
X03926Y01943*
X03926Y01942*
X03926Y01942*
X03921Y01947*
X03922Y01948*
X03923Y01949*
X03924Y01951*
X03924Y01952*
X03925Y01953*
X03925Y01954*
X03926Y01955*
X03926Y01956*
X03926Y01957*
X03926Y01957*
X03926Y01958*
X03926Y01959*
Y01959*
Y01959*
X03927Y0196*
Y0196*
X03926Y01961*
X03926Y01962*
X03926Y01963*
X03926Y01964*
X03925Y01966*
X03924Y01968*
X03923Y01969*
X03923Y0197*
X03922Y0197*
X03922Y01971*
X03922Y01971*
X03921Y01972*
X0392Y01973*
X03918Y01974*
X03916Y01975*
X03915Y01975*
X03914Y01975*
X03913Y01975*
X03912Y01976*
X03912Y01976*
X03911Y01976*
X03911Y01976*
X03911*
X03911*
X0391*
X03909Y01976*
X03908Y01975*
X03907Y01975*
X03905Y01975*
X03903Y01974*
X03902Y01973*
X03902Y01973*
X03901Y01972*
X03901Y01972*
X039Y01972*
X039Y01972*
X039Y01972*
X03899Y0197*
X03898Y01969*
X03897Y01967*
X03897Y01966*
X03896Y01965*
X03896Y01964*
X03896Y01964*
X03896Y01964*
Y01963*
X03896Y01963*
X03895Y01962*
X03895Y01961*
X03895Y0196*
X03895Y01959*
X03895Y01956*
X03894Y01953*
X03894Y01952*
X03894Y01951*
Y01949*
X03894Y01948*
X03894Y01948*
X03894Y01947*
X03894Y01947*
Y01946*
X03893Y01906*
X03858Y01941*
X03863Y01946*
X03886Y01922*
X03887Y01948*
X03887Y0195*
X03888Y01953*
X03888Y01955*
X03888Y01956*
X03888Y01958*
X03888Y01959*
X03888Y01961*
X03889Y01962*
X03889Y01963*
X03889Y01964*
X03889Y01965*
X03889Y01965*
X03889Y01966*
X0389Y01966*
Y01966*
X0389Y01966*
X0389Y01969*
X03891Y0197*
X03892Y01972*
X03893Y01974*
X03894Y01974*
X03894Y01975*
X03894Y01975*
X03895Y01976*
X03895Y01976*
X03895Y01976*
X03895Y01976*
X03896Y01977*
X03897Y01978*
X03898Y01979*
X03899Y01979*
X039Y0198*
X03902Y01981*
X03903Y01981*
X03904Y01982*
X03905Y01982*
X03906Y01982*
X03907Y01982*
X03908Y01983*
X03909Y01983*
X0391Y01983*
X0391Y01983*
X0391*
G37*
G36*
X03958Y0191D02*
X03959Y0191D01*
X0396Y0191*
X03961Y0191*
X03961Y0191*
X03961Y0191*
X03961Y0191*
X03963Y01909*
X03965Y01908*
X03967Y01908*
X03968Y01907*
X03969Y01906*
X0397Y01905*
X0397Y01905*
X0397Y01905*
X03971Y01904*
X03972Y01903*
X03973Y01901*
X03975Y019*
X03975Y01898*
X03976Y01897*
X03976Y01896*
X03976Y01896*
X03976Y01895*
X03976Y01895*
X03976Y01895*
X03977Y01895*
X03977Y01893*
X03977Y01891*
X03977Y01889*
Y01887*
X03977Y01885*
X03977Y01884*
X03977Y01884*
Y01883*
X03977Y01883*
Y01883*
X03984Y0189*
X03989Y01885*
X03951Y01848*
X03947Y01852*
X0396Y01866*
X03962Y01867*
X03963Y01869*
X03964Y0187*
X03965Y01871*
X03966Y01872*
X03966Y01873*
X03967Y01873*
X03968Y01874*
X03968Y01875*
X03969Y01875*
X03969Y01876*
X03969Y01876*
X03969Y01876*
X0397Y01877*
X0397Y01877*
X0397Y01877*
X03971Y01879*
X03971Y01881*
X03972Y01883*
X03972Y01885*
X03972Y01886*
Y01887*
Y01887*
X03972Y01888*
Y01888*
X03972Y01888*
Y01888*
X03972Y0189*
X03972Y01891*
X03972Y01892*
X03971Y01893*
X03971Y01895*
X0397Y01896*
X03969Y01897*
X03968Y01898*
X03968Y01898*
X03968Y01899*
X03967Y01899*
X03966Y019*
X03965Y01901*
X03963Y01902*
X03962Y01903*
X03961Y01903*
X0396Y01903*
X03959Y01903*
X03959Y01903*
X03958Y01903*
X03956Y01903*
X03955Y01903*
X03953Y01902*
X03952Y01902*
X03951Y01901*
X03951Y01901*
X03951Y01901*
X03951Y01901*
X03951Y01901*
X0395Y01901*
X03949Y019*
X03949Y019*
X03948Y01899*
X03947Y01898*
X03945Y01896*
X03944Y01895*
X03943Y01895*
X03943Y01894*
X03942Y01894*
X03942Y01893*
X03942Y01893*
X03942Y01893*
X03924Y01875*
X03919Y0188*
X03938Y01899*
X03939Y01901*
X03941Y01902*
X03942Y01903*
X03943Y01904*
X03944Y01905*
X03945Y01906*
X03946Y01906*
X03947Y01907*
X03948Y01907*
X03949Y01908*
X03949Y01908*
X0395Y01908*
X0395Y01909*
X03951Y01909*
X03951Y01909*
X03951Y01909*
X03953Y01909*
X03955Y0191*
X03956Y0191*
X03958*
G37*
G36*
X04018Y01882D02*
X03967Y01832D01*
X03962Y01837*
X04012Y01887*
X04018Y01882*
G37*
G36*
X04031Y01869D02*
X04009Y01813D01*
X04064Y01835*
X0407Y0183*
X03998Y01801*
X03997Y01802*
X04025Y01874*
X04031Y01869*
G37*
%LNesp_board-2*%
%LPC*%
G36*
X03867Y0269D02*
X03865Y0269D01*
X03864Y0269*
X03862Y0269*
X03861Y02689*
X0386Y02689*
X03858Y02688*
X03857Y02688*
X03856Y02687*
X03855Y02686*
X03854Y02686*
X03854Y02685*
X03853Y02685*
X03853Y02684*
X03852Y02684*
X03852Y02684*
X03852Y02684*
X0385Y02682*
X03849Y02681*
X03848Y02679*
X03848Y02677*
X03847Y02676*
X03847Y02676*
X03847Y02675*
X03846Y02675*
X03846Y02675*
X03846Y02674*
X03846Y02674*
X03846Y02672*
X03846Y0267*
X03846Y02669*
X03846Y02667*
X03846Y02666*
X03846Y02664*
X03846Y02664*
X03846Y02664*
Y02664*
X03846Y02664*
X03847Y02662*
X03848Y0266*
X03849Y02658*
X0385Y02657*
X03851Y02656*
X03851Y02655*
X03851Y02655*
X03851Y02655*
X03852Y02654*
X03853Y02653*
X03855Y02652*
X03857Y02651*
X03858Y0265*
X03859Y02649*
X0386Y02649*
X0386Y02649*
X03861Y02649*
X03861Y02649*
X03861Y02649*
X03861Y02649*
X03863Y02648*
X03865Y02648*
X03867*
X03869Y02648*
X0387Y02649*
X03871Y02649*
X03872Y02649*
X03872Y02649*
X03872*
X03872Y02649*
X03874Y0265*
X03876Y0265*
X03878Y02651*
X03879Y02652*
X0388Y02653*
X03881Y02654*
X03881Y02654*
X03881Y02654*
X03881Y02654*
X03881Y02654*
X03882Y02654*
X03883Y02656*
X03884Y02658*
X03885Y02659*
X03886Y02661*
X03886Y02662*
X03887Y02663*
X03887Y02663*
X03887Y02663*
X03887Y02664*
X03887Y02664*
X03887Y02664*
X03888Y02666*
X03888Y02668*
X03888Y0267*
X03888Y02671*
X03888Y02673*
X03888Y02674*
X03887Y02674*
X03887Y02675*
Y02675*
X03887Y02675*
X03887Y02677*
X03886Y02679*
X03885Y0268*
X03884Y02682*
X03883Y02683*
X03883Y02683*
X03883Y02684*
X03882Y02684*
X03881Y02685*
X03879Y02686*
X03878Y02687*
X03877Y02688*
X03876Y02688*
X03874Y02689*
X03873Y02689*
X03872Y0269*
X03871Y0269*
X0387Y0269*
X03869Y0269*
X03869Y0269*
X03868Y0269*
X03867*
X03867*
X03867*
G37*
G36*
X03936Y02621D02*
X03935Y02621D01*
X03933Y02621*
X03932Y02621*
X0393Y0262*
X03929Y0262*
X03928Y02619*
X03926Y02619*
X03925Y02618*
X03924Y02617*
X03924Y02617*
X03923Y02616*
X03922Y02616*
X03922Y02615*
X03921Y02615*
X03921Y02615*
X03921Y02615*
X0392Y02613*
X03918Y02611*
X03917Y0261*
X03917Y02608*
X03916Y02607*
X03916Y02607*
X03916Y02606*
X03916Y02606*
X03915Y02605*
X03915Y02605*
X03915Y02605*
X03915Y02603*
X03915Y02601*
X03915Y02599*
X03915Y02598*
X03915Y02596*
X03915Y02595*
X03915Y02595*
X03915Y02595*
Y02595*
X03915Y02594*
X03916Y02592*
X03917Y02591*
X03918Y02589*
X03919Y02588*
X0392Y02587*
X0392Y02586*
X0392Y02586*
X03921Y02585*
X03921Y02585*
X03922Y02584*
X03924Y02583*
X03926Y02582*
X03927Y02581*
X03928Y0258*
X03929Y0258*
X03929Y0258*
X0393Y0258*
X0393Y0258*
X0393Y0258*
X0393Y0258*
X03932Y02579*
X03934Y02579*
X03936*
X03938Y02579*
X03939Y02579*
X0394Y0258*
X03941Y0258*
X03941Y0258*
X03941*
X03941Y0258*
X03943Y02581*
X03945Y02581*
X03947Y02582*
X03948Y02583*
X03949Y02584*
X0395Y02584*
X0395Y02585*
X0395Y02585*
X0395Y02585*
X03951Y02585*
X03951Y02585*
X03952Y02587*
X03953Y02589*
X03954Y0259*
X03955Y02592*
X03955Y02593*
X03956Y02594*
X03956Y02594*
X03956Y02594*
X03956Y02595*
X03956Y02595*
X03956Y02595*
X03957Y02597*
X03957Y02599*
X03957Y02601*
X03957Y02602*
X03957Y02604*
X03957Y02605*
X03956Y02605*
X03956Y02605*
Y02606*
X03956Y02606*
X03956Y02608*
X03955Y0261*
X03954Y02611*
X03953Y02612*
X03952Y02614*
X03952Y02614*
X03952Y02614*
X03951Y02615*
X0395Y02616*
X03949Y02617*
X03947Y02618*
X03946Y02619*
X03945Y02619*
X03943Y0262*
X03942Y0262*
X03941Y02621*
X0394Y02621*
X03939Y02621*
X03938Y02621*
X03938Y02621*
X03937Y02621*
X03936*
X03936*
X03936*
G37*
G36*
X04044Y0254D02*
X04042Y0254D01*
X04041Y0254*
X0404Y02539*
X04039Y02538*
X04038Y02538*
X04038Y02538*
X04038Y02538*
X04038Y02537*
X04038Y02537*
X04037Y02536*
X04036Y02535*
X04035Y02534*
X04035Y02533*
X04035Y02533*
X04035Y02532*
X04034Y02531*
X04034Y02531*
X04034Y0253*
X04034Y02529*
X04034Y02527*
X04035Y02526*
X04035Y02526*
X04035Y02525*
X04035Y02524*
Y02524*
X04035Y02524*
X04035Y02524*
X04036Y02523*
X04037Y02522*
X04038Y0252*
X04039Y02519*
X0404Y02517*
X04041Y02517*
X04041Y02516*
X04045Y02513*
X04061Y02529*
X04054Y02536*
X04053Y02536*
X04052Y02537*
X04051Y02538*
X04051Y02538*
X0405Y02539*
X04049Y02539*
X04048Y0254*
X04048Y0254*
X04047Y0254*
X04047Y0254*
X04046Y0254*
X04046Y0254*
X04046*
X04045Y0254*
X04044*
G37*
G36*
X04018Y02522D02*
X04018Y02521D01*
X04016Y02521*
X04015Y02521*
X04013Y0252*
X04012Y02519*
X04011Y02519*
X04011Y02518*
X0401Y02518*
X0401Y02518*
X0401Y02518*
X0401Y02518*
X04009Y02517*
X04008Y02516*
X04008Y02515*
X04007Y02514*
X04007Y02513*
X04007Y02512*
X04007Y02511*
X04006Y02511*
X04006Y0251*
X04006Y02508*
X04006Y02507*
X04007Y02506*
X04007Y02505*
X04007Y02504*
X04007Y02504*
Y02504*
X04007Y02504*
X04008Y02503*
X04008Y02502*
X04009Y02501*
X0401Y02499*
X04011Y02498*
X04012Y02497*
X04013Y02496*
X04013Y02496*
X0402Y02488*
X0404Y02508*
X04035Y02513*
X04034Y02514*
X04033Y02515*
X04032Y02515*
X04031Y02516*
X0403Y02517*
X0403Y02517*
X04029Y02518*
X04029Y02518*
X04028Y02518*
X04028Y02518*
X04028Y02519*
X04028Y02519*
X04027Y02519*
X04026Y0252*
X04024Y0252*
X04022Y02521*
X04021Y02521*
X0402Y02521*
X04019Y02521*
X04018*
X04018Y02522*
G37*
G36*
X03982Y02575D02*
X03981Y02575D01*
X03979Y02574*
X03978Y02574*
X03976Y02574*
X03975Y02573*
X03974Y02573*
X03973Y02572*
X03972Y02572*
X03971Y02571*
X0397Y0257*
X03969Y0257*
X03969Y02569*
X03968Y02569*
X03968Y02569*
X03967Y02568*
X03967Y02568*
X03966Y02567*
X03965Y02565*
X03964Y02564*
X03963Y02562*
X03963Y02561*
X03962Y0256*
X03962Y0256*
X03962Y02559*
X03962Y02559*
X03962Y02559*
X03962Y02559*
X03962Y02557*
X03961Y02555*
X03961Y02553*
X03961Y02552*
X03961Y0255*
X03962Y02549*
Y02549*
X03962Y02549*
Y02548*
X03962Y02548*
X03962Y02546*
X03963Y02545*
X03964Y02543*
X03965Y02542*
X03966Y02541*
X03966Y0254*
X03967Y0254*
X03967Y0254*
X03967Y02539*
X03969Y02538*
X0397Y02537*
X03972Y02536*
X03973Y02535*
X03974Y02534*
X03975Y02534*
X03975Y02534*
X03976Y02534*
X03976Y02534*
X03976Y02534*
X03976Y02534*
X03978Y02533*
X0398Y02533*
X03982*
X03984Y02533*
X03985Y02533*
X03986Y02534*
X03986Y02534*
X03987Y02534*
X03987*
X03987Y02534*
X03989Y02534*
X03991Y02535*
X03992Y02536*
X03994Y02537*
X03995Y02538*
X03995Y02538*
X03996Y02539*
X03996Y02539*
X03996Y02539*
X03996Y02539*
X03996Y02539*
X03998Y02541*
X03999Y02542*
X03999Y02543*
X04Y02544*
X04001Y02546*
X04001Y02547*
X04002Y02548*
X04002Y02549*
X04002Y0255*
X04002Y02551*
X04003Y02552*
X04003Y02553*
X04003Y02553*
X04003Y02554*
Y02554*
Y02554*
X04003Y02556*
X04003Y02557*
X04002Y02559*
X04002Y0256*
X04002Y02562*
X04001Y02563*
X04001Y02564*
X04Y02565*
X03999Y02566*
X03999Y02567*
X03998Y02567*
X03998Y02568*
X03998Y02568*
X03997Y02569*
X03996Y0257*
X03995Y02571*
X03993Y02572*
X03992Y02572*
X03991Y02573*
X0399Y02573*
X03989Y02574*
X03987Y02574*
X03986Y02574*
X03985Y02574*
X03985Y02575*
X03984Y02575*
X03983Y02575*
X03983*
X03982*
X03982*
G37*
G36*
X04125Y02431D02*
X04125Y02431D01*
X04124Y0243*
X04122Y0243*
X0412Y0243*
X04119Y02429*
X04118Y02428*
X04117Y02428*
X04117Y02428*
X04116Y02428*
X04116Y02428*
X04116Y02428*
X04144Y024*
X04145Y02401*
X04145Y02402*
X04146Y02403*
X04146Y02404*
X04146Y02405*
X04147Y02406*
X04147Y02407*
X04147Y02408*
X04147Y02409*
X04147Y0241*
X04147Y0241*
X04147Y02411*
Y02411*
Y02412*
X04147Y02412*
X04147Y02412*
X04147Y02413*
X04147Y02414*
X04147Y02416*
X04146Y02417*
X04146Y02418*
X04145Y02419*
X04144Y02421*
X04144Y02422*
X04143Y02423*
X04143Y02423*
X04142Y02424*
X04142Y02424*
X04141Y02425*
X0414Y02426*
X04139Y02427*
X04137Y02428*
X04136Y02428*
X04135Y02429*
X04134Y02429*
X04134Y02429*
X04134Y0243*
X04134*
X04134Y0243*
X04132Y0243*
X0413Y02431*
X04129Y02431*
X04128Y02431*
X04127*
X04126*
X04125*
G37*
G36*
X04174Y02383D02*
X04173Y02383D01*
X04171Y02383*
X04169Y02383*
X04168Y02382*
X04167Y02382*
X04165Y02381*
X04164Y02381*
X04163Y0238*
X04162Y02379*
X04161Y02379*
X04161Y02378*
X0416Y02378*
X0416Y02377*
X04159Y02377*
X04159Y02377*
X04159Y02377*
X04157Y02375*
X04156Y02374*
X04155Y02372*
X04155Y0237*
X04154Y02369*
X04154Y02369*
X04154Y02368*
X04153Y02368*
X04153Y02367*
X04153Y02367*
X04153Y02367*
X04153Y02365*
X04153Y02363*
X04153Y02362*
X04153Y0236*
X04153Y02359*
X04153Y02357*
X04153Y02357*
X04153Y02357*
Y02357*
X04153Y02356*
X04154Y02355*
X04155Y02353*
X04156Y02351*
X04157Y0235*
X04158Y02349*
X04158Y02348*
X04158Y02348*
X04158Y02347*
X04159Y02347*
X0416Y02346*
X04162Y02345*
X04164Y02344*
X04165Y02343*
X04166Y02342*
X04167Y02342*
X04167Y02342*
X04168Y02342*
X04168Y02342*
X04168Y02342*
X04168Y02342*
X0417Y02341*
X04172Y02341*
X04174*
X04176Y02341*
X04177Y02342*
X04178Y02342*
X04179Y02342*
X04179Y02342*
X04179*
X04179Y02342*
X04181Y02343*
X04183Y02343*
X04185Y02344*
X04186Y02345*
X04187Y02346*
X04188Y02347*
X04188Y02347*
X04188Y02347*
X04188Y02347*
X04189Y02347*
X04189Y02347*
X0419Y02349*
X04191Y02351*
X04192Y02352*
X04193Y02354*
X04193Y02355*
X04194Y02356*
X04194Y02356*
X04194Y02356*
X04194Y02357*
X04194Y02357*
X04194Y02357*
X04195Y02359*
X04195Y02361*
X04195Y02363*
X04195Y02364*
X04195Y02366*
X04195Y02367*
X04194Y02367*
X04194Y02367*
Y02368*
X04194Y02368*
X04194Y0237*
X04193Y02372*
X04192Y02373*
X04191Y02375*
X0419Y02376*
X0419Y02376*
X0419Y02376*
X04189Y02377*
X04188Y02378*
X04186Y02379*
X04185Y0238*
X04184Y02381*
X04183Y02381*
X04181Y02382*
X0418Y02382*
X04179Y02383*
X04178Y02383*
X04177Y02383*
X04176Y02383*
X04176Y02383*
X04175Y02383*
X04174*
X04174*
X04174*
G37*
G36*
X0433Y02254D02*
X04329Y02254D01*
X04328*
X04328Y02254*
X04328Y02254*
X04327Y02254*
X04325Y02253*
X04324Y02253*
X04323Y02252*
X04323Y02252*
X04322Y02251*
X04322Y02251*
X04322Y02251*
X04322Y02251*
X04321Y0225*
X0432Y02249*
X0432Y02248*
X04319Y02247*
X04319Y02246*
X04319Y02246*
X04319Y02245*
X04318Y02245*
X04318Y02244*
Y02242*
X04318Y02241*
X04319Y0224*
X04319Y02239*
X04319Y02239*
X04319Y02238*
X04319Y02238*
X04319Y02238*
X0432Y02237*
X04321Y02235*
X04322Y02234*
X04323Y02233*
X04324Y02231*
X04325Y02231*
X04325Y02231*
X04326Y0223*
X04334Y02221*
X04351Y02238*
X04342Y02248*
X04341Y02249*
X0434Y0225*
X04339Y0225*
X04338Y02251*
X04338Y02251*
X04337Y02252*
X04337Y02252*
X04336Y02253*
X04336Y02253*
X04335Y02253*
X04335Y02254*
X04334Y02254*
X04333Y02254*
X04332Y02254*
X04331Y02254*
X0433Y02254*
G37*
G36*
X03678Y02179D02*
X03676Y02179D01*
X03675Y02179*
X03673Y02179*
X03672Y02178*
X03671Y02178*
X03669Y02177*
X03668Y02177*
X03667Y02176*
X03666Y02175*
X03665Y02175*
X03665Y02174*
X03664Y02174*
X03664Y02173*
X03663Y02173*
X03663Y02173*
X03663Y02173*
X03661Y02171*
X0366Y0217*
X03659Y02168*
X03659Y02166*
X03658Y02165*
X03658Y02165*
X03658Y02164*
X03657Y02164*
X03657Y02164*
X03657Y02163*
X03657Y02163*
X03657Y02161*
X03657Y02159*
X03657Y02158*
X03657Y02156*
X03657Y02155*
X03657Y02153*
X03657Y02153*
X03657Y02153*
Y02153*
X03657Y02153*
X03658Y02151*
X03659Y02149*
X0366Y02147*
X03661Y02146*
X03662Y02145*
X03662Y02144*
X03662Y02144*
X03662Y02144*
X03663Y02143*
X03664Y02142*
X03666Y02141*
X03667Y0214*
X03669Y02139*
X0367Y02138*
X03671Y02138*
X03671Y02138*
X03672Y02138*
X03672Y02138*
X03672Y02138*
X03672Y02138*
X03674Y02137*
X03676Y02137*
X03678*
X0368Y02137*
X03681Y02138*
X03682Y02138*
X03683Y02138*
X03683Y02138*
X03683*
X03683Y02138*
X03685Y02139*
X03687Y02139*
X03689Y0214*
X0369Y02141*
X03691Y02142*
X03691Y02143*
X03692Y02143*
X03692Y02143*
X03692Y02143*
X03692Y02143*
X03693Y02143*
X03694Y02145*
X03695Y02147*
X03696Y02148*
X03697Y0215*
X03697Y02151*
X03698Y02152*
X03698Y02152*
X03698Y02152*
X03698Y02153*
X03698Y02153*
X03698Y02153*
X03699Y02155*
X03699Y02157*
X03699Y02159*
X03699Y0216*
X03699Y02162*
X03699Y02163*
X03698Y02163*
X03698Y02164*
Y02164*
X03698Y02164*
X03698Y02166*
X03697Y02168*
X03696Y02169*
X03695Y02171*
X03694Y02172*
X03694Y02172*
X03694Y02173*
X03693Y02173*
X03692Y02174*
X0369Y02175*
X03689Y02176*
X03688Y02177*
X03687Y02177*
X03685Y02178*
X03684Y02178*
X03683Y02179*
X03682Y02179*
X03681Y02179*
X0368Y02179*
X03679Y02179*
X03679Y02179*
X03678*
X03678*
X03678*
G37*
G36*
X03873Y02013D02*
X03871Y02013D01*
X03869Y02013*
X03867Y02012*
X03865Y02012*
X03865Y02012*
X03864Y02011*
X03864Y02011*
X03863Y02011*
X03863Y02011*
X03863Y02011*
X03862Y0201*
X03861Y0201*
X03858Y02008*
X03856Y02006*
X03854Y02004*
X03853Y02004*
X03852Y02003*
X03851Y02002*
X0385Y02001*
X0385Y02001*
X03849Y02001*
X03849Y02*
X03849Y02*
X03848Y01999*
X03846Y01997*
X03845Y01996*
X03844Y01995*
X03843Y01993*
X03842Y01992*
X03841Y01991*
X03841Y0199*
X0384Y01989*
X03839Y01988*
X03839Y01987*
X03839Y01987*
X03838Y01986*
X03838Y01986*
X03838Y01985*
X03838Y01985*
X03837Y01983*
X03836Y01981*
X03836Y01979*
X03836Y01978*
X03836Y01976*
X03836Y01975*
X03836Y01975*
X03836Y01974*
X03836Y01974*
X03836Y01972*
X03837Y01971*
X03837Y01969*
X03838Y01968*
X03839Y01967*
X03839Y01966*
X03839Y01966*
X0384Y01966*
X03841Y01965*
X03843Y01964*
X03844Y01963*
X03845Y01962*
X03847Y01962*
X03847Y01962*
X03848Y01962*
X03848Y01962*
X03848Y01962*
X03848Y01962*
X0385Y01962*
X03852Y01962*
X03854Y01962*
X03856Y01962*
X03857Y01963*
X03858Y01963*
X03858Y01963*
X03859Y01964*
X03859Y01964*
X03859Y01964*
X03859Y01964*
X03861Y01964*
X03862Y01965*
X03863Y01966*
X03864Y01967*
X03867Y01969*
X03869Y01971*
X0387Y01972*
X03871Y01972*
X03872Y01973*
X03872Y01974*
X03873Y01974*
X03874Y01975*
X03874Y01975*
X03874Y01975*
X03875Y01977*
X03877Y01978*
X03878Y0198*
X03879Y01981*
X0388Y01982*
X03881Y01984*
X03882Y01985*
X03883Y01986*
X03883Y01987*
X03884Y01987*
X03884Y01988*
X03885Y01989*
X03885Y01989*
X03885Y01989*
X03885Y0199*
X03885Y0199*
X03886Y01992*
X03887Y01994*
X03887Y01996*
X03887Y01997*
X03887Y01999*
Y02*
X03887Y02001*
X03887Y02001*
X03887Y02001*
X03887Y02003*
X03886Y02004*
X03886Y02006*
X03885Y02007*
X03884Y02008*
X03884Y02009*
X03884Y02009*
X03883Y02009*
X03882Y0201*
X03881Y02011*
X03879Y02012*
X03878Y02013*
X03877Y02013*
X03876Y02013*
X03875Y02013*
X03875Y02013*
X03875Y02013*
X03875Y02013*
X03874Y02013*
X03873*
G37*
%LNesp_board-3*%
%LPD*%
G54D14*
X03277Y02689D02*
D01*
D01*
G75*
G03X02884I-00196J0D01*
G74*G01*
D01*
G75*
G03X03277I00196J0D01*
G74*G01*
X02929Y03332D02*
X03742Y04145D01*
X02929Y03332D02*
X04377Y01884D01*
X03742Y04145D02*
X0519Y02697D01*
X04377Y01884D02*
X0519Y02697D01*
X04742Y02555D02*
X04895Y02402D01*
X04519Y02332D02*
X04742Y02555D01*
X04519Y02332D02*
X04672Y02179D01*
X03586Y03989D02*
X0431Y03265D01*
X03809Y02764D02*
X0431Y03265D01*
X03085Y03488D02*
X03809Y02764D01*
X029Y02872D02*
X02907Y02879D01*
X0292*
X02927Y02872*
Y02846*
X0292Y0284*
X02907*
X029Y02846*
X02887Y02872D02*
X02881Y02879D01*
X02867*
X02861Y02872*
Y02866*
X02867Y02859*
X02874*
X02867*
X02861Y02853*
Y02846*
X02867Y0284*
X02881*
X02887Y02846*
X03013Y02934D02*
X03006Y02941D01*
X02993*
X02986Y02934*
Y02928*
X02993Y02921*
X02999*
X02993*
X02986Y02915*
Y02908*
X02993Y02902*
X03006*
X03013Y02908*
X02973Y02934D02*
X02967Y02941D01*
X02953*
X02947Y02934*
Y02928*
X02953Y02921*
X0296*
X02953*
X02947Y02915*
Y02908*
X02953Y02902*
X02967*
X02973Y02908*
X02934Y02934D02*
X02927Y02941D01*
X02914*
X02908Y02934*
Y02908*
X02914Y02902*
X02927*
X02934Y02908*
Y02934*
X02894Y02928D02*
Y02908D01*
X02888Y02902*
X02868*
Y02928*
X02829Y02941D02*
X02855D01*
Y02921*
X02842*
X02855*
Y02902*
X05057Y02334D02*
Y02373D01*
X05043Y0236*
X0503Y02373*
Y02334*
X04991Y02366D02*
X04997Y02373D01*
X05011*
X05017Y02366*
Y0234*
X05011Y02334*
X04997*
X04991Y0234*
X04978Y02373D02*
Y0234D01*
X04971Y02334*
X04958*
X04952Y0234*
Y02373*
X04938Y02334D02*
X04925D01*
X04932*
Y02373*
X04938Y02366*
X03737Y02371D02*
X0375D01*
X03743*
Y02338*
X0375Y02332*
X03756*
X03763Y02338*
X03724Y02332D02*
X0371D01*
X03717*
Y02371*
X03724Y02364*
G54D55*
X03053Y0228D02*
X03332Y02001D01*
X03053Y0228D02*
X03132Y02359D01*
X03332Y02001D02*
X03411Y0208D01*
X03592Y02465D02*
X03694Y02363D01*
X03415Y02642D02*
X03517Y0254D01*
M02*