%FSTAX23Y23*%
%MOIN*%
%SFA1B1*%

%IPPOS*%
%AMD36*
4,1,4,0.055700,0.002800,0.002800,0.055700,-0.055700,-0.002800,-0.002800,-0.055700,0.055700,0.002800,0.0*
1,1,0.082800,-0.026400,0.026400*
1,1,0.082800,0.026400,-0.026400*
%
%AMD37*
4,1,4,0.008400,-0.047300,0.047300,-0.008400,-0.008400,0.047300,-0.047300,0.008400,0.008400,-0.047300,0.0*
1,1,0.078870,0.019400,0.019400*
1,1,0.078870,-0.019400,-0.019400*
%
%AMD41*
4,1,4,-0.018100,-0.043800,0.043800,-0.018100,0.018100,0.043800,-0.043800,0.018100,-0.018100,-0.043800,0.0*
%
%ADD34C,0.086740*%
%ADD35C,0.126110*%
G04~CAMADD=36~3~0.0~0.0~1576.1~828.0~0.0~0.0~0~0.0~0.0~0.0~0.0~0~0.0~0.0~0.0~0.0~0~0.0~0.0~0.0~315.0~1354.0~1354.0*
%ADD36D36*%
G04~CAMADD=37~3~0.0~0.0~1339.8~788.7~0.0~0.0~0~0.0~0.0~0.0~0.0~0~0.0~0.0~0.0~0.0~0~0.0~0.0~0.0~225.0~1176.0~1176.0*
%ADD37D37*%
%ADD38C,0.070990*%
%ADD39C,0.074930*%
%ADD40C,0.067060*%
G04~CAMADD=41~10~0.0~670.5~0.0~0.0~0.0~0.0~0~0.0~0.0~0.0~0.0~0~0.0~0.0~0.0~0.0~0~0.0~0.0~0.0~202.5~670.5~0.0*
%ADD41D41*%
%ADD42C,0.165480*%
%LNesp_board-1*%
%LPD*%
G54D34*
X03142Y03225D03*
X03213Y03154D03*
X03284Y03083D03*
X03354Y03013D03*
X03425Y02942D03*
X03496Y02871D03*
X03566Y028D03*
X03637Y0273D03*
X03708Y02659D03*
X03779Y02588D03*
X03849Y02518D03*
X0392Y02447D03*
X03991Y02376D03*
X04061Y02305D03*
X04132Y02235D03*
X04839Y02942D03*
X04769Y03013D03*
X04698Y03083D03*
X04627Y03154D03*
X04556Y03225D03*
X04486Y03295D03*
X04415Y03366D03*
X04344Y03437D03*
X04274Y03508D03*
X04203Y03578D03*
X04132Y03649D03*
X04061Y0372D03*
X03991Y0379D03*
X0392Y03861D03*
X03849Y03932D03*
G54D35*
X03527Y02475D03*
G54D36*
X0336Y02308D03*
G54D37*
X03609Y02292D03*
X03478Y02161D03*
X03213Y02426D03*
X03344Y02557D03*
G54D38*
X03269Y02217D03*
G54D39*
X03011Y02619D03*
X0315Y02758D03*
G54D40*
X03732Y01986D03*
X03663Y02055D03*
X04982Y03238D03*
X05036Y03369D03*
X04944Y03331D03*
X04998Y03461D03*
X04906Y03423D03*
X0496Y03554D03*
X04868Y03516D03*
G54D41*
X05075Y03277D03*
G54D42*
X0406Y0203D03*
X05044Y03015D03*
X0406Y03999D03*
X03075Y03015D03*
M02*